SplineFontDB: 3.2
FontName: GargouilleBoldExtra
FullName: GargouilleBoldExtra
FamilyName: GargouilleBoldExtra
Weight: Bold
Copyright: 
Version: Version 2;Fontself Maker 3.5.1
ItalicAngle: 0
UnderlinePosition: 0
UnderlineWidth: 0
Ascent: 800
Descent: 200
InvalidEm: 0
sfntRevision: 0x00010000
LayerCount: 2
Layer: 0 0 "Back" 1
Layer: 1 0 "Fore" 0
XUID: [1021 690 1522831698 14029]
StyleMap: 0x0040
FSType: 0
OS2Version: 4
OS2_WeightWidthSlopeOnly: 0
OS2_UseTypoMetrics: 0
CreationTime: 1587336329
ModificationTime: 1693980721
PfmFamily: 81
TTFWeight: 400
TTFWidth: 5
LineGap: 0
VLineGap: 0
Panose: 0 0 0 0 0 0 0 0 0 0
OS2TypoAscent: 749
OS2TypoAOffset: 0
OS2TypoDescent: -16
OS2TypoDOffset: 0
OS2TypoLinegap: 0
OS2WinAscent: 934
OS2WinAOffset: 0
OS2WinDescent: 233
OS2WinDOffset: 0
HheadAscent: 749
HheadAOffset: 0
HheadDescent: -16
HheadDOffset: 0
OS2SubXSize: 650
OS2SubYSize: 699
OS2SubXOff: 0
OS2SubYOff: 140
OS2SupXSize: 650
OS2SupYSize: 699
OS2SupXOff: 0
OS2SupYOff: 479
OS2StrikeYSize: 49
OS2StrikeYPos: 258
OS2CapHeight: 700
OS2XHeight: 507
OS2Vendor: 'XXXX'
OS2CodePages: 00000003.00000000
OS2UnicodeRanges: 80000027.00000008.00000000.00000000
Lookup: 258 0 0 "'kern' Horizontal Kerning in Latin lookup 0" { "'kern' Horizontal Kerning in Latin lookup 0 per glyph data 0"  "'kern' Horizontal Kerning in Latin lookup 0 kerning class 1"  } ['kern' ('DFLT' <'dflt' > 'latn' <'dflt' > ) ]
MarkAttachClasses: 1
DEI: 91125
KernClass2: 28 21 "'kern' Horizontal Kerning in Latin lookup 0 kerning class 1"
 21 parenright zero seven
 8 one four
 3 B R
 1 D
 1 F
 1 G
 3 H I
 1 K
 3 J O
 1 T
 26 A M N V Agrave Acircumflex
 1 Z
 1 b
 1 c
 1 e
 1 f
 1 h
 1 j
 1 l
 9 g m n u v
 5 o p w
 1 q
 1 s
 1 x
 1 y
 1 z
 13 Aacute Atilde
 10 parenright
 5 slash
 3 two
 5 seven
 8 question
 3 B E
 1 D
 5 F P R
 1 H
 1 T
 1 Z
 9 backslash
 12 bracketright
 5 c e r
 7 m n u w
 3 g o
 3 q y
 1 t
 9 braceleft
 10 braceright

StartChar: .notdef
Encoding: 65536 -1 0
Width: 527
GlyphClass: 1
Flags: W
HStem: -12.7279 46.4558<99.3729 428.627> 667.272 45.4558<98.3482 428.611>
VStem: 37.2721 46.4558<91.5678 607.574> 444.272 45.4558<89.6139 609.527>
LayerCount: 2
Fore
SplineSet
50 712.727922061 m 1
 477 712.727922061 l 1
 489.727922061 700 l 1
 489.727922061 8.06646416329e-17 l 1
 477 -12.7279220614 l 1
 50 -12.7279220614 l 1
 37.2720779387 2.74519990074e-15 l 1
 37.2720779387 700 l 1
 50 712.727922061 l 1
263.034307067 392.201767746 m 1
 428.61061029 667.272077939 l 1
 98.3481990237 667.272077939 l 1
 263.034307067 392.201767746 l 1
83.7279220613 607.573593129 m 1
 83.7279220613 91.5678282274 l 1
 238.272077939 350 l 1
 83.7279220613 607.573593129 l 1
99.3729401827 33.7279220613 m 1
 428.627059817 33.7279220613 l 1
 264 307.809729758 l 1
 99.3729401827 33.7279220613 l 1
444.272077939 89.6139269015 m 1
 444.272077939 609.526713121 l 1
 288.727922061 350 l 1
 444.272077939 89.6139269015 l 1
EndSplineSet
EndChar

StartChar: exclam
Encoding: 33 33 5
Width: 123
GlyphClass: 1
Flags: W
VStem: 11.3141 109.11<38.4072 87.0107 215.153 689.761>
LayerCount: 2
Fore
SplineSet
120.756242373 689.760742188 m 1
 120.424211123 215.153320312 l 1
 107.696289062 202.425398251 l 1
 24.0419921875 154.111921689 l 1
 11.3140701262 166.83984375 l 1
 11.6050857512 689.760742188 l 1
 24.3330078125 702.488664249 l 1
 108.028320312 702.488664249 l 1
 120.756242373 689.760742188 l 1
11.2730545012 -10.072265625 m 1
 11.4390701262 87.0107421875 l 1
 24.1669921875 99.7386642488 l 1
 107.862304688 148.052140811 l 1
 120.590226749 135.32421875 l 1
 120.424211123 38.4072265625 l 1
 107.696289062 25.6793045012 l 1
 24.0009765625 -22.8001876863 l 1
 11.2730545012 -10.072265625 l 1
EndSplineSet
EndChar

StartChar: numbersign
Encoding: 35 35 6
Width: 611
GlyphClass: 1
Flags: W
HStem: -12.7279 21G<15.3268 124.395 259.553 368.621> 180.649 100.296<15 76.8513 220.074 321.077 464.301 594.05> 419.595 100.296<15 158.219 301.443 402.444 545.668 594.049> 692.562 20G<253.65 362.718 497.877 606.945>
LayerCount: 2
Fore
SplineSet
301.442964846 519.891007999 m 1
 436.601378536 519.891007999 l 1
 497.876570127 699.833984375 l 1
 510.604492188 712.561906436 l 1
 594.216796875 712.561906436 l 1
 606.944718936 699.833984375 l 1
 545.667703245 519.891007999 l 1
 594.048828125 519.891007999 l 1
 606.776750186 507.163085938 l 1
 606.776750186 432.323242188 l 1
 594.048828125 419.595320127 l 1
 511.513078168 419.595320127 l 1
 464.301164391 280.944718936 l 1
 594.049804688 280.944718936 l 1
 606.777726749 268.216796875 l 1
 606.777726749 193.376953125 l 1
 594.049804688 180.649031064 l 1
 430.145126144 180.649031064 l 1
 368.621476749 8.06646416329e-17 l 1
 355.893554688 -12.7279220614 l 1
 272.28125 -12.7279220614 l 1
 259.553327939 2.74519990074e-15 l 1
 321.076977334 180.649031064 l 1
 185.918563644 180.649031064 l 1
 124.394914249 8.06646416329e-17 l 1
 111.666992188 -12.7279220614 l 1
 28.0546875 -12.7279220614 l 1
 15.3267654387 2.74519990074e-15 l 1
 76.8513271196 180.649031064 l 1
 15 180.649031064 l 1
 2.27207793864 193.376953125 l 1
 2.27207793864 268.216796875 l 1
 15 280.944718936 l 1
 111.007429645 280.944718936 l 1
 158.219343421 419.595320127 l 1
 15 419.595320127 l 1
 2.27207793864 432.323242188 l 1
 2.27207793864 507.163085938 l 1
 15 519.891007999 l 1
 192.374816036 519.891007999 l 1
 253.650007627 699.833984375 l 1
 266.377929688 712.561906436 l 1
 349.990234375 712.561906436 l 1
 362.718156436 699.833984375 l 1
 301.442964846 519.891007999 l 1
267.285539105 419.595320127 m 1
 220.073625329 280.944718936 l 1
 355.232039019 280.944718936 l 1
 402.443952796 419.595320127 l 1
 267.285539105 419.595320127 l 1
EndSplineSet
EndChar

StartChar: dollar
Encoding: 36 36 7
Width: 291
GlyphClass: 1
Flags: W
HStem: -12.7289 21G<123.014 169.259>
VStem: 3.2711 112.353<515.589 547.534 549.322 748.937> 123.015 46.2449<-0.000976562 86.8492 150.377 359.211 511.304 747.314 811.35 870.51> 175.818 112.353<149.263 345.218 347.381 348.878 349.086 355.412>
LayerCount: 2
Fore
SplineSet
169.259172061 359.211167127 m 1
 169.259172061 123.526588325 l 1
 175.817976377 119.710505797 l 1
 175.817976377 355.412090314 l 1
 169.259172061 359.211167127 l 1
123.015242001 511.304241654 m 1
 123.015242001 774.205111191 l 1
 115.624406436 778.499200937 l 1
 115.624406436 515.589102469 l 1
 123.015242001 511.304241654 l 1
169.259172061 86.8492263762 m 1
 169.259172061 -0.0009765625 l 1
 156.53125 -12.7288986239 l 1
 135.7421875 -12.7288986239 l 1
 123.014265439 -0.000976562499997 l 1
 123.014265439 86.8492263762 l 1
 102.646484375 86.8492263762 l 1
 16.20703125 136.742781064 l 1
 3.47910918864 149.470703125 l 1
 16.20703125 162.198625186 l 1
 102.646484375 162.198625186 l 1
 123.014265439 150.377018414 l 1
 123.014265439 386.021309398 l 1
 16.9970703125 447.493757627 l 1
 4.26914825114 460.221679688 l 1
 4.26914825114 547.534179688 l 1
 3.27110137614 549.322265625 l 1
 3.27110137614 748.936523438 l 1
 15.9990234375 761.664445499 l 1
 102.896484375 811.349992373 l 1
 123.015242001 811.349992373 l 1
 123.015242001 870.509765625 l 1
 135.743164062 883.237687686 l 1
 156.532226562 883.237687686 l 1
 169.260148623 870.509765625 l 1
 169.260148623 811.349992373 l 1
 188.796875 811.349992373 l 1
 275.236328125 761.415422061 l 1
 287.964250186 748.6875 l 1
 275.236328125 735.959577939 l 1
 188.796875 735.959577939 l 1
 169.260148623 747.314165543 l 1
 169.260148623 484.485906197 l 1
 275.236328125 423.016007999 l 1
 287.964250186 410.288085938 l 1
 287.964250186 349.085937501 l 1
 288.172257999 348.877929688 l 1
 288.172257999 347.380859375 l 1
 288.962297061 346.008789062 l 1
 288.171281436 345.217773437 l 1
 288.171281436 149.262695312 l 1
 275.443359375 136.534773251 l 1
 188.545898438 86.8492263762 l 1
 169.259172061 86.8492263762 l 1
EndSplineSet
EndChar

StartChar: percent
Encoding: 37 37 8
Width: 754
GlyphClass: 1
Flags: W
HStem: -12.7279 21G<205.004 314.032> 692.562 20G<64.5312 183.056 183.056 278.857 443.327 552.354>
VStem: 2.27305 109.151<358.221 645.854> 169.706 109.151<391.847 679.507> 475.134 109.151<22.0728 309.719> 642.567 109.151<55.7277 343.355>
LayerCount: 2
Fore
SplineSet
475.134382627 2.1611328125 m 1
 475.134382627 315.365234375 l 1
 487.862304688 328.093156436 l 1
 488.319335938 328.093156436 l 1
 572.014648438 376.447648623 l 1
 655.751953125 376.447648623 l 1
 655.917062195 376.282539553 l 1
 738.990234375 376.447648623 l 1
 751.718156436 363.719726562 l 1
 751.718156436 50.349609375 l 1
 738.990234375 37.6216873137 l 1
 655.294921875 -10.7328048739 l 1
 571.557617188 -10.7328048739 l 1
 487.862304688 -10.5667892489 l 1
 475.134382627 2.1611328125 l 1
456.0546875 712.561906436 m 1
 539.625976562 712.561906436 l 1
 552.353898623 699.833984375 l 1
 314.031632999 8.06646416329e-17 l 1
 301.303710938 -12.7279220614 l 1
 217.732421875 -12.7279220614 l 1
 205.004499814 2.74519990074e-15 l 1
 443.326765439 699.833984375 l 1
 456.0546875 712.561906436 l 1
278.856828311 699.833984375 m 1
 278.856828311 386.462890625 l 1
 266.12890625 373.734968564 l 1
 182.43359375 325.421492001 l 1
 15.0009765625 325.547468564 l 1
 2.27305450114 338.275390625 l 1
 2.27305450114 651.520507812 l 1
 15.0009765625 664.248429873 l 1
 15.4580078125 664.248429873 l 1
 99.1953125 712.561906436 l 1
 182.890625 712.561906436 l 1
 183.055734071 712.396797365 l 1
 266.12890625 712.561906436 l 1
 278.856828311 699.833984375 l 1
169.705671689 679.506701245 m 1
 111.424211124 645.853800538 l 1
 111.424211124 358.220899025 l 1
 169.705671689 391.847249784 l 1
 169.705671689 679.506701245 l 1
642.566999814 343.355133556 m 1
 584.285539249 309.71920156 l 1
 584.285539249 22.0728364531 l 1
 642.566999814 55.7277342321 l 1
 642.566999814 343.355133556 l 1
EndSplineSet
EndChar

StartChar: quotesingle
Encoding: 39 39 9
AltUni2: 002019.ffffffff.0 002018.ffffffff.0 002019.ffffffff.0 002018.ffffffff.0
Width: 117
GlyphClass: 1
Flags: W
HStem: 214.369 252.678
VStem: 4.27208 108.694<275.16 454.318>
LayerCount: 2
Fore
SplineSet
17.125 467.046281436 m 1
 100.404296875 467.046281436 l 1
 113.132218936 454.318359375 l 1
 112.966203311 275.16015625 l 1
 100.23828125 262.432234189 l 1
 17 214.368757627 l 1
 4.27207793864 227.096679688 l 1
 4.39707793864 454.318359375 l 1
 17.125 467.046281436 l 1
EndSplineSet
EndChar

StartChar: parenleft
Encoding: 40 40 10
Width: 291
GlyphClass: 1
Flags: W
HStem: -12.7279 21G<110.361 273.025>
VStem: 16.2721 140.751<72.3531 861.645>
LayerCount: 2
Fore
SplineSet
157.022843936 72.353100183 m 1
 260.296875 12.7279220614 l 1
 273.024797061 8.06646416329e-17 l 1
 260.296875 -12.7279220614 l 1
 145.001953125 -12.7279220614 l 1
 29.70703125 53.8375076262 l 1
 29 53.8375076262 l 1
 16.2720779387 66.5654296875 l 1
 16.2720779387 867.432617188 l 1
 29 880.160539249 l 1
 29.70703125 880.160539249 l 1
 145.001953125 946.725968936 l 1
 260.296875 946.725968936 l 1
 273.024797061 933.998046875 l 1
 260.296875 921.270124814 l 1
 157.022843936 861.644946693 l 1
 157.022843936 72.353100183 l 1
EndSplineSet
EndChar

StartChar: parenright
Encoding: 41 41 11
Width: 291
GlyphClass: 1
Flags: W
HStem: -12.7279 21G<17.2711 179.935>
VStem: 133.273 140.751<72.3531 861.645>
LayerCount: 2
Fore
SplineSet
260.588867188 880.160539249 m 1
 261.295898438 880.160539249 l 1
 274.023820499 867.432617188 l 1
 274.023820499 66.5654296875 l 1
 261.295898438 53.8375076262 l 1
 260.588867188 53.8375076262 l 1
 145.293945312 -12.7279220614 l 1
 29.9990234375 -12.7279220614 l 1
 17.2711013762 2.74519990074e-15 l 1
 29.9990234375 12.7279220614 l 1
 133.273054501 72.353100183 l 1
 133.273054501 861.644946693 l 1
 29.9990234375 921.270124814 l 1
 17.2711013762 933.998046875 l 1
 29.9990234375 946.725968936 l 1
 145.293945312 946.725968936 l 1
 260.588867188 880.160539249 l 1
EndSplineSet
EndChar

StartChar: asterisk
Encoding: 42 42 12
Width: 257
GlyphClass: 1
Flags: W
VStem: 89.9176 77.0535<243.521 302.702 480.149 539.387>
LayerCount: 2
Fore
SplineSet
78.2349685637 391.453125 m 1
 2.27305450114 467.45703125 l 1
 17.8228591887 524.66796875 l 1
 30.55078125 537.395890811 l 1
 89.9687632244 477.977908837 l 1
 90.0015701267 568.865234375 l 1
 102.729492188 581.593156436 l 1
 154.202148438 552.114640811 l 1
 166.930070499 539.38671875 l 1
 166.930070499 480.149203498 l 1
 224.176757812 537.395890811 l 1
 236.904679873 524.66796875 l 1
 254.620018246 469.449698847 l 1
 176.579003543 391.45067633 l 1
 254.616593936 313.413085938 l 1
 236.904679873 258.198242188 l 1
 232.660795654 253.95435748 228.416910352 249.710473855 224.173025389 245.466589891 c 1
 166.971086123 302.702077743 l 1
 166.971086123 243.520507812 l 1
 154.243164062 230.792585751 l 1
 102.645507812 201.272077939 l 1
 89.9175857507 214 l 1
 89.9503853924 304.835174172 l 1
 30.55078125 245.469343564 l 1
 17.8228591887 258.197265625 l 1
 2.27305450114 315.408203125 l 1
 78.2349685637 391.453125 l 1
EndSplineSet
EndChar

StartChar: plus
Encoding: 43 43 13
Width: 590
GlyphClass: 1
Flags: W
HStem: -12.7279 21G<244.7 292.415> 244.969 109.276<78.0205 244.779 354.231 517.08>
VStem: 244.7 109.609<48.1055 244.881 354.331 530.363>
LayerCount: 2
Fore
SplineSet
573.008195499 341.642578125 m 1
 529.808000186 257.532226562 l 1
 517.080078125 244.804304501 l 1
 354.231014126 244.881292701 l 1
 354.308976749 48.10546875 l 1
 341.581054688 35.3775466887 l 1
 257.427734375 -12.7279220614 l 1
 244.699812314 2.74519990074e-15 l 1
 244.778720465 244.890981018 l 1
 29.998046875 244.969343564 l 1
 17.2701248137 257.697265625 l 1
 65.2925857512 341.517578125 l 1
 78.0205078125 354.245500186 l 1
 244.827068602 354.284515869 l 1
 244.866804501 578.385742188 l 1
 257.594726562 591.113664249 l 1
 341.45703125 543.091203311 l 1
 354.184953311 530.36328125 l 1
 354.2241135 354.330950413 l 1
 560.280273438 354.370500186 l 1
 573.008195499 341.642578125 l 1
EndSplineSet
EndChar

StartChar: comma
Encoding: 44 44 14
Width: 185
GlyphClass: 1
Flags: W
HStem: -138.333 128.485<57.6543 80.2305>
VStem: 0.272078 170.187
LayerCount: 2
Fore
SplineSet
57.654296875 -9.84824981368 m 1
 157.731445312 -9.84824981368 l 1
 170.459367373 -22.576171875 l 1
 92.9583908113 -125.60546875 l 1
 80.23046875 -138.333390811 l 1
 13 -138.333390811 l 1
 0.272077938641 -125.60546875 l 1
 44.9263748137 -22.576171875 l 1
 57.654296875 -9.84824981368 l 1
EndSplineSet
EndChar

StartChar: hyphen
Encoding: 45 45 15
Width: 384
GlyphClass: 1
Flags: W
HStem: -12.5619 109.276<53.0215 333.172>
LayerCount: 2
Fore
SplineSet
333.171875 -12.7279220614 m 1
 4.9990234375 -12.5619064364 l 1
 -7.72889862386 0.166015625 l 1
 40.2935623137 83.986328125 l 1
 53.021484375 96.7142501863 l 1
 376.329101562 96.8392501863 l 1
 389.057023623 84.111328125 l 1
 345.899797061 8.06646416329e-17 l 1
 333.171875 -12.7279220614 l 1
EndSplineSet
EndChar

StartChar: period
Encoding: 46 46 16
Width: 146
GlyphClass: 1
Flags: W
HStem: -12.3041 125.533<23 123.077>
VStem: 10.2721 125.533<0.423828 100.501>
LayerCount: 2
Fore
SplineSet
123.077148438 -12.3040939364 m 1
 23 -12.3040939364 l 1
 10.2720779387 0.423828125 l 1
 10.2720779387 100.500976562 l 1
 23 113.228898623 l 1
 123.077148438 113.228898623 l 1
 135.805070499 100.500976562 l 1
 135.805070499 0.423828125 l 1
 123.077148438 -12.3040939364 l 1
EndSplineSet
EndChar

StartChar: slash
Encoding: 47 47 17
Width: 382
GlyphClass: 1
Flags: W
HStem: -12.7279 21G<17.2721 126.34> 692.562 20G<255.594 364.662>
LayerCount: 2
Fore
SplineSet
113.612304688 -12.7279220614 m 1
 30 -12.7279220614 l 1
 17.2720779387 2.74519990074e-15 l 1
 255.594343564 699.833984375 l 1
 268.322265625 712.561906436 l 1
 351.934570312 712.561906436 l 1
 364.662492373 699.833984375 l 1
 126.340226749 8.06646416329e-17 l 1
 113.612304688 -12.7279220614 l 1
EndSplineSet
EndChar

StartChar: zero
Encoding: 48 48 18
Width: 318
GlyphClass: 1
Flags: W
HStem: -12.7279 21G<115.481 120.304> 692.562 20G<197.348 200.3 202.17 301.172>
VStem: 16.2721 111.937<241.381 644.186> 189.234 111.938<55.8107 458.373>
LayerCount: 2
Fore
SplineSet
16.2720779387 0.748046875 m 1
 16.2720779387 649.56640625 l 1
 29 662.294328311 l 1
 115.481445312 712.228898623 l 1
 197.347656249 712.228898623 l 1
 197.680664062 712.561906436 l 1
 200.299804688 712.228898623 l 1
 201.962890625 712.228898623 l 1
 206.205531312 707.986257936 l 1
 202.170399331 712.021389918 l 1
 288.444335938 712.228898623 l 1
 301.172257999 699.500976562 l 1
 301.172257999 50.474609375 l 1
 288.444335938 37.7466873137 l 1
 201.962890625 -12.1878829989 l 1
 120.303710938 -12.1878829989 l 1
 119.763671875 -12.7279220614 l 1
 115.481445312 -12.1878829989 l 1
 29 -11.9798751864 l 1
 16.2720779387 0.748046875 l 1
181.901813545 675.179147887 m 1
 128.209367373 644.185582561 l 1
 128.209367373 241.380734795 l 1
 181.901813545 675.179147887 l 1
189.233992001 458.372857077 m 1
 135.582617791 24.8253440121 l 1
 189.233992001 55.810732748 l 1
 189.233992001 458.372857077 l 1
EndSplineSet
EndChar

StartChar: one
Encoding: 49 49 19
Width: 300
GlyphClass: 1
Flags: W
HStem: -12.7289 21G<195.595 242.732> 692.229 20G<108.868 178.16>
VStem: 130.795 111.937<50.2666 594.214>
LayerCount: 2
Fore
SplineSet
143.522460938 712.228898623 m 1
 230.00390625 662.293351749 l 1
 242.731828311 649.565429688 l 1
 242.731828311 -0.0009765625 l 1
 230.00390625 -12.7288986239 l 1
 143.522460938 37.5386795012 l 1
 130.794538877 50.2666015625 l 1
 130.794538877 594.213744389 l 1
 57 636.838484189 l 1
 44.2720779387 649.56640625 l 1
 57 662.294328311 l 1
 143.522460938 712.228898623 l 1
EndSplineSet
EndChar

StartChar: two
Encoding: 50 50 20
Width: 301
GlyphClass: 1
Flags: W
HStem: -12.7279 21G<106.521 228.223> 692.396 20G<71.976 193.337 193.337 223.304>
VStem: 18.484 101.874<48.4004 306.52> 180.284 101.335<414.783 649>
LayerCount: 2
Fore
SplineSet
193.564453125 62.7035079988 m 1
 280.170898438 62.7035079988 l 1
 284.41359819 58.4612518979 288.656453353 54.2191512068 292.898820499 49.9765625 c 1
 280.170898438 37.2486404387 l 1
 193.564453125 -12.7279220614 l 1
 107 -12.7279220614 l 2
 106.04228629 -11.7702083511 106.04228629 -11.7702083511 31.2119140625 35.6724685637 c 1
 18.4839920012 48.400390625 l 1
 18.2722020832 331.83386023 l 1
 17.9810623137 332.125 l 1
 30.708984375 344.852922061 l 1
 180.283773673 414.782776738 l 1
 180.740677595 679.757773599 l 1
 106.606445312 636.922468564 l 1
 20 636.922468564 l 1
 7.27207793868 649.650390625 l 1
 20 662.378312686 l 1
 106.606445312 712.395890811 l 1
 193.170898438 712.395890811 l 1
 193.337402344 712.229386905 l 1
 193.502929688 712.394914249 l 1
 269 661.727922061 l 1
 281.727922061 649 l 1
 281.618547061 387.350585938 l 1
 268.890625 374.622663877 l 1
 120.448407524 306.519638243 l 1
 120.358271699 20.4508396446 l 1
 193.564453125 62.7035079988 l 1
EndSplineSet
EndChar

StartChar: three
Encoding: 51 51 21
Width: 302
GlyphClass: 1
Flags: W
HStem: -12.3969 20.6689G<64.8174 198.606 237.67 285.047> 692.52 20G<68.9471 285.503>
VStem: 0.271101 111.895<55.6408 150.094 550.07 644.52> 173.152 111.895<49.8936 418.512 525.374 677.595>
LayerCount: 2
Fore
SplineSet
173.575871072 486.546281436 m 1
 173.608992001 525.374023438 l 1
 173.608992001 677.595033265 l 1
 116.325525692 644.520381293 l 1
 116.325525692 613.037025028 116.324601749 581.553668764 116.324601749 550.0703125 c 1
 103.596679688 537.342390439 l 1
 17.1572265625 537.342390439 l 1
 4.42930450114 550.0703125 l 1
 4.42930450114 649.8984375 l 1
 17.1572265625 662.626359561 l 1
 103.596679688 712.519914249 l 1
 272.775390625 712.519914249 l 1
 285.503312686 699.791992188 l 1
 285.545304873 525.374023438 l 1
 272.817382812 512.646101377 l 1
 206.491010373 474.909263395 l 1
 272.818359375 436.611711123 l 1
 285.546281436 423.883789062 l 1
 285.047257999 8.06646416329e-17 l 1
 272.319335938 -12.7279220614 l 1
 185.879882812 37.1656326262 l 1
 173.151960751 49.8935546875 l 1
 173.602427894 418.512358417 l 1
 99.8974609375 461.090437314 l 1
 87.1695388762 473.818359375 l 1
 99.8974609375 486.546281436 l 1
 173.575871072 486.546281436 l 1
112.166398624 55.6408476154 m 1
 185.877929688 13.0589767489 l 1
 198.605851749 0.3310546875 l 1
 185.877929688 -12.3968673739 l 1
 99.4384765625 -12.3968673739 l 1
 12.9990234375 37.5377029387 l 1
 0.271101376141 50.265625 l 1
 0.271101376141 150.09375 l 1
 12.9990234375 162.821672061 l 1
 99.4384765625 162.821672061 l 1
 112.166398624 150.09375 l 1
 112.166398624 55.6408476154 l 1
EndSplineSet
EndChar

StartChar: four
Encoding: 52 52 22
Width: 315
GlyphClass: 1
Flags: W
HStem: -12.7269 21G<250.866 298.017>
VStem: -0.353899 111.678<404.238 647.53> 186.33 111.687<50.1016 337.602 359.74 647.488>
LayerCount: 2
Fore
SplineSet
199.057617188 710.025773623 m 1
 285.2890625 660.216203311 l 1
 298.016984561 647.48828125 l 1
 298.016984561 0.0009765625 l 1
 285.2890625 -12.7269454989 l 1
 199.057617188 37.3736404387 l 1
 186.329695127 50.1015625 l 1
 186.329695127 337.601773066 l 1
 184.670898438 335.942976377 l 1
 98.439453125 335.942976377 l 1
 12.3740234375 386.210554501 l 1
 -0.353898623859 398.938476562 l 1
 -0.727922061359 697.298828125 l 1
 12 710.026750186 l 1
 98.1904296875 660.258195499 l 1
 110.918351749 647.530273438 l 1
 111.324543494 404.23766579 l 1
 184.670898438 361.398820499 l 1
 186.329695127 359.74002381 l 1
 186.329695127 697.297851562 l 1
 199.057617188 710.025773623 l 1
EndSplineSet
EndChar

StartChar: five
Encoding: 53 53 23
Width: 302
GlyphClass: 1
Flags: W
HStem: -12.4369 20.751G<69.1556 203.482 242.759 290.088> 692.52 20G<6.76817 227.7>
VStem: 4.27305 112.311<55.7463 150.761 508.081 644.321> 178.026 112.062<50.1016 420.317>
LayerCount: 2
Fore
SplineSet
178.517892296 420.316801531 m 1
 104.35546875 463.252546689 l 1
 19.49609375 486.036726377 l 1
 6.76817168868 498.764648438 l 1
 6.76817168868 699.791992188 l 1
 19.49609375 712.519914249 l 1
 192.999023438 712.519914249 l 1
 279.854492188 662.460343936 l 1
 292.582414249 649.732421875 l 1
 279.854492188 637.004499814 l 1
 192.999023438 637.004499814 l 1
 149.674804688 662.033796689 l 1
 118.838411128 644.320787277 l 1
 119.063140447 508.081061306 l 1
 191.252929688 488.708390811 l 1
 277.859375 438.399797061 l 1
 290.587297061 425.671875 l 1
 290.088273623 0.0419921875 l 1
 277.360351562 -12.6859298739 l 1
 190.75390625 37.3736404387 l 1
 178.025984189 50.1015625 l 1
 178.517892296 420.316801531 l 1
116.584367373 55.7462533796 m 1
 190.75390625 13.0189376864 l 1
 203.481828311 0.291015625 l 1
 190.75390625 -12.4369064364 l 1
 103.856445312 -12.4369064364 l 1
 17.0009765625 37.6226638762 l 1
 4.27305450114 50.3505859375 l 1
 4.27305450114 150.760742188 l 1
 17.0009765625 163.488664249 l 1
 103.856445312 163.488664249 l 1
 116.584367373 150.760742188 l 1
 116.584367373 55.7462533796 l 1
EndSplineSet
EndChar

StartChar: six
Encoding: 54 54 24
Width: 312
GlyphClass: 1
Flags: W
HStem: -12.7289 21G<80.976 237.033> 692.769 20G<114.981 236.883>
VStem: 16.2721 112.02<142.336 379.919 420.021 650.396> 189.526 112.062<55.4964 245.45>
LayerCount: 2
Fore
SplineSet
288.859375 637.295515439 m 1
 202.252929688 637.295515439 l 1
 128.292375186 679.989528314 l 1
 128.292375186 420.020985276 l 1
 202.25390625 462.680070499 l 1
 288.860351562 412.703507999 l 1
 301.588273623 399.975585938 l 1
 301.588273623 49.767578125 l 1
 297.345672117 45.5248788666 293.103104857 41.282145361 288.860430066 37.0395193874 c 1
 202.212890625 -12.7288986239 l 1
 115.606445312 -12.7288986239 l 1
 29 37.2886795012 l 1
 16.2720779387 50.0166015625 l 1
 16.2720779387 650.396484375 l 1
 29 663.124406436 l 1
 114.980617292 712.144086228 l 1
 115.60546875 712.768937686 l 1
 202.252929688 712.768937686 l 1
 288.859375 662.751359561 l 1
 301.587297061 650.0234375 l 1
 288.859375 637.295515439 l 1
128.292375186 142.336456062 m 1
 183.047753316 348.290952522 l 1
 128.292375186 379.919321499 l 1
 128.292375186 142.336456062 l 1
189.525984189 245.449729652 m 1
 137.596150403 50.0653225877 l 1
 158.888671875 37.7572189363 l 1
 189.525984189 55.496398161 l 1
 189.525984189 245.449729652 l 1
EndSplineSet
EndChar

StartChar: seven
Encoding: 55 55 25
Width: 353
GlyphClass: 1
Flags: W
HStem: -12.7279 21G<224.318 271.688> 692.728 20G<115.897 336.338>
VStem: 51.2721 111.978<550.112 644.647> 224.318 112.02<49.9766 679.921>
LayerCount: 2
Fore
SplineSet
150.522460938 712.727922061 m 1
 323.610351562 712.727922061 l 1
 336.338273623 700 l 1
 336.338273623 49.9765625 l 1
 323.610351562 37.2486404387 l 1
 237.045898438 -12.7279220614 l 1
 224.317976377 2.74519990074e-15 l 1
 224.317976377 679.920819314 l 1
 163.250382999 644.647338139 l 1
 163.250382999 550.112304688 l 1
 150.522460938 537.384382627 l 1
 64 537.384382627 l 1
 51.2720779387 550.112304688 l 1
 51.2720779387 650.0234375 l 1
 64 662.751359561 l 1
 150.522460938 712.727922061 l 1
EndSplineSet
EndChar

StartChar: eight
Encoding: 56 56 26
Width: 316
GlyphClass: 1
Flags: W
HStem: -12.7289 21G<79.9224 235.771> 692.52 20G<79.9508 235.808>
VStem: 15.2721 112.062<55.3553 394.471 505.188 644.394> 188.443 111.978<55.3553 394.471 505.326 644.394>
LayerCount: 2
Fore
SplineSet
201.211914062 712.519914249 m 1
 287.735351562 662.501359561 l 1
 300.463273623 649.7734375 l 1
 300.463273623 499.594726562 l 1
 287.735351562 486.866804501 l 1
 223.257760374 449.827940945 l 1
 287.693359375 412.578507999 l 1
 300.421281436 399.850585938 l 1
 300.421281436 49.9755859375 l 1
 287.693359375 37.2476638762 l 1
 201.12890625 -12.7288986239 l 1
 114.564453125 -12.7288986239 l 1
 28 37.2476638762 l 1
 15.2720779387 49.9755859375 l 1
 15.2720779387 399.850585938 l 1
 28 412.578507999 l 1
 92.5184067877 449.827148438 l 1
 28 487.075788877 l 1
 15.2720779387 499.803710938 l 1
 15.2720779387 649.774414062 l 1
 28 662.502336123 l 1
 114.564453125 712.519914249 l 1
 201.211914062 712.519914249 l 1
127.334367373 394.470920227 m 1
 127.334367373 55.3552516486 l 1
 157.888671875 37.7152267488 l 1
 188.442976377 55.3552516486 l 1
 188.442976377 394.470920227 l 1
 157.888671875 412.110945127 l 1
 127.334367373 394.470920227 l 1
127.292375186 644.393771789 m 1
 127.292375186 505.187624478 l 1
 157.8046875 487.584367373 l 1
 188.411344985 505.325784608 l 1
 188.400984189 507.12109375 l 1
 188.400984189 644.393771789 l 1
 157.846679688 662.033796689 l 1
 127.292375186 644.393771789 l 1
EndSplineSet
EndChar

StartChar: nine
Encoding: 57 57 27
Width: 315
GlyphClass: 1
Flags: W
HStem: -12.7299 21G<77.9476 199.552> 692.52 20G<77.7735 233.825>
VStem: 13.2721 112.062<55.3578 149.969 355.334 644.302> 186.485 112.02<49.6006 279.867 320.018 644.394>
LayerCount: 2
Fore
SplineSet
199.212890625 -12.7298751864 m 2
 112.606445312 -12.7298751864 l 1
 26 37.2466873137 l 1
 13.2720779387 49.974609375 l 1
 13.2720779387 149.96875 l 1
 26 162.696672061 l 1
 112.606445312 162.696672061 l 1
 125.334367373 149.96875 l 1
 125.334367373 55.3578379774 l 1
 186.484968564 20.0706623953 l 1
 186.484968564 279.866837605 l 1
 112.606445312 237.234968564 l 1
 26 287.211531064 l 1
 13.2720779387 299.939453125 l 1
 13.2720779387 650.064453125 l 1
 26 662.792375186 l 1
 112.60546875 712.519914249 l 1
 199.211914062 712.519914249 l 1
 285.77734375 662.500382999 l 1
 298.505265811 649.772460938 l 1
 298.505265811 49.6005859375 l 1
 285.77734375 36.8726638762 l 1
 199.891373677 -12.0513921339 199.891373677 -12.0513921339 199.212890625 -12.7298751864 c 2
125.334367373 644.301513395 m 1
 125.334367373 355.334232083 l 1
 186.484968564 320.018096415 l 1
 186.484968564 644.393771789 l 1
 155.930664062 662.033796689 l 1
 125.334367373 644.301513395 l 1
EndSplineSet
EndChar

StartChar: colon
Encoding: 58 58 28
Width: 206
GlyphClass: 1
Flags: W
HStem: -8.96523 127.861<92 194.405> 396.957 127.861<92 194.405>
VStem: 79.2721 127.861<3.7627 106.168 409.685 512.09>
LayerCount: 2
Fore
SplineSet
194.405273438 396.956648251 m 1
 92 396.956648251 l 1
 79.2720779387 409.684570312 l 1
 79.2720779387 512.08984375 l 1
 92 524.817765811 l 1
 194.405273438 524.817765811 l 1
 207.133195499 512.08984375 l 1
 207.133195499 409.684570312 l 1
 194.405273438 396.956648251 l 1
79.2720779387 3.7626953125 m 1
 79.2720779387 106.16796875 l 1
 92 118.895890811 l 1
 194.405273438 118.895890811 l 1
 207.133195499 106.16796875 l 1
 207.133195499 3.7626953125 l 1
 194.405273438 -8.96522674886 l 1
 92 -8.96522674886 l 1
 79.2720779387 3.7626953125 l 1
EndSplineSet
EndChar

StartChar: semicolon
Encoding: 59 59 29
Width: 184
GlyphClass: 1
Flags: W
HStem: 396.957 127.861<70.3682 172.773>
VStem: 57.6402 127.861<5.21777 105.295 409.685 512.09>
LayerCount: 2
Fore
SplineSet
59.9683670012 5.2177734375 m 1
 59.9683670012 105.294921875 l 1
 72.6962890625 118.022843936 l 1
 172.7734375 118.022843936 l 1
 185.501359561 105.294921875 l 1
 185.501359561 5.2177734375 l 1
 108.000382999 -97.8115234375 l 1
 95.2724609375 -110.539445499 l 1
 28 -110.539445499 l 1
 15.2720779387 -97.8115234375 l 1
 59.9683670012 5.2177734375 l 1
172.7734375 396.956648251 m 1
 70.3681640625 396.956648251 l 1
 57.6402420012 409.684570312 l 1
 57.6402420012 512.08984375 l 1
 70.3681640625 524.817765811 l 1
 172.7734375 524.817765811 l 1
 185.501359561 512.08984375 l 1
 185.501359561 409.684570312 l 1
 172.7734375 396.956648251 l 1
EndSplineSet
EndChar

StartChar: less
Encoding: 60 60 30
Width: 598
GlyphClass: 1
Flags: W
HStem: -12.7279 21G<534.925 594.836>
LayerCount: 2
Fore
SplineSet
17.8700647533 311.517219925 m 0
 17.8700647533 311.630510386 17.8646342008 311.749231401 17.8541091887 311.873046875 c 2
 30.58203125 324.600968936 l 1
 32.328125 323.852922061 l 1
 582.108398438 556.936906436 l 1
 594.836320499 544.208984375 l 1
 600.948625186 460.845703125 l 1
 588.220703125 448.117781064 l 1
 158.646497631 272.085367336 l 1
 588.220703125 96.0912033113 l 1
 600.948625186 83.36328125 l 1
 594.836320499 8.06646416329e-17 l 1
 582.108398438 -12.7279220614 l 1
 32.328125 220.314070127 l 1
 30.58203125 219.607038877 l 1
 17.8541091887 232.334960938 l 2
 17.8636504687 232.455251167 17.868620077 232.570969724 17.868620077 232.681718673 c 0
 17.868620077 233.442520362 17.757747902 233.553392537 17.2720779387 234.0390625 c 2
 17.5630935637 272.083007812 l 1
 17.2720779387 310.16796875 l 2
 17.7544030171 310.650293828 17.8700647533 310.765955565 17.8700647533 311.517219925 c 0
EndSplineSet
EndChar

StartChar: equal
Encoding: 61 61 31
Width: 519
GlyphClass: 1
Flags: W
HStem: 129.397 109.276<56.0205 456.995> 336.786 109.276<65.876 466.85>
LayerCount: 2
Fore
SplineSet
522.735734561 433.458984375 m 1
 479.577531436 349.34765625 l 1
 466.849609375 336.619734189 l 1
 17.853515625 336.785749814 l 1
 5.12559356364 349.513671875 l 1
 53.1480545012 433.333984375 l 1
 65.8759765625 446.061906436 l 1
 510.0078125 446.186906436 l 1
 522.735734561 433.458984375 l 1
-4.72889862386 142.125 m 1
 43.2925857512 225.9453125 l 1
 56.0205078125 238.673234561 l 1
 500.15234375 238.798234561 l 1
 512.880265811 226.0703125 l 1
 469.723039249 142 l 1
 456.995117188 129.272077939 l 1
 7.9990234375 129.397077939 l 1
 -4.72889862386 142.125 l 1
EndSplineSet
EndChar

StartChar: greater
Encoding: 62 62 32
Width: 598
GlyphClass: 1
Flags: W
HStem: -12.7279 21G<2.38438 62.2952>
LayerCount: 2
Fore
SplineSet
579.351020073 232.687612453 m 0
 579.351020073 232.575253235 579.356324417 232.457589675 579.366593936 232.334960938 c 2
 566.638671875 219.607038877 l 1
 564.892578125 220.314070127 l 1
 15.1123046875 -12.7279220614 l 1
 2.38438262614 2.74519990074e-15 l 1
 -3.72792206136 83.36328125 l 1
 9 96.0912033113 l 1
 438.574285855 272.085400261 l 1
 9 448.118757627 l 1
 -3.72792206136 460.846679688 l 1
 2.38438262614 544.209960938 l 1
 15.1123046875 556.937882999 l 1
 564.892578125 323.853898623 l 1
 566.638671875 324.601945499 l 1
 579.366593936 311.874023438 l 2
 579.358707963 311.75406723 579.354421559 311.637710589 579.354421559 311.525640354 c 0
 579.354421559 310.722133315 579.451949613 310.624605261 579.948625186 310.127929688 c 2
 579.657609561 272.083984375 l 1
 579.948625186 234.0390625 l 2
 579.467001861 233.557439175 579.351020073 233.441457387 579.351020073 232.687612453 c 0
EndSplineSet
EndChar

StartChar: question
Encoding: 63 63 33
Width: 337
GlyphClass: 1
Flags: W
VStem: 142.42 108.652<9.49121 57.8877 196.341 369.974> 224.826 108.777<428.231 605.447>
LayerCount: 2
Fore
SplineSet
154.814453125 671.120500186 m 1x40
 154.939453125 671.245500186 l 1
 238.219726562 671.245500186 l 1
 321.5 623.182023623 l 1
 334.227922061 610.454101562 l 1
 333.521041714 609.747221215 l 1
 333.602922061 422.897460938 l 1x40
 320.875 410.169538877 l 1
 251.273265219 369.974048427 l 1
 251.071672061 196.340820312 l 1
 238.34375 183.612898251 l 1
 155.147460938 135.549421689 l 1
 142.419538877 148.27734375 l 1x80
 142.544538877 375.499023438 l 1
 155.272460938 388.226945499 l 1
 155.521484375 388.226945499 l 1
 224.825788877 428.230676481 l 1
 224.825788877 605.447453384 l 1
 217.597777582 609.619855521 l 1
 113.40234375 549.454695127 l 1
 29.998046875 597.601179501 l 1
 17.2701248137 610.329101562 l 1
 29.998046875 623.057023623 l 1
 113.485351562 671.120500186 l 1
 154.814453125 671.120500186 l 1x40
142.295515439 -38.697265625 m 1
 142.461531064 57.8876953125 l 1
 155.189453125 70.6156173738 l 1
 238.469726562 118.679093936 l 1
 251.197648623 105.951171875 l 1
 251.031632999 9.4912109375 l 1
 238.303710938 -3.23671112386 l 1
 155.0234375 -51.4251876863 l 1
 142.295515439 -38.697265625 l 1
EndSplineSet
EndChar

StartChar: at
Encoding: 64 64 34
Width: 644
GlyphClass: 1
Flags: W
HStem: 582.146 28.615<190.898 454.667>
VStem: 14.2721 109.899<-31.6002 543.635> 182.744 109.9<73.7045 250.401 377.174 469.29> 352.089 109.9<74.4935 284.704 317.265 474.965> 520.895 109.858<110.827 543.923>
LayerCount: 2
Fore
SplineSet
182.743757627 255.684570312 m 1
 182.743757627 255.684570312 182.797133512 255.737946197 182.785749814 255.80859375 c 2
 195.513671875 268.536515811 l 1
 279.958007812 317.265031436 l 1
 352.089460751 317.265031436 l 1
 352.089460751 503.328247505 l 1
 293.101945499 469.289563598 l 1
 293.101945499 377.173828125 l 1
 280.374023438 364.445906064 l 1
 195.9296875 364.445906064 l 1
 183.201765439 377.173828125 l 1
 183.201765439 474.672851562 l 1
 195.9296875 487.400773623 l 1
 280.374023438 536.129289249 l 1
 364.817382812 536.129289249 l 1
 449.26171875 487.692765811 l 1
 461.989640811 474.96484375 l 1
 461.989640811 74.4935470613 l 1
 520.895124814 74.4935470613 l 1
 520.895124814 543.922661311 l 1
 454.666992188 582.146101377 l 1
 190.8984375 582.146101377 l 1
 124.171281436 543.634650888 l 1
 124.171281436 -31.600235459 l 1
 196.38671875 -73.2720779387 l 1
 209.114640811 -86 l 1
 196.38671875 -98.7279220613 l 1
 111.942382812 -98.7279220613 l 1
 27.5400390625 -49.9994064363 l 1
 27 -49.9994064363 l 1
 14.2720779387 -37.271484375 l 1
 14.2720779387 549.3046875 l 1
 27 562.032609561 l 1
 27.5400390625 562.032609561 l 1
 111.942382812 610.761125186 l 1
 533.622070312 610.761125186 l 1
 618.025390625 562.032609561 l 1
 630.753312686 549.3046875 l 1
 630.753312686 110.827148438 l 1
 618.025390625 98.0992263769 l 1
 533.623046875 49.0377029387 l 1
 532.999023438 49.661726376 l 1
 515.066065318 38.877700292 455.355999605 4.5808546191 454.57296607 4.1233643214 c 2
 449.26171875 -1.18788299886 l 1
 364.817382812 -1.18788299886 l 1
 352.089460751 11.5400390625 l 1
 352.089460751 11.7060546875 l 1
 350.800398251 12.9951171875 l 1
 352.089460751 14.2841796875 l 1
 352.089460751 40.6516922874 l 1
 280.831054688 -0.480851748859 l 1
 280.6640625 -0.480851748859 l 1
 279.916015625 -1.22889862386 l 1
 195.471679688 -1.22889862386 l 1
 182.743757627 11.4990234375 l 1
 182.743757627 255.684570312 l 1
352.089460751 73.7044845613 m 1
 352.089460751 284.704051072 l 1
 292.643937686 250.401074239 l 1
 292.643937686 73.7044845613 l 1
 352.089460751 73.7044845613 l 1
EndSplineSet
EndChar

StartChar: A
Encoding: 65 65 35
Width: 330
GlyphClass: 1
Flags: W
HStem: -12.4214 21G<23.272 134.959 195.736 307.423>
VStem: 23.272 111.687<0.306641 286.272 354.186 677.156> 195.736 111.687<0.305664 286.272 319.079 642.079>
LayerCount: 2
Fore
SplineSet
195.735874938 286.272007751 m 1
 134.959437562 286.272007751 l 1
 134.959437562 0.306640625 l 1
 122.231445312 -12.4213516246 l 1
 36 -12.4213516246 l 1
 23.2720077504 0.306640625 l 1
 23.2720077504 697.23046875 l 1
 27.5146127888 701.473517399 31.7570623858 705.716721489 36 709.959437562 c 1
 208.463867188 709.959437562 l 1
 294.6953125 660.229945375 l 1
 307.423304749 647.501953125 l 1
 307.423304749 0.3056640625 l 1
 294.6953125 -12.4223281871 l 1
 208.463867188 -12.4223281871 l 1
 195.735874938 0.3056640625 l 1
 195.735874938 286.272007751 l 1
195.735874938 319.079069577 m 1
 195.735874938 642.079059026 l 1
 134.959437562 677.156362725 l 1
 134.959437562 354.185508673 l 1
 195.735874938 319.079069577 l 1
EndSplineSet
EndChar

StartChar: B
Encoding: 66 66 36
Width: 352
GlyphClass: 1
Flags: W
VStem: 46.272 112.456<53.4128 324.957 357.728 650.957> 220.272 111.456<18.0432 289.587 394 615.587>
LayerCount: 2
Fore
SplineSet
319 -14.7279922496 m 1
 146 -14.7279922496 l 1
 60 35.2720077504 l 1
 59 35.2720077504 l 1
 46.2720077504 48 l 1
 46.2720077504 665.672222355 l 1
 16 683.272007751 l 1
 3.27200775038 696 l 1
 16 708.727992249 l 1
 103 708.727992249 l 1
 146 683.727992249 l 1
 233 683.727992249 l 1
 319 633.727992249 l 1
 331.727992249 621 l 1
 331.727992249 394 l 1
 319 381.272007751 l 1
 255.113244088 344.871231012 l 1
 319 307.727992249 l 1
 331.727992249 295 l 1
 331.727992249 -2 l 1
 319 -14.7279922496 l 1
158.727992249 357.727992249 m 1
 220.272007751 357.727992249 l 1
 220.272007751 615.587222038 l 1
 158.727992249 650.956793462 l 1
 158.727992249 357.727992249 l 1
220.272007751 18.0432065376 m 1
 220.272007751 289.587222038 l 1
 158.727992249 324.956793462 l 1
 158.727992249 53.4127779617 l 1
 220.272007751 18.0432065376 l 1
EndSplineSet
EndChar

StartChar: C
Encoding: 67 67 37
Width: 293
GlyphClass: 1
Flags: W
HStem: -12.4214 21G<83.038 235.965> 692.827 20G<83.2457 236.168>
VStem: 21.271 109.277<48.3711 652.035>
LayerCount: 2
Fore
SplineSet
284.877929688 639.224156188 m 1
 201.556640625 639.224156188 l 1
 130.903408153 680.030320458 l 1
 130.548304749 298.41796875 l 1
 130.70183715 20.3765141483 l 1
 201.306640625 61.1401016246 l 1
 284.669921875 61.1401016246 l 1
 297.397914125 48.412109375 l 1
 284.669921875 35.6841171254 l 1
 201.306640625 -12.4213516246 l 1
 117.985351562 -12.4213516246 l 1
 33.9990234375 35.6431015004 l 1
 21.2710311879 48.37109375 l 1
 21.4800155629 652.03515625 l 1
 34.2080078125 664.763148499 l 1
 118.193359375 712.826625062 l 1
 201.556640625 712.826625062 l 1
 284.877929688 664.680140687 l 1
 297.605921937 651.952148438 l 1
 284.877929688 639.224156188 l 1
EndSplineSet
EndChar

StartChar: D
Encoding: 68 68 38
Width: 356
GlyphClass: 1
Flags: W
HStem: -11.728 21G<198.045 328.894> 692.731 20G<11.273 141.784>
VStem: 53.0171 108.943<61.9165 655.559> 219.951 108.943<61.9165 622.072>
LayerCount: 2
Fore
SplineSet
328.894007875 627.44921875 m 1
 328.894007875 1.2080078125 l 1
 328.790003969 1.10400390625 l 1
 328.894007875 1 l 1
 316.166015625 -11.7279922496 l 1
 232.678710938 -11.7279922496 l 1
 149.232421875 36.4604843129 l 1
 65.7451171875 36.4604843129 l 1
 53.0171249379 49.1884765625 l 1
 53.0171249379 670.36809161 l 1
 24.0009765625 687.274937438 l 1
 11.2729843129 700.002929688 l 1
 24.0009765625 712.730921937 l 1
 107.48828125 712.730921937 l 1
 145.989257812 690.278773499 l 1
 145.989257812 690.278773499 149.232421875 688.407679749 149.274414062 688.365687562 c 2
 232.678710938 688.365687562 l 1
 316.166015625 640.177210999 l 1
 328.894007875 627.44921875 l 1
219.950718688 622.071617313 m 1
 161.960414125 655.55931225 l 1
 161.960414125 61.9164688121 l 1
 219.950718688 61.9164688121 l 1
 219.950718688 622.071617313 l 1
EndSplineSet
EndChar

StartChar: E
Encoding: 69 69 39
Width: 276
GlyphClass: 1
Flags: W
HStem: -12.727 50.4433<181.506 225.037>
VStem: 39.4312 111.645<55.3932 334.736 409.96 652.201>
LayerCount: 2
Fore
SplineSet
151.076625062 409.960414125 m 1
 165.125 409.960414125 l 1
 251.356445312 360.191859437 l 1
 264.084437562 347.463867188 l 1
 251.356445312 334.735874938 l 1
 151.076625062 334.735874938 l 1
 151.076625062 55.393238284 l 1
 181.505859375 37.7162734996 l 1
 225.037109375 37.7162734996 l 1
 268.154296875 12.7289688121 l 1
 280.882289125 0.0009765625 l 1
 268.154296875 -12.7270156871 l 1
 147.150505871 -12.7270156871 l 1
 143.912366683 -15.9654773539 l 1
 143.912366683 -15.9654773539 129.205266739 -7.46819194339 52.1591796875 37.3325546254 c 1
 39.4311874379 50.060546875 l 1
 39.4311874379 666.599959215 l 1
 9.0009765625 684.445835875 l 1
 -3.72701568712 697.173828125 l 1
 9.0009765625 709.901820375 l 1
 181.46484375 709.901820375 l 1
 267.696289062 660.133265687 l 1
 280.424281312 647.405273438 l 1
 267.696289062 634.677281188 l 1
 181.46484375 634.677281188 l 1
 151.076625062 652.201365339 l 1
 151.076625062 409.960414125 l 1
EndSplineSet
EndChar

StartChar: F
Encoding: 70 70 40
Width: 303
GlyphClass: 1
Flags: W
HStem: 337.02 75.5156<148.658 192.184> 662.199 50.5693<148.617 178.255>
VStem: 36.5533 112.145<49.5166 337.02 412.536 662.199>
LayerCount: 2
Fore
SplineSet
180.125976562 712.768031312 m 2
 194.026865119 712.560195911 208.288607126 712.713213959 222.327148438 712.643031312 c 1
 308.849609375 662.666468812 l 1
 321.577601625 649.938476562 l 1
 308.849609375 637.210484313 l 1
 222.327148438 637.210484313 l 1
 178.254882812 662.198765563 l 1
 148.617322163 662.198765563 l 1
 148.65604515 412.535609437 l 1
 192.18359375 412.535609437 l 1
 278.873046875 362.476039125 l 1
 291.601039125 349.748046875 l 1
 278.873046875 337.020054625 l 1
 148.658276208 337.020054625 l 1
 148.698695375 49.5166015625 l 1
 135.970703125 36.7886093129 l 1
 49.28125 -13.7279922496 l 1
 36.5532577504 -1 l 1
 36.5532577504 669.566203775 l 1
 5.9990234375 687.312046813 l 1
 -6.72896881212 700.040039062 l 1
 5.9990234375 712.768031312 l 1
 180.125976562 712.768031312 l 2
EndSplineSet
EndChar

StartChar: G
Encoding: 71 71 41
Width: 333
GlyphClass: 1
Flags: W
HStem: -12.728 21G<85.9486 242.063> 692.52 20G<85.5103 241.861>
VStem: 21.273 112.062<55.3664 379.987 420.139 650.44> 194.485 112.104<55.4773 344.7 550.237 644.397>
LayerCount: 2
Fore
SplineSet
194.484898375 55.477258546 m 1
 194.484898375 344.699767671 l 1
 133.335414125 379.986825955 l 1
 133.335414125 55.3664082629 l 1
 163.84765625 37.7572891246 l 1
 194.484898375 55.477258546 l 1
133.335414125 420.139124223 m 1
 207.213867188 462.805140687 l 1
 293.861328125 412.787562562 l 1
 306.589320375 400.059570312 l 1
 306.589320375 49.7265625 l 1
 293.861328125 36.9985702504 l 1
 207.213867188 -12.7279922496 l 1
 120.607421875 -12.7279922496 l 1
 34.0009765625 37.2485702504 l 1
 21.2729843129 49.9765625 l 1
 21.2729843129 650.440429688 l 1
 34.0009765625 663.168421937 l 1
 120.608398438 712.519984437 l 1
 207.213867188 712.519984437 l 1
 293.861328125 662.502406312 l 1
 306.589320375 649.774414062 l 1
 306.173304749 649.358398436 l 1
 306.173304749 550.237304688 l 1
 293.4453125 537.509312438 l 1
 207.213867188 537.509312438 l 1
 194.485874938 550.237304688 l 1
 194.485874938 644.397068777 l 1
 133.335414125 679.713352974 l 1
 133.335414125 420.139124223 l 1
EndSplineSet
EndChar

StartChar: H
Encoding: 72 72 42
Width: 349
GlyphClass: 1
Flags: W
HStem: -13.5014 22.041G<39.5122 86.9579 225.785 325.203> 692.414 20G<277.937 325.411>
VStem: 39.7202 112.145<49.2861 285.151 353.277 644.224> 213.057 112.145<0.516602 285.151 317.954 649.667>
LayerCount: 2
Fore
SplineSet
213.057164001 317.954387834 m 1
 213.057164001 649.666992188 l 1
 225.78515625 662.394984437 l 1
 312.682617188 712.413539125 l 1
 325.410609437 699.685546875 l 1
 325.202601625 649.66796875 l 1
 325.202601625 0.267578125 l 1
 312.474609375 -12.4604141246 l 1
 225.78515625 -12.2113906871 l 1
 213.057164001 0.5166015625 l 1
 213.057164001 285.150914001 l 1
 151.865687562 285.150914001 l 1
 151.865687562 49.2861328125 l 1
 139.137695312 36.5581405629 l 1
 52.240234375 -13.5014297496 l 1
 39.5122421254 -0.7734375 l 1
 39.7202499379 49.2861328125 l 1
 39.7202499379 644.224311029 l 1
 9 662.009312438 l 1
 -3.72799224962 674.737304688 l 1
 9 687.465296937 l 1
 95.7724609375 687.465296937 l 1
 139.137695312 662.311000062 l 1
 151.865687562 649.583007812 l 1
 151.865687562 353.276987291 l 1
 213.057164001 317.954387834 l 1
EndSplineSet
EndChar

StartChar: I
Encoding: 73 73 43
Width: 170
GlyphClass: 1
Flags: W
HStem: -12.727 21G<22.272 135.29> 692.521 20G<87.5918 135.041>
VStem: 22.605 112.685<0.000976562 649.691>
LayerCount: 2
Fore
SplineSet
22.2720077504 0.000976562500001 m 1
 22.319392464 5.22919187051 22.3245290372 37.3173039042 22.6050155629 50.2265625 c 2
 22.6050155629 649.69140625 l 1
 35.3330078125 662.419398499 l 1
 122.313476562 712.520960999 l 1
 135.041468812 699.79296875 l 1
 134.833460999 649.692382812 l 1
 135.290492249 0.0009765625 l 1
 122.5625 -12.7270156871 l 1
 35 -12.7270156871 l 1
 22.2720077504 0.000976562500001 l 1
EndSplineSet
EndChar

StartChar: J
Encoding: 74 74 44
Width: 326
GlyphClass: 1
Flags: W
HStem: -12.728 21G<82.6573 204.064> 692.52 20G<143.378 277.53>
VStem: 18.272 111.771<55.1927 225.101> 191.11 111.772<55.3325 667.071>
LayerCount: 2
Fore
SplineSet
242.421875 712.519984437 m 1
 290.154296875 685.328578187 l 1
 302.882289125 672.600585938 l 1
 302.882289125 49.8095703125 l 1
 290.154296875 37.0815780629 l 1
 268.775298105 24.9722333644 204.496525787 -12.2306477844 203.630859375 -12.7279922496 c 2
 117.315429688 -12.7279922496 l 1
 31 37.0815780629 l 1
 18.2720077504 49.8095703125 l 1
 18.2720077504 225.100585938 l 1
 31 237.828578187 l 1
 117.315429688 237.828578187 l 1
 130.043421937 225.100585938 l 1
 130.043421937 55.1926930745 l 1
 160.47265625 37.6322891246 l 1
 191.109898375 55.3325296615 l 1
 191.109898375 667.071234396 l 1
 156.106445312 687.063999938 l 1
 143.378453063 699.791992188 l 1
 156.106445312 712.519984437 l 1
 242.421875 712.519984437 l 1
EndSplineSet
EndChar

StartChar: K
Encoding: 75 75 45
Width: 384
GlyphClass: 1
Flags: W
HStem: -12.5405 21G<34.999 134.333> 692.983 19.9102G<24.1607 123.495 198.416 332.392>
VStem: 24.1607 111.199<0.420898 380.189 411.871 700.021> 198.415 112.062<54.3567 343.748 448.454 637.46>
LayerCount: 2
Fore
SplineSet
310.477992249 637.460484313 m 1
 310.477992249 448.454101562 l 1
 297.75 435.726109313 l 1
 233.353719121 399.061503938 l 1
 297.749023438 361.852992249 l 1
 310.477015687 349.125 l 1
 310.477015687 54.3566745255 l 1
 384.313476562 11.7279922496 l 1
 397.041468812 -1 l 1
 384.313476562 -13.7279922496 l 1
 297.749023438 -13.7279922496 l 1
 211.142578125 36.2485702504 l 1
 198.414585875 48.9765625 l 1
 198.456324292 343.747823065 l 1
 135.359365298 380.188594271 l 1
 134.333460999 0.1875 l 1
 121.60546875 -12.5404922496 l 1
 34.9990234375 -12.3070938121 l 1
 22.2710311879 0.4208984375 l 1
 24.1606796254 700.254882812 l 1
 36.888671875 712.982875062 l 1
 123.495117188 712.749476625 l 1
 136.223109437 700.021484375 l 1
 135.444533869 411.870570375 l 1
 198.426051799 411.870570375 l 1
 198.457554625 448.454101562 l 1
 198.415562438 700.165039062 l 1
 211.143554688 712.893031312 l 1
 297.75 712.893031312 l 1
 384.314453125 662.916468812 l 1
 397.042445375 650.188476562 l 1
 384.314453125 637.460484313 l 1
 310.477992249 637.460484313 l 1
EndSplineSet
EndChar

StartChar: L
Encoding: 76 76 46
Width: 316
GlyphClass: 1
Flags: W
HStem: -11.727 21G<172.004 250.07> 693.646 20G<31.4244 165.017>
VStem: 74.7066 112.02<97.1693 670.374>
LayerCount: 2
Fore
SplineSet
74.7065780629 63.8715469371 m 1
 74.7065780629 670.373818936 l 1
 44.15234375 688.189976501 l 1
 31.4243515004 700.91796875 l 1
 44.15234375 713.645960999 l 1
 130.716796875 713.645960999 l 1
 173.999023438 688.408656312 l 1
 186.727015687 675.680664062 l 1
 186.727015687 97.1692536491 l 1
 215.452148438 113.764125062 l 1
 302.142578125 63.7055313121 l 1
 314.870570375 50.9775390625 l 1
 302.142578125 38.2495468129 l 1
 215.328125 -11.7270156871 l 1
 172.294921875 -11.7270156871 l 1
 172.00390625 -11.5610000621 l 1
 87.5595703125 -11.5610000621 l 1
 18 38.4155624379 l 1
 5.27200775038 51.1435546875 l 1
 18 63.8715469371 l 1
 74.7065780629 63.8715469371 l 1
EndSplineSet
EndChar

StartChar: M
Encoding: 77 77 47
Width: 541
GlyphClass: 1
Flags: W
HStem: -12.686 20.958G<23.479 130.048 211.66 318.229 398.8 505.369> 693.061 20G<23.271 70.6278 96.2511 258.812 283.419 445.963>
VStem: 23.479 119.297<0.208008 640.739> 211.66 119.297<0.208008 640.821> 398.8 119.297<0.208008 646.157>
LayerCount: 2
Fore
SplineSet
83.439453125 685.661585999 m 1
 130.879882812 713.061000062 l 1
 224.1796875 713.061000062 l 1
 271.12109375 685.952601625 l 1
 318.020507812 713.061000062 l 1
 411.3203125 713.061000062 l 1
 505.161132812 658.885218812 l 1
 517.889125062 646.157226562 l 1
 518.097132875 0.2080078125 l 1
 505.369140625 -12.5199844371 l 1
 411.528320312 -12.7279922496 l 1
 398.800328063 9.15066633578e-16 l 1
 398.59821873 680.217820112 l 1
 330.750049888 640.820849138 l 1
 330.956507875 0.2080078125 l 1
 318.228515625 -12.5199844371 l 1
 224.387695312 -12.7279922496 l 1
 211.659703063 9.15066633578e-16 l 1
 211.457585519 680.29960779 l 1
 142.569394613 640.739045395 l 1
 142.775843812 0.2080078125 l 1
 130.047851562 -12.5199844371 l 1
 36.20703125 -12.6860000621 l 1
 23.4790390004 0.0419921875 l 1
 23.2710311879 700.333007812 l 1
 35.9990234375 713.061000062 l 1
 83.439453125 685.661585999 l 1
EndSplineSet
EndChar

StartChar: N
Encoding: 78 78 48
Width: 334
GlyphClass: 1
Flags: W
VStem: 23.355 112.602<-1.79297 642.654> 198.147 112.602<-1.79297 648.106>
LayerCount: 2
Fore
SplineSet
310.666468812 648.106445312 m 1
 310.749476625 -1.79296875 l 1
 298.021484375 -14.5209609996 l 1
 210.875 -14.7289688121 l 1
 198.147007751 -2.0009765625 l 1
 198.066741022 678.37656478 l 1
 135.874708545 642.654364649 l 1
 135.957484437 -1.79296875 l 1
 123.229492188 -14.5209609996 l 1
 36.0830078125 -14.6869766246 l 1
 23.3550155629 -1.958984375 l 1
 23.2720077504 698.415039062 l 1
 36 711.143031312 l 1
 80.4052734375 685.531703187 l 1
 124.14453125 711.143031312 l 1
 210.791992188 711.143031312 l 1
 297.938476562 660.834437562 l 1
 310.666468812 648.106445312 l 1
EndSplineSet
EndChar

StartChar: O
Encoding: 79 79 49
Width: 330
GlyphClass: 1
Flags: W
HStem: -12.4624 21G<35 242.629> 692.163 20G<86.8681 208.211 208.211 307.254>
VStem: 22.272 111.978<20.3487 644.121> 195.276 111.978<55.6151 679.357>
LayerCount: 2
Fore
SplineSet
208.210935152 711.954557097 m 1
 294.526367188 712.162562562 l 1
 307.254359437 699.434570312 l 1
 307.254359437 50.2421875 l 1
 294.526367188 37.5141952504 l 1
 208.00390625 -12.4623672496 l 1
 121.522460938 -12.4623672496 l 1
 35 -12.2133438121 l 1
 22.2720077504 0.5146484375 l 1
 22.2720077504 649.499023438 l 1
 35 662.227015687 l 1
 121.522460938 712.161585999 l 1
 208.00390625 712.161585999 l 1
 208.210935152 711.954557097 l 1
134.250453187 20.348739105 m 1
 195.275914001 55.6150578942 l 1
 195.275914001 679.356531683 l 1
 134.250453187 644.121077567 l 1
 134.250453187 20.348739105 l 1
EndSplineSet
EndChar

StartChar: P
Encoding: 80 80 50
Width: 346
GlyphClass: 1
Flags: W
HStem: -12.727 21G<36.7202 148.824> 692.521 20G<-6.72799 127.218>
VStem: 36.7202 112.103<0.000976563 330.088 362.77 654.986> 210.223 112.105<362.77 619.536>
LayerCount: 2
Fore
SplineSet
6 712.520960999 m 1
 92.771484375 712.520960999 l 1
 135.991210938 687.427210999 l 1
 136.262695312 687.698695375 l 1
 222.91015625 687.698695375 l 1
 309.557617188 637.639125062 l 1
 322.285609437 624.911132812 l 1
 322.327601625 300.024414062 l 1
 309.599609375 287.296421813 l 1
 222.952148438 287.296421813 l 1
 148.823695375 330.087563673 l 1
 148.823695375 0.0009765625 l 1
 136.095703125 -12.7270156871 l 1
 49.4482421875 -12.7270156871 l 1
 36.7202499379 0.000976562500001 l 1
 36.7202499379 669.279975091 l 1
 6 687.064976501 l 1
 -6.72799224962 699.79296875 l 1
 6 712.520960999 l 1
148.823695375 362.769984437 m 1
 210.222533237 362.769984437 l 1
 210.183413536 619.536437655 l 1
 148.823695375 654.985935766 l 1
 148.823695375 362.769984437 l 1
EndSplineSet
EndChar

StartChar: Q
Encoding: 81 81 51
Width: 334
GlyphClass: 1
Flags: W
HStem: 692.649 20G<88.0027 210.498 210.498 310.665>
VStem: 22.272 113.101<56.5667 643.917> 197.563 113.101<-161.399 -12.1411 20.6628 679.84>
LayerCount: 2
Fore
SplineSet
197.563023375 -12.1410781871 m 1
 122.645507812 -12.1410781871 l 1
 35 -11.8920547496 l 1
 22.2720077504 0.8359375 l 1
 22.2720077504 649.321289062 l 1
 35 662.049281312 l 1
 122.645507812 712.648890687 l 1
 210.291015625 712.648890687 l 1
 210.498044557 712.441861755 l 1
 297.936523438 712.649867249 l 1
 310.664515687 699.921875 l 1
 310.664515687 -211.999023438 l 1
 297.936523438 -224.727015687 l 1
 210.291015625 -174.127406312 l 1
 197.563023375 -161.399414062 l 1
 197.563023375 -12.1410781871 l 1
197.563023375 20.6627505246 m 1
 197.563023375 679.839866009 l 1
 135.373500062 643.917040117 l 1
 135.373500062 56.5666714746 l 1
 197.563023375 20.6627505246 l 1
EndSplineSet
EndChar

StartChar: R
Encoding: 82 82 52
Width: 359
GlyphClass: 1
Flags: W
HStem: -12.5454 21G<54.8443 102.201 283.231 330.597> 692.828 20G<10.273 140.638>
VStem: 55.0523 108.819<48.3291 48.3711 48.5791 317.005 349.813 653.858> 221.75 108.847<49.0361 283.577 384.94 620.571>
LayerCount: 2
Fore
SplineSet
106.48828125 712.827601625 m 1
 151.14453125 686.674281312 l 1
 233.83984375 686.965296937 l 1
 317.203125 638.859828187 l 1
 329.931117249 626.131835938 l 1
 329.931117249 384.940429688 l 1
 317.203125 372.212437438 l 1
 256.612904431 337.036864514 l 1
 317.869140625 301.666468812 l 1
 330.597132875 288.938476562 l 1
 330.597132875 0.1826171875 l 1
 317.869140625 -12.5453750621 l 1
 233.258789062 36.3081405629 l 1
 220.530796813 49.0361328125 l 1
 221.750023387 283.577333953 l 1
 163.871546937 317.005249596 l 1
 163.871546937 48.3291015625 l 1
 151.143554688 35.6011093129 l 1
 150.935546875 35.6011093129 l 1
 67.572265625 -12.5453750621 l 1
 54.8442733754 0.1826171875 l 1
 54.8442733754 48.37109375 l 1
 55.0522811879 48.5791015625 l 1
 55.0522811879 668.653103285 l 1
 23.0009765625 687.371617125 l 1
 10.2729843129 700.099609375 l 1
 23.0009765625 712.827601625 l 1
 106.48828125 712.827601625 l 1
163.871546937 349.812953187 m 1
 221.444859313 349.812953187 l 1
 221.444859313 620.570695283 l 1
 163.871546937 653.858085843 l 1
 163.871546937 349.812953187 l 1
EndSplineSet
EndChar

StartChar: S
Encoding: 83 83 53
Width: 339
GlyphClass: 1
Flags: W
HStem: -12.4633 21G<89.1053 244.709> 692.828 20G<88.9977 244.617>
VStem: 24.272 112.436<416.964 650.372> 197.027 112.436<50.0332 256.541>
LayerCount: 2
Fore
SplineSet
37.2080078125 62.9692031871 m 1
 123.73046875 62.9692031871 l 1
 197.026890563 20.3871207515 l 1
 197.026890563 256.540695683 l 1
 37 349.553257751 l 1
 24.2720077504 362.28125 l 1
 24.2720077504 650.372070312 l 1
 37 663.100062562 l 1
 123.98046875 712.827601625 l 1
 209.962890625 712.827601625 l 1
 296.485351562 662.893031312 l 1
 309.213343812 650.165039062 l 1
 296.485351562 637.437046813 l 1
 209.962890625 637.437046813 l 1
 136.708460999 679.979946597 l 1
 136.708460999 416.964293141 l 1
 296.52734375 324.076625062 l 1
 309.255335999 311.348632812 l 1
 309.255335999 249.98046875 l 1
 309.463343812 50.033203125 l 1
 296.735351562 37.3052108754 l 1
 209.754882812 -12.4633438121 l 1
 123.73046875 -12.4633438121 l 1
 37.2080078125 37.5132186879 l 1
 24.4800155629 50.2412109375 l 1
 37.2080078125 62.9692031871 l 1
EndSplineSet
EndChar

StartChar: T
Encoding: 84 84 54
Width: 434
GlyphClass: 1
Flags: W
VStem: 162.319 110.773<-1 641.926>
LayerCount: 2
Fore
SplineSet
368.215820312 710.979945375 m 1
 451.206054688 663.206507875 l 1
 463.934046937 650.478515625 l 1
 451.206054688 637.750523375 l 1
 365.763671875 588.439976501 l 1
 273.092250062 641.92615465 l 1
 273.092250062 -1 l 1
 260.364257812 -13.7279922496 l 1
 175.046875 -13.7279922496 l 1
 162.318882751 -1 l 1
 162.318882751 642.643078851 l 1
 68.400390625 588.440953063 l 1
 -17 637.751499938 l 1
 -29.7279922496 650.479492188 l 1
 -17 663.207484437 l 1
 65.947265625 710.979945375 l 1
 368.215820312 710.979945375 l 1
EndSplineSet
EndChar

StartChar: U
Encoding: 85 85 55
Width: 324
GlyphClass: 1
Flags: W
HStem: -12.728 21G<23.272 154.664> 692.77 20G<23.272 132.756 191.329 300.813>
VStem: 23.272 109.484<61.2495 700.166> 191.329 109.484<61.2495 700.042>
LayerCount: 2
Fore
SplineSet
191.328648375 61.2494766246 m 1
 191.328648375 700.041992188 l 1
 204.056640625 712.769984437 l 1
 288.084960938 712.769984437 l 1
 300.812953187 700.041992188 l 1
 300.812953187 48.521484375 l 1
 288.084960938 35.7934921254 l 1
 204.056640625 35.7934921254 l 1
 120.028320312 -12.7279922496 l 1
 36 -12.7279922496 l 1
 23.2720077504 9.15066633578e-16 l 1
 23.3965194691 0.12451171875 l 1
 23.2720077504 0.2490234375 l 1
 23.2720077504 700.166015625 l 1
 36 712.894007875 l 1
 120.028320312 712.894007875 l 1
 132.756312562 700.166015625 l 1
 132.756312562 61.2494766246 l 1
 191.328648375 61.2494766246 l 1
EndSplineSet
EndChar

StartChar: V
Encoding: 86 86 56
Width: 322
GlyphClass: 1
Flags: W
VStem: 22.271 109.36<365.72 652.979> 190.083 109.354<230.654 653.062>
LayerCount: 2
Fore
SplineSet
202.848632812 714.228968812 m 1
 286.708984375 665.790492249 l 1
 299.436976625 653.0625 l 1
 299.436976625 1.9990234375 l 1
 286.708984375 -10.7289688121 l 1
 202.805664062 37.9585311879 l 1
 190.077671813 50.6865234375 l 1
 22.2710311879 365.719726562 l 1
 22.3130233754 701.416992188 l 1
 35.041015625 714.144984437 l 1
 118.903320312 665.707484437 l 1
 131.631312562 652.979492188 l 1
 131.631312562 365.719726562 l 1
 190.083139404 230.654236979 l 1
 190.120640563 701.500976562 l 1
 202.848632812 714.228968812 l 1
EndSplineSet
EndChar

StartChar: W
Encoding: 87 87 57
Width: 551
GlyphClass: 1
Flags: W
HStem: -12.686 21G<94.4057 257.002 281.494 444.139 469.71 517.097> 693.061 20G<35 141.569 222.141 328.709 410.32 516.889>
VStem: 22.48 119.291<54.2178 700.125> 209.619 119.252<59.5542 700.125> 397.799 119.298<59.639 700.125>
LayerCount: 2
Fore
SplineSet
129.048828125 -12.6860000621 m 1
 35.2080078125 41.4897811879 l 1
 22.4800155629 54.2177734375 l 1
 22.2720077504 700.125 l 1
 35 712.852992249 l 1
 128.840820312 713.061000062 l 1
 141.568812562 700.333007812 l 1
 141.770921775 20.1571798167 l 1
 209.619090701 59.5541508399 l 1
 209.412632751 700.125 l 1
 222.140625 712.852992249 l 1
 315.981445312 713.061000062 l 1
 328.709437562 700.333007812 l 1
 328.870938295 20.0735454806 l 1
 397.798769056 59.6390072598 l 1
 397.592320251 700.125 l 1
 410.3203125 712.852992249 l 1
 504.161132812 713.061000062 l 1
 516.889125062 700.333007812 l 1
 517.097132875 0.0009765625 l 1
 504.369140625 -12.7270156871 l 1
 456.887695312 14.6723983754 l 1
 409.489257812 -12.6860000621 l 1
 316.147460938 -12.6860000621 l 1
 269.248046875 14.3813827504 l 1
 222.348632812 -12.6860000621 l 1
 129.048828125 -12.6860000621 l 1
EndSplineSet
EndChar

StartChar: X
Encoding: 88 88 58
Width: 329
GlyphClass: 1
Flags: W
VStem: 22.0201 111.563<46.209 290.376 365.65 644.885> 194.941 111.604<46.084 325.319 400.638 645.758>
LayerCount: 2
Fore
SplineSet
305.673304749 345.484375 m 1
 306.545375062 -3.642578125 l 1
 293.817382812 -16.3705703746 l 1
 207.668945312 33.3559921254 l 1
 194.940953063 46.083984375 l 1
 194.126453775 325.318946946 l 1
 133.583460999 290.375963002 l 1
 133.583460999 -3.517578125 l 1
 120.85546875 -16.2455703746 l 1
 34.748046875 33.4809921254 l 1
 22.0200546254 46.208984375 l 1
 21.9370468129 295.840820312 l 1
 34.6650390625 308.568812562 l 1
 34.873046875 308.568812562 l 1
 76.7662625631 332.756382751 l 1
 34.873046875 332.756382751 l 1
 22.1450546254 345.484375 l 1
 21.2720077504 694.653320312 l 1
 34 707.381312562 l 1
 120.107421875 657.612757875 l 1
 132.835414125 644.884765625 l 1
 133.689015925 365.650157368 l 1
 194.286999196 400.637722692 l 1
 194.733921813 645.7578125 l 1
 207.461914062 658.485804749 l 1
 293.569335938 708.212367249 l 1
 306.297328187 695.484375 l 1
 305.923304749 395.252929688 l 1
 293.1953125 382.524937438 l 1
 251.089719752 358.212367249 l 1
 292.9453125 358.212367249 l 1
 305.673304749 345.484375 l 1
EndSplineSet
EndChar

StartChar: Y
Encoding: 89 89 59
Width: 313
GlyphClass: 1
Flags: W
HStem: 692.62 20G<251.285 298.626>
VStem: 12.646 112.093<405.287 651.62> 99.0855 112.02<48.9941 336.249> 185.753 112<370.024 649.874>
LayerCount: 2
Fore
SplineSet
199.334960938 662.602015687 m 1xd0
 285.8984375 712.619593812 l 1
 298.626429749 699.891601562 l 1
 297.753382875 348.9765625 l 1xd0
 285.025390625 336.248570251 l 1
 211.942203187 336.248570251 l 1
 211.105921937 48.994140625 l 1
 198.377929688 36.2661483754 l 1
 111.813476562 -13.7514297496 l 1
 99.0854843129 -1.0234375 l 1xa0
 99.9443091528 344.135739703 l 1
 25.3740234375 387.181187438 l 1
 12.6460311879 399.909179688 l 1
 12.2720077504 701.637695312 l 1
 25 714.365687562 l 1
 111.564453125 664.348109437 l 1
 124.292445375 651.620117188 l 1
 124.739388422 405.286632545 l 1
 185.753330324 370.023707883 l 1
 186.606968688 649.874023438 l 1
 199.334960938 662.602015687 l 1xd0
EndSplineSet
EndChar

StartChar: Z
Encoding: 90 90 60
Width: 355
GlyphClass: 1
Flags: W
HStem: -12.728 21G<94.6489 216.629> 692.52 20G<87.8213 247.344>
VStem: 33.6822 108.985<53.2585 284.964> 199.619 109.068<391.543 646.516>
LayerCount: 2
Fore
SplineSet
149.979492188 49.0258438121 m 2
 150.318576765 49.3004339168 150.7512337 49.4804690346 151.12890625 49.7182266246 c 2
 151.12890625 49.7182266246 151.2265625 49.8158828746 151.268554688 49.8158828746 c 2
 254.588867188 109.437953187 l 1
 338.284179688 61.1244766246 l 1
 351.012171937 48.396484375 l 1
 338.284179688 35.6684921254 l 1
 254.46484375 -12.6029922496 l 1
 216.62890625 -12.6029922496 l 1
 216.50390625 -12.7279922496 l 1
 129.274414062 -12.7279922496 l 1
 45.703125 35.5434921254 l 1
 32.9751327504 48.271484375 l 1
 33.6821640004 48.978515625 l 1
 33.5991561879 290.418945312 l 1
 46.3271484375 303.146937562 l 1
 46.53515625 303.146937562 l 1
 107.317577907 338.264739787 l 1
 88.154296875 349.537632751 l 1
 75.4263046254 362.265625 l 1
 88.154296875 374.993617249 l 1
 129.939453125 399.565882875 l 1
 171.392578125 375.242640687 l 1
 199.618687438 391.543456523 l 1
 199.618687438 646.5157852 l 1
 192.47265625 650.642124938 l 1
 168.195423799 636.949453138 88.7449954194 590.95527857 87.6962890625 590.354039001 c 1
 4.0009765625 638.667515563 l 1
 -8.72701568712 651.395507812 l 1
 4.0009765625 664.123500062 l 1
 87.8212890625 712.394984437 l 1
 213.01171875 712.519984437 l 1
 295.875976562 664.248500062 l 1
 308.603968812 651.520507812 l 1
 308.686976625 388.001953125 l 1
 309.851039125 386.837890625 l 1
 297.123046875 374.109898375 l 1
 234.70863861 338.076360117 l 1
 254.672851562 326.348109437 l 1
 267.400843812 313.620117188 l 1
 254.672851562 300.892124938 l 1
 212.346679688 276.444859313 l 1
 170.51953125 301.059117125 l 1
 142.667445375 284.963975943 l 1
 142.667445375 53.2584510316 l 1
 149.979492188 49.0258438121 l 2
EndSplineSet
EndChar

StartChar: bracketleft
Encoding: 91 91 61
Width: 289
GlyphClass: 1
Flags: W
HStem: -12.7269 108.727<158.023 209.199> 801.993 108.686<158.023 210.862>
VStem: 17.2721 140.751<95.9998 801.993>
LayerCount: 2
Fore
SplineSet
221.927140811 83.23828125 m 1
 269.949601749 0.0009765625 l 1
 257.221679688 -12.7269454989 l 1
 30 -12.7269454989 l 1
 17.2720779387 0.000976562500003 l 1
 17.2720779387 897.993164062 l 1
 30 910.721086123 l 1
 145.336898544 910.679109454 l 1
 258.884765625 910.721086123 l 1
 271.612687686 897.993164062 l 1
 223.590226749 814.754882812 l 1
 210.862304688 802.026960751 l 1
 158.022843936 801.993120075 l 1
 158.022843936 95.999831847 l 1
 209.19921875 95.9662033113 l 1
 221.927140811 83.23828125 l 1
EndSplineSet
EndChar

StartChar: backslash
Encoding: 92 92 62
Width: 382
GlyphClass: 1
Flags: W
HStem: -12.7279 21G<255.595 364.663> 692.562 20G<17.2731 126.341>
LayerCount: 2
Fore
SplineSet
351.935546875 -12.7279220614 m 1
 268.323242188 -12.7279220614 l 1
 255.595320127 2.74519990074e-15 l 1
 17.2730545012 699.833984375 l 1
 30.0009765625 712.561906436 l 1
 113.61328125 712.561906436 l 1
 126.341203311 699.833984375 l 1
 364.663468936 8.06646416329e-17 l 1
 351.935546875 -12.7279220614 l 1
EndSplineSet
EndChar

StartChar: bracketright
Encoding: 93 93 63
Width: 289
GlyphClass: 1
Flags: W
HStem: -12.7289 108.694<78.0635 130.903> 801.992 108.686<79.7266 130.903>
VStem: 130.903 140.71<95.9991 801.992>
LayerCount: 2
Fore
SplineSet
258.884765625 910.719132999 m 1
 271.612687686 897.991210938 l 1
 271.612687686 -0.0009765625 l 1
 258.884765625 -12.7288986239 l 1
 143.631835938 -12.7288986239 l 1
 139.389195251 -8.48625793674 l 1
 143.548888718 -12.6459514041 l 1
 30 -12.7288986239 l 1
 17.2720779387 -0.000976562499997 l 1
 65.3355545012 83.2373046875 l 1
 78.0634765625 95.9652267488 l 1
 130.902937314 95.9990674246 l 1
 130.902937314 801.992355653 l 1
 79.7265625 802.025984189 l 1
 66.9986404387 814.75390625 l 1
 18.9351638762 897.9921875 l 1
 31.6630859375 910.720109561 l 1
 143.589859493 910.678133116 l 1
 258.884765625 910.719132999 l 1
EndSplineSet
EndChar

StartChar: underscore
Encoding: 95 95 64
Width: 600
GlyphClass: 1
Flags: W
HStem: -12.7279 100.296<10 589.01>
LayerCount: 2
Fore
SplineSet
589.009765625 -12.7279220614 m 1
 10 -12.7279220614 l 1
 -2.72792206136 2.74519990074e-15 l 1
 -2.72792206136 74.83984375 l 1
 10 87.5677658113 l 1
 589.009765625 87.5677658113 l 1
 601.737687686 74.83984375 l 1
 601.737687686 8.06646416329e-17 l 1
 589.009765625 -12.7279220614 l 1
EndSplineSet
EndChar

StartChar: grave
Encoding: 96 96 65
Width: 311
GlyphClass: 1
Flags: W
HStem: 673.272 97.9676
VStem: 17.2721 276.667
LayerCount: 2
Fore
SplineSet
30 771.239640811 m 1
 155.60546875 771.239640811 l 1
 281.2109375 698.727922061 l 1
 293.938859561 686 l 1
 281.2109375 673.272077939 l 1
 155.60546875 673.272077939 l 1
 30 745.783796689 l 1
 17.2720779387 758.51171875 l 1
 30 771.239640811 l 1
EndSplineSet
EndChar

StartChar: a
Encoding: 97 97 66
Width: 362
GlyphClass: 1
Flags: W
HStem: -12.645 21G<14.272 111.402 181.996 288.07> 499.807 20G<76.4268 229.594>
VStem: 14.272 109.11<61.7475 236.59 362.223 453.424> 181.996 109.11<61.7475 270.453 303.022 459.1>
LayerCount: 2
Fore
SplineSet
123.382289125 61.7475234996 m 1
 181.995640563 61.7475234996 l 1
 181.995640563 270.452758356 l 1
 123.382289125 236.590280583 l 1
 123.382289125 61.7475234996 l 1
291.105921937 61.3324292878 m 1
 314.734026083 61.3324292878 338.362130229 61.3315078746 361.990234375 61.3315078746 c 1
 374.718226625 48.603515625 l 1
 361.990234375 35.8755233754 l 2
 361.155188404 35.3884669684 297.763005392 -1.04458029514 278.377929688 -12.6449844371 c 1
 194.723632812 -12.6449844371 l 1
 181.995640563 0.0830078125 l 1
 181.995640563 28.6960975415 l 1
 111.52734375 -11.9799453746 l 1
 111.40234375 -11.9799453746 l 1
 110.654296875 -12.7279922496 l 1
 27 -12.7279922496 l 1
 14.2720077504 9.15066633578e-16 l 1
 14.3140214676 242.022460934 l 1
 18.5566663892 246.265137004 22.7993326272 250.507791757 27.0419921875 254.750453187 c 1
 110.654296875 303.021937562 l 1
 181.995640563 303.021937562 l 1
 181.995640563 487.006488795 l 1
 123.797328187 453.424245455 l 1
 123.797328187 362.22265625 l 1
 111.069335938 349.494664001 l 1
 27.45703125 349.494664001 l 1
 14.7290390004 362.22265625 l 1
 14.7290390004 458.807617188 l 1
 27.45703125 471.535609437 l 1
 111.069335938 519.807093812 l 1
 194.723632812 519.807093812 l 1
 278.377929688 471.827601625 l 1
 291.105921937 459.099609375 l 1
 291.105921937 61.3324292878 l 1
EndSplineSet
EndChar

StartChar: b
Encoding: 98 98 67
Width: 317
GlyphClass: 1
Flags: W
HStem: -11.728 21G<20.273 129.216> 692.938 20G<81.6274 129.216>
VStem: 20.273 108.943<1 29.5244 62.4155 487.362 520.267 652.312> 187.914 108.943<62.4155 453.027>
LayerCount: 2
Fore
SplineSet
187.913609313 62.4154922496 m 1
 187.913609313 432.159179688 l 1
 187.8802886 453.026951721 l 1
 129.216273499 487.36209759 l 1
 129.216273499 62.4154922496 l 1
 187.913609313 62.4154922496 l 1
129.216273499 520.267054749 m 1
 199.975585938 520.267054749 l 1
 284.12890625 471.039515687 l 1
 296.856898499 458.311523438 l 1
 296.856898499 1.4990234375 l 1
 292.614619001 -2.7436997097 288.372494914 -6.98657826886 284.129882812 -11.2289688121 c 1
 199.768554688 -11.2289688121 l 1
 129.216273499 29.5244385783 l 1
 129.216273499 1 l 1
 116.48828125 -11.7279922496 l 1
 33.0009765625 -11.7279922496 l 1
 20.2729843129 1 l 1
 20.2729843129 652.3125 l 1
 33.0009765625 665.040492249 l 1
 116.48828125 712.937953187 l 1
 129.216273499 700.209960938 l 1
 129.216273499 520.267054749 l 1
EndSplineSet
EndChar

StartChar: c
Encoding: 99 99 68
Width: 297
GlyphClass: 1
Flags: W
HStem: -12.4282 21G<79.2458 231.654> 500.233 20G<79.0995 114.152>
VStem: 17.272 108.985<49.0283 458.983>
LayerCount: 2
Fore
SplineSet
280.545898438 445.923374938 m 1
 197.016601562 445.923374938 l 1
 126.257289125 486.800554884 l 1
 126.257289125 20.3810857407 l 1
 197.016601562 61.2582656871 l 1
 280.545898438 61.2582656871 l 1
 293.273890687 48.5302734375 l 1
 280.545898438 35.8022811879 l 1
 197.016601562 -12.4281875621 l 1
 113.529296875 -12.4281875621 l 1
 30 36.3003280629 l 1
 17.2720077504 49.0283203125 l 1
 17.2720077504 458.983398438 l 1
 30 471.711390687 l 1
 113.529296875 520.232875062 l 1
 114.15234375 519.609828187 l 1
 197.016601562 519.609828187 l 1
 280.545898438 471.379359437 l 1
 293.273890687 458.651367188 l 1
 280.545898438 445.923374938 l 1
EndSplineSet
EndChar

StartChar: d
Encoding: 100 100 69
Width: 368
GlyphClass: 1
Flags: W
HStem: -12.2719 20.543G<19.273 151.219 187.329 293.433> 693.601 20G<187.329 234.913>
VStem: 19.273 109.151<61.4985 452.969> 187.329 109.151<61.4985 486.987 519.433 652.851>
LayerCount: 2
Fore
SplineSet
187.328648375 519.433070375 m 1
 187.328648375 700.873046875 l 1
 200.056640625 713.601039125 l 1
 283.751953125 665.578578187 l 1
 296.479945375 652.850585938 l 1
 296.479945375 61.2904371611 l 1
 320.135718792 61.2904371611 343.791492208 61.2895156871 367.447265625 61.2895156871 c 1
 380.175257875 48.5615234375 l 1
 367.447265625 35.8335311879 l 2
 366.61140044 35.3460359916 303.114056068 -1.14461131062 283.751953125 -12.7289688121 c 1
 200.056640625 -12.7289688121 l 1
 187.328648375 -0.000976562499999 l 1
 187.328648375 28.5702321778 l 1
 116.569335938 -12.2719375621 l 1
 32.0009765625 -12.2719375621 l 1
 19.2729843129 0.4560546875 l 1
 19.3149765004 458.391601562 l 1
 32.04296875 471.119593812 l 1
 115.73828125 519.433070375 l 1
 187.328648375 519.433070375 l 1
128.424281312 61.4985000621 m 1
 187.328648375 61.4985000621 l 1
 187.328648375 486.986903975 l 1
 128.424281312 452.969384298 l 1
 128.424281312 61.4985000621 l 1
EndSplineSet
EndChar

StartChar: e
Encoding: 101 101 70
AltUni2: 0000eb.ffffffff.0 0000eb.ffffffff.0
Width: 320
GlyphClass: 1
Flags: W
HStem: -12.728 21G<79.1847 231.956> 499.892 19.875G<79.0646 114.611 114.611 233.517>
VStem: 17.315 109.545<48.1055 245.835 278.368 459.142> 186.202 109.11<278.368 453.321>
LayerCount: 2
Fore
SplineSet
295.269984437 458.725585938 m 1
 295.311976625 216.578125 l 1
 282.583984375 203.850132751 l 1
 198.9296875 203.850132751 l 1
 194.687046813 208.092773438 l 1
 198.181640625 204.598179625 l 1
 198.014648438 204.598179625 l 1
 126.613251841 245.835073834 l 1
 126.860303946 20.1096500725 l 1
 197.309570312 61.0414688121 l 1
 281.004882812 61.0414688121 l 1
 293.732875062 48.3134765625 l 1
 281.004882812 35.5854843129 l 1
 197.309570312 -12.7279922496 l 1
 114.154296875 -12.7279922496 l 1
 30.04296875 35.3774765004 l 1
 17.3149765004 48.10546875 l 1
 17.2729843129 265.639648438 l 1
 17.5220077504 459.141601562 l 1
 30.25 471.869593812 l 1
 113.904296875 519.892054749 l 1
 114.610839844 519.185511781 l 1
 115.192382812 519.767054749 l 1
 198.887695312 519.767054749 l 1
 282.541992188 471.453578187 l 1
 295.269984437 458.725585938 l 1
186.201695251 278.367640687 m 1
 186.201695251 453.320763634 l 1
 126.615764913 487.716895189 l 1
 126.434784962 278.367640687 l 1
 186.201695251 278.367640687 l 1
EndSplineSet
EndChar

StartChar: f
Encoding: 102 102 71
Width: 288
GlyphClass: 1
Flags: W
HStem: -12.3862 21G<142.611 189.829> 692.862 20G<142.253 295.326>
VStem: 80.8433 108.985<48.7793 397.86 471.586 652.194>
LayerCount: 2
Fore
SplineSet
189.828578187 397.859898375 m 1
 189.828578187 0.341796875 l 1
 177.100585938 -12.3861953746 l 1
 93.5712890625 36.0513046254 l 1
 80.8432968129 48.779296875 l 1
 80.8432968129 405.210865366 l 1
 10 446.130406188 l 1
 -2.72799224962 458.858398438 l 1
 10 471.586390687 l 1
 80.8432968129 471.586390687 l 1
 80.8432968129 652.194335938 l 1
 93.5712890625 664.922328187 l 1
 177.100585938 712.861781312 l 1
 260.670898438 712.861781312 l 1
 344.2421875 664.631312562 l 1
 356.970179749 651.903320312 l 1
 344.2421875 639.175328063 l 1
 260.670898438 639.175328063 l 1
 189.828578187 680.059824485 l 1
 189.828578187 464.235423697 l 1
 260.671875 423.315882875 l 1
 273.399867249 410.587890625 l 1
 260.671875 397.859898375 l 1
 189.828578187 397.859898375 l 1
EndSplineSet
EndChar

StartChar: g
Encoding: 103 103 72
Width: 315
GlyphClass: 1
Flags: W
HStem: -240.728 21G<81.0274 212.745> -11.8432 21G<19.523 150.532> 500.652 20G<198.769 199.143>
VStem: 19.523 109.111<61.8842 454.093> 186.248 109.154<-179.729 28.788 61.8842 459.901>
LayerCount: 2
Fore
SplineSet
19.5229843129 459.360351562 m 1
 19.5229843129 459.360351562 19.5758601925 459.413227442 19.5639999379 459.485351562 c 2
 32.2919921875 472.213343812 l 1
 115.946289062 520.526820375 l 1
 198.768554688 520.526820375 l 1
 198.893554688 520.651820375 l 1
 199.142578125 520.526820375 l 1
 199.599609375 520.526820375 l 1
 200.229492188 519.896937562 l 1
 282.546875 472.629359437 l 1
 295.274867249 459.901367188 l 1
 295.401820375 -179.728515625 l 1
 282.673828125 -192.456507875 l 1
 254.734629502 -208.561580085 226.67710972 -224.548331136 198.8125 -240.727992249 c 1
 115.657226562 -240.727992249 l 1
 32.0029296875 -192.414515687 l 1
 19.2749374379 -179.686523438 l 1
 32.0029296875 -166.958531188 l 1
 115.657226562 -166.958531188 l 1
 186.28856467 -207.995861878 l 1
 186.252518749 28.7879511456 l 1
 115.905273438 -11.8432266246 l 1
 32.2509765625 -11.8432266246 l 1
 19.5229843129 0.884765625 l 1
 19.5229843129 459.360351562 l 1
186.247810654 61.8842422496 m 1
 186.171643228 487.308833648 l 1
 128.634242249 454.093295303 l 1
 128.634242249 61.8842422496 l 1
 186.247810654 61.8842422496 l 1
EndSplineSet
EndChar

StartChar: h
Encoding: 104 104 73
Width: 370
GlyphClass: 1
Flags: W
HStem: -12.727 21G<251.064 382.047> 693.855 20G<21.1617 69.1605>
VStem: 21.1617 108.033<1.41797 489.403 520.983 654> 189.366 109.068<53.6526 454.608>
LayerCount: 2
Fore
SplineSet
298.434046937 53.6526436072 m 1
 369.319335938 12.7289688121 l 1
 382.047328187 0.0009765625 l 1
 369.319335938 -12.7270156871 l 1
 285.70703125 -12.7270156871 l 1
 202.09375 35.5444686879 l 1
 189.365757751 48.2724609375 l 1
 189.365757751 454.607823006 l 1
 129.122551319 489.403084023 l 1
 128.340296937 1.1923828125 l 1
 115.612304688 -11.5356094371 l 1
 32 -11.3100234996 l 1
 19.2720077504 1.41796875 l 1
 21.1616561879 701.126953125 l 1
 33.8896484375 713.854945375 l 1
 117 666.727992249 l 1
 129.727992249 654 l 1
 129.194235383 520.982640687 l 1
 202.09375 520.982640687 l 1
 285.706054688 472.712640687 l 1
 289.949042677 468.472084364 294.192881963 464.232379338 298.434046937 459.99 c 1
 298.434046937 53.6526436072 l 1
EndSplineSet
EndChar

StartChar: i
Encoding: 105 105 74
AltUni2: 0000ef.ffffffff.0 0000ef.ffffffff.0
Width: 156
GlyphClass: 1
Flags: W
HStem: 499.847 20G<84.4511 115.912> 517.55 21G<18.271 60.2292> 692.518 20G<84.473 115.912>
VStem: 18.355 107.998<-0.875 450.823 567.874 643.452>
LayerCount: 2
Fore
SplineSet
18.3550155629 -0.875 m 1xb0
 18.4790390004 450.823242188 l 1
 31.20703125 463.551234437 l 1
 113.79 519.847132875 l 1
 118.034546419 515.605088107 122.279969766 511.363920267 126.522640687 507.12 c 1
 126.352640687 -1 l 1
 122.109720606 -5.24395756478 117.864499762 -9.48561436585 113.62 -13.7279922496 c 1
 31.0830078125 -13.6029922496 l 1
 18.3550155629 -0.875 l 1xb0
126.522640687 699.790039062 m 1
 126.312640687 586.782226562 l 1
 122.069720606 582.538268997 117.824499762 578.296612196 113.58 574.054234313 c 1
 30.9990234375 517.550328063 l 1x70
 18.2710311879 530.278320312 l 1
 18.4790390004 643.452148438 l 1
 31.20703125 656.180140687 l 1
 113.79 712.518031312 l 1
 118.034494444 708.27564811 122.279729052 704.034005072 126.522640687 699.790039062 c 1
EndSplineSet
EndChar

StartChar: j
Encoding: 106 106 75
Width: 231
GlyphClass: 1
Flags: W
VStem: -128.729 123.574<-141.768 -57.9562> 83.445 132.224<-147.923 407.471>
LayerCount: 2
Fore
SplineSet
215.503382875 407.470703125 m 1
 215.669398499 -147.922851562 l 1
 202.94140625 -160.650843812 l 1
 96.1689453125 -221.728968812 l 1
 -9.396484375 -221.728968812 l 1
 -115.626953125 -160.401820375 l 1
 -116.000976562 -160.401820375 l 1
 -128.728968812 -147.673828125 l 1
 -128.728968812 -70.49 l 1
 -124.48658561 -66.2455055559 -120.244942572 -62.0002709483 -116.000976562 -57.7573593129 c 1
 -18.6259765625 -57.7573593129 l 1
 -14.3820189977 -62.0002793937 -10.1403621967 -66.2455002382 -5.89798431288 -70.49 c 1
 -5.15486590844 -141.767826739 l 1
 83.4450493296 -189.428845806 l 1
 83.5669296254 492.206054688 l 1
 96.294921875 504.934046937 l 1
 202.775390625 420.198695375 l 1
 215.503382875 407.470703125 l 1
EndSplineSet
EndChar

StartChar: k
Encoding: 107 107 76
Width: 369
GlyphClass: 1
Flags: W
HStem: 500.235 20G<188.078 319.37> 692.862 20G<82.283 129.672>
VStem: 20.271 109.401<-0.780273 270.391 303.24 651.696> 188.162 109.359<47.4082 236.656 340.573 446.341>
LayerCount: 2
Fore
SplineSet
129.672328187 270.390919689 m 1
 129.672328187 -1.029296875 l 1
 116.944335938 -13.7572891246 l 1
 32.9990234375 -13.5082656871 l 1
 20.2710311879 -0.7802734375 l 1
 20.2710311879 651.696289062 l 1
 32.9990234375 664.424281312 l 1
 116.944335938 712.861781312 l 1
 129.672328187 700.133789062 l 1
 129.672328187 303.239710999 l 1
 188.045226174 303.239710999 l 1
 188.077671813 340.573242188 l 1
 188.077671813 507.506835938 l 1
 200.805664062 520.234828187 l 1
 284.708984375 520.234828187 l 1
 368.654296875 471.797328187 l 1
 381.382289125 459.069335938 l 1
 368.654296875 446.341343688 l 1
 297.438596083 446.341343688 l 1
 297.478968812 340.573242188 l 1
 284.750976562 327.845249938 l 1
 221.023120529 291.564453188 l 1
 284.750976562 254.762171937 l 1
 297.478968812 242.034179688 l 1
 297.520960999 -1.0703125 l 1
 284.79296875 -13.7983047496 l 1
 200.889648438 34.6802108754 l 1
 188.161656188 47.408203125 l 1
 188.081362091 236.655586205 l 1
 129.672328187 270.390919689 l 1
EndSplineSet
EndChar

StartChar: l
Encoding: 108 108 77
Width: 162
GlyphClass: 1
Flags: W
HStem: -12.728 21G<22.272 70> 692.903 20G<22.272 69.873>
VStem: 22.272 109.456<48 652>
LayerCount: 2
Fore
SplineSet
131.727992249 652 m 1
 131.727992249 48 l 1
 119 35.2720077504 l 1
 35 -12.7279922496 l 1
 22.2720077504 9.15066633578e-16 l 1
 22.2720077504 700.174804688 l 1
 35 712.902796937 l 1
 119 664.727992249 l 1
 131.727992249 652 l 1
EndSplineSet
EndChar

StartChar: m
Encoding: 109 109 78
Width: 481
GlyphClass: 1
Flags: W
HStem: 500.608 20G<20.273 67.6583 82.4901 234.369 248.32 400.254>
VStem: 20.273 108.611<4.16699 454.44> 187.041 108.611<4.16602 454.953> 352.893 108.611<4.16602 459.856>
LayerCount: 2
Fore
SplineSet
75.0771484375 496.325648499 m 1
 117.112304688 520.607875062 l 1
 199.770507812 520.607875062 l 1
 241.345703125 496.574671937 l 1
 282.923828125 520.605921937 l 1
 365.62109375 520.605921937 l 1
 448.776367188 472.584437562 l 1
 461.504359437 459.856445312 l 1
 461.504359437 4.166015625 l 1
 448.776367188 -8.56197662462 l 1
 365.62109375 -8.72799224962 l 1
 352.893101501 4 l 1
 352.893101501 487.837549693 l 1
 295.651820375 454.952559558 l 1
 295.651820375 4.166015625 l 1
 282.923828125 -8.56197662462 l 1
 199.768554688 -8.72799224962 l 1
 187.040562438 4 l 1
 187.040562438 487.842096584 l 1
 128.884242249 454.440200166 l 1
 128.884242249 4.1669921875 l 1
 116.15625 -8.56100006212 l 1
 33.0009765625 -8.68600006212 l 1
 20.2729843129 4.0419921875 l 1
 20.2729843129 507.87890625 l 1
 33.0009765625 520.606898499 l 1
 75.0771484375 496.325648499 l 1
EndSplineSet
EndChar

StartChar: n
Encoding: 110 110 79
Width: 318
GlyphClass: 1
Flags: W
HStem: 499.847 20G<20.272 67.6614 83.5942 236.149>
VStem: 20.272 109.484<-1.79102 453.179> 188.786 109.484<-1.83203 458.598>
LayerCount: 2
Fore
SplineSet
75.658203125 495.231898499 m 1
 117.984375 519.847132875 l 1
 201.513671875 519.847132875 l 1
 285.541992188 471.325648499 l 1
 298.269984437 458.59765625 l 1
 298.269984437 -1.83203125 l 1
 285.541992188 -14.5600234996 l 1
 201.513671875 -14.7260391246 l 1
 188.785679625 -1.998046875 l 1
 188.785679625 487.081444364 l 1
 129.756312562 453.179368011 l 1
 129.756312562 -1.791015625 l 1
 117.028320312 -14.5190078746 l 1
 33 -14.7270156871 l 1
 20.2720077504 -1.9990234375 l 1
 20.2720077504 507.118164062 l 1
 33 519.846156312 l 1
 75.658203125 495.231898499 l 1
EndSplineSet
EndChar

StartChar: o
Encoding: 111 111 80
AltUni2: 0000f6.ffffffff.0 0000f6.ffffffff.0
Width: 325
GlyphClass: 1
Flags: W
HStem: -12.4692 21G<32.001 234.051> 500.233 20G<81.5359 200.056 200.056 295.857>
VStem: 19.273 109.151<20.3361 453.505> 186.706 109.151<53.991 487.14>
LayerCount: 2
Fore
SplineSet
115.696289062 -12.4692031871 m 1
 32.0009765625 -12.3031875621 l 1
 19.2729843129 0.4248046875 l 1
 19.2729843129 459.150390625 l 1
 32.0009765625 471.878382875 l 1
 32.4580078125 471.878382875 l 1
 116.153320312 520.232875062 l 1
 199.890625 520.232875062 l 1
 200.055664063 520.067835999 l 1
 283.12890625 520.191859437 l 1
 295.856898499 507.463867188 l 1
 295.856898499 48.61328125 l 1
 283.12890625 35.8852890004 l 1
 199.43359375 -12.4692031871 l 1
 115.696289062 -12.4692031871 l 1
186.705601501 487.139908485 m 1
 128.424281312 453.504692953 l 1
 128.424281312 20.3361281559 l 1
 186.705601501 53.9909500933 l 1
 186.705601501 487.139908485 l 1
EndSplineSet
EndChar

StartChar: p
Encoding: 112 112 81
Width: 323
GlyphClass: 1
Flags: W
HStem: -241.728 21G<78.3301 126.045> 500.275 20G<161.991 294.061>
VStem: 15.272 110.502<-180.229 -12.3032 20.1557 410.754> 184.785 109.234<54.23 446.422>
LayerCount: 2
Fore
SplineSet
196.59765625 520.274867249 m 1
 281.333007812 520.274867249 l 1
 294.061000062 507.546875 l 1
 294.019007875 48.8212890625 l 1
 281.291015625 36.0932968129 l 1
 197.470703125 -12.3031875621 l 1
 125.809753843 -12.3031875621 l 1
 126.045375062 -229 l 1
 113.317382812 -241.727992249 l 1
 28 -192.957484437 l 1
 15.2720077504 -180.229492188 l 1
 16.0200546254 410.75390625 l 1
 28.748046875 423.481898499 l 1
 112.569335938 471.878382875 l 1
 112.673828126 471.773890687 l 1
 196.59765625 520.274867249 l 1
184.76937607 54.2300394719 m 1
 184.784703063 57.26171875 l 1
 184.784703063 446.422398375 l 1
 125.31073241 446.422398375 l 1
 125.77442697 20.155701878 l 1
 184.76937607 54.2300394719 l 1
EndSplineSet
EndChar

StartChar: q
Encoding: 113 113 82
Width: 315
GlyphClass: 1
Flags: W
HStem: 500.604 20G<19.272 151.593>
VStem: 19.272 109.567<53.3128 446.585> 188.095 110.755<-182.062 -12.0151 20.2188 410.751>
LayerCount: 2
Fore
SplineSet
298.102992249 410.750976562 m 1
 298.850062562 -182.0625 l 1
 286.122070312 -194.790492249 l 1
 200.555664062 -243.727015687 l 1
 187.827671813 -230.999023438 l 1
 188.059508289 -12.0151016246 l 1
 116.153320312 -12.0151016246 l 1
 32.0419921875 34.9673202504 l 1
 27.7993515004 39.2099609375 l 1
 27.7993515004 39.2099609375 19.3139999379 47.6953125 19.2720077504 47.8203125 c 2
 19.2720077504 507.875976562 l 1
 32 520.603968812 l 1
 116.984375 520.603968812 l 1
 201.200195312 471.936976625 l 1
 201.3046875 472.041468812 l 1
 285.375 423.478968812 l 1
 298.102992249 410.750976562 l 1
128.839320375 446.585484313 m 1
 128.839320375 75.302734375 l 1
 128.872616583 53.3128383005 l 1
 188.094700669 20.2187975439 l 1
 188.563243862 446.585484313 l 1
 128.839320375 446.585484313 l 1
EndSplineSet
EndChar

StartChar: r
Encoding: 114 114 83
Width: 298
GlyphClass: 1
Flags: W
HStem: 500.233 20G<79.1039 126.672>
VStem: 17.271 109.464<47.4492 438.896>
LayerCount: 2
Fore
SplineSet
281.834960938 397.817906188 m 1
 197.888671875 397.817906188 l 1
 126.735251053 438.895637742 l 1
 127.212367249 -1.23828125 l 1
 114.484375 -13.9662734996 l 1
 30.5390625 34.7212265004 l 1
 17.8110702504 47.44921875 l 1
 17.2710311879 459.31640625 l 1
 29.9990234375 472.044398499 l 1
 113.944335938 520.232875062 l 1
 126.672328187 507.504882812 l 1
 126.702882041 471.753382875 l 1
 197.889648438 471.753382875 l 1
 281.834960938 423.273890687 l 1
 294.562953187 410.545898438 l 1
 281.834960938 397.817906188 l 1
EndSplineSet
EndChar

StartChar: s
Encoding: 115 115 84
Width: 295
GlyphClass: 1
Flags: W
HStem: -12.728 21G<56.4513 201.47> 499.891 20G<90.5562 235.903>
VStem: 28.8091 108.868<319.513 458.891> 154.111 109.082<48.2715 187.768>
LayerCount: 2
Fore
SplineSet
166.809570312 -12.7279922496 m 1
 83.654296875 -12.7279922496 l 1
 17.6669921875 35.7866561879 l 2
 13.1421844287 39.302840658 10.7299346754 44.9315831336 7.75735931288 50 c 1
 10.893267533 53.9148496338 13.976298902 57.8825761187 17.6669921875 61.2426406871 c 1
 83.654296875 60.9994766246 l 1
 154.110586604 20.0994171154 l 1
 154.331578063 176.330078125 l 1
 154.135045341 187.76777648 l 1
 41.537109375 252.951695251 l 1
 28.8091171254 265.6796875 l 1
 28.8091171254 458.890625 l 1
 41.537109375 471.618617249 l 1
 125.232421875 519.891078187 l 1
 208.345703125 519.891078187 l 1
 274 472.242640687 l 2
 278.273104515 468.687318077 281.083997399 463.669783836 284.242640687 459 c 1
 281.078403314 454.335810248 278.281060605 449.304725833 274 445.757359313 c 1
 208.345703125 446.121617125 l 1
 137.929791587 487.053859581 l 1
 137.676974272 319.51312648 l 1
 250.46484375 254.209437562 l 1
 254.707566897 249.967158064 258.950445456 245.725033977 263.192835999 241.482421875 c 1
 263.192835999 48.271484375 l 1
 250.46484375 35.5434921254 l 1
 166.809570312 -12.7279922496 l 1
EndSplineSet
EndChar

StartChar: t
Encoding: 116 116 85
Width: 251
GlyphClass: 1
Flags: W
HStem: -12.3862 21G<71.3843 119.082> 692.863 20G<71.5093 119.164>
VStem: 71.3843 109.567<48.4473 446.464 520.234 652.112>
LayerCount: 2
Fore
SplineSet
0.666015625 520.233851625 m 1
 71.4701958696 520.233851625 l 1
 71.5093124379 700.134765625 l 1
 84.2373046875 712.862757875 l 1
 168.099609375 664.840296937 l 1
 180.827601625 652.112304688 l 1
 180.868096 512.801046821 l 1
 251.670898438 471.919398499 l 1
 264.398890687 459.19140625 l 1
 251.670898438 446.463414001 l 1
 228.071074049 446.463414001 204.47124966 446.464335341 180.871425271 446.464335341 c 1
 180.951625062 48.447265625 l 1
 168.223632812 35.7192733754 l 1
 84.1123046875 -12.3861953746 l 1
 71.3843124379 0.341796875 l 1
 71.4660207253 453.897691363 l 1
 0.666015625 494.777867125 l 1
 -12.0619766246 507.505859375 l 1
 0.666015625 520.233851625 l 1
EndSplineSet
EndChar

StartChar: u
Encoding: 117 117 86
AltUni2: 0000fc.ffffffff.0 0000fc.ffffffff.0
Width: 363
GlyphClass: 1
Flags: W
HStem: -12.728 21G<19.939 148.456 184.939 316.701> 498.728 21G<19.939 58.6045 184.939 225.074>
VStem: 19.939 109.113<61.9723 443> 184.939 112.757<61.7679 443>
LayerCount: 2
Fore
SplineSet
197.666992188 518.727992249 m 1
 284 455.727992249 l 1
 296.727992249 443 l 1
 297.695739179 61.7279922496 l 1
 363 61.7279922496 l 1
 375.727992249 49 l 1
 363 36.2720077504 l 1
 284.771484375 -12.7279922496 l 1
 197.666992188 -12.7279922496 l 1
 184.938999938 9.15066633578e-16 l 1
 184.938999938 29.5249970286 l 1
 115.666992188 -12.7279922496 l 1
 32.6669921875 -12.7279922496 l 1
 19.9389999379 9.15066633578e-16 l 1
 19.9389999379 507 l 1
 32.6669921875 519.727992249 l 1
 115.666992188 455.727992249 l 1
 128.394984437 443 l 1
 129.051760606 61.972271296 l 1
 184.938999938 61.7679195333 l 1
 184.938999938 506 l 1
 197.666992188 518.727992249 l 1
EndSplineSet
EndChar

StartChar: v
Encoding: 118 118 87
Width: 308
GlyphClass: 1
Flags: W
HStem: -12.4282 21G<237.108 284.281> 493.664 19.917G<11.313 58.6663 176.376 223.711>
VStem: 11.271 107.988<358.075 453.205> 176.342 107.939<226.166 453.287>
LayerCount: 2
Fore
SplineSet
189.104492188 513.663539125 m 1
 271.552734375 466.015101625 l 1
 284.280726625 453.287109375 l 1
 284.280726625 0.2998046875 l 1
 271.552734375 -12.4281875621 l 1
 189.0625 35.4692733754 l 1
 176.334507751 48.197265625 l 1
 11.2710311879 358.075195312 l 1
 11.3130233754 500.852539062 l 1
 24.041015625 513.580531312 l 1
 106.53125 465.933070375 l 1
 119.259242249 453.205078125 l 1
 119.259242249 358.075195312 l 1
 176.341861707 226.1659586 l 1
 176.376499938 500.935546875 l 1
 189.104492188 513.663539125 l 1
EndSplineSet
EndChar

StartChar: w
Encoding: 119 119 88
Width: 483
GlyphClass: 1
Flags: W
HStem: -11.729 21G<20.272 67.6167 117.399 235.437 249.831 402.288> 500.682 20G<20.272 116.654 188.08 284.462 354.93 451.312>
VStem: 20.272 109.11<54.718 507.788> 188.08 109.11<54.2152 507.789> 354.93 109.11<49.3135 507.789>
LayerCount: 2
Fore
SplineSet
117.611328125 -11.7289688121 m 2
 117.187468688 -11.4852152196 86.0855593435 6.54482599185 75.2431640625 12.6772811879 c 1
 33 -11.7289688121 l 1
 20.2720077504 0.9990234375 l 1
 20.2720077504 507.954101562 l 1
 33 520.682093812 l 1
 116.654296875 520.516078187 l 1
 129.382289125 507.788085938 l 1
 129.382289125 54.7179732294 l 1
 188.079624938 21.0319565823 l 1
 188.079624938 507.955078125 l 1
 200.807617188 520.683070375 l 1
 284.461914062 520.517054749 l 1
 297.189906312 507.7890625 l 1
 297.189906312 54.2151945027 l 1
 354.930210875 21.0405946841 l 1
 354.930210875 507.955078125 l 1
 367.658203125 520.683070375 l 1
 451.3125 520.517054749 l 1
 464.040492249 507.7890625 l 1
 464.040492249 49.3134765625 l 1
 451.3125 36.5854843129 l 1
 367.658203125 -11.7279922496 l 1
 284.461914062 -11.7279922496 l 1
 242.634765625 12.4282577504 l 1
 200.807617188 -11.7289688121 l 1
 117.611328125 -11.7289688121 l 2
EndSplineSet
EndChar

StartChar: x
Encoding: 120 120 89
Width: 317
GlyphClass: 1
Flags: W
HStem: 498.384 20G<17.273 64.6288 249.898 297.225>
VStem: 18.355 109.65<43.6055 219.09 292.921 457.052> 187.057 109.669<44.2705 253.103 327.258 458.133>
LayerCount: 2
Fore
SplineSet
296.476039125 273.77734375 m 1
 297.310023499 -4.333984375 l 1
 284.58203125 -17.0619766246 l 1
 200.428710938 31.5425155629 l 1
 187.700718688 44.2705078125 l 1
 186.903932436 253.103263616 l 1
 128.005335999 219.090231455 l 1
 128.005335999 -4.9990234375 l 1
 115.27734375 -17.7270156871 l 1
 31.0830078125 30.8774765004 l 1
 18.3550155629 43.60546875 l 1
 18.3120468129 224.467773438 l 1
 32.3221441784 238.477870803 32.3221441784 238.477870803 36.1962890625 240.188929749 c 2
 70.4483213498 259.969273375 l 1
 30.7080078125 259.969273375 l 1
 17.9800155629 272.697265625 l 1
 17.2729843129 505.65625 l 1
 30.0009765625 518.384242249 l 1
 114.154296875 469.779750062 l 1
 126.882289125 457.051757812 l 1
 127.548552181 292.921138067 l 1
 187.057031871 327.258018271 l 1
 187.615757751 458.1328125 l 1
 200.34375 470.860804749 l 1
 284.497070312 519.506312562 l 1
 297.225062562 506.778320312 l 1
 296.726039125 321.591796875 l 1
 283.998046875 308.863804625 l 1
 283.499023438 308.863804625 l 1
 244.750432469 286.505335999 l 1
 283.748046875 286.505335999 l 1
 296.476039125 273.77734375 l 1
EndSplineSet
EndChar

StartChar: y
Encoding: 121 121 90
Width: 318
GlyphClass: 1
Flags: W
HStem: 500.649 20G<18.272 65.6182 249.362 296.81>
VStem: 18.646 109.479<54.2023 461.104> 102.674 108.86<-185.219 -12.3862> 186.534 109.445<20.4775 459.565>
LayerCount: 2
Fore
SplineSet
200.137695312 472.293421937 m 1xd0
 284.08203125 520.648890687 l 1
 296.810023499 507.920898438 l 1
 295.978968812 0.341796875 l 1xd0
 283.250976562 -12.3861953746 l 1
 211.921617665 -12.3861953746 l 1
 211.534632875 -185.21875 l 1
 198.806640625 -197.946742249 l 1
 115.40234375 -246.592250062 l 1
 102.674351501 -233.864257812 l 1xa0
 103.039651169 -5.25158614821 l 1
 32.62109375 35.3862655629 l 1
 31.3740234375 35.3862655629 l 1
 18.6460311879 48.1142578125 l 1
 18.2720077504 509.625 l 1
 31 522.352992249 l 1
 114.986328125 473.831507875 l 1
 127.714320375 461.103515625 l 1
 128.124620701 54.202264347 l 1
 186.534357246 20.477539189 l 1
 187.409703063 459.565429688 l 1
 200.137695312 472.293421937 l 1xd0
EndSplineSet
EndChar

StartChar: z
Encoding: 122 122 91
Width: 326
GlyphClass: 1
Flags: W
HStem: -12.8852 21G<90.5591 279.797> 499.985 20G<50.5012 239.785>
VStem: 32.3931 106.251<51.0703 202.115> 191.475 105.536<304.13 456.086>
LayerCount: 2
Fore
SplineSet
245.193359375 105.122523499 m 1
 325.353515625 58.8051406871 l 1
 338.081507875 46.0771484375 l 1
 325.353515625 33.3491561879 l 1
 245.067382812 -12.8852188121 l 1
 125.19921875 -12.8852188121 l 1
 45.12109375 33.3491561879 l 1
 40.8784530629 37.591796875 l 1
 40.8784530629 37.591796875 32.3931015004 46.0771484375 32.3931015004 46.119140625 c 2
 33.3491561879 207.689453125 l 1
 46.0771484375 220.417445375 l 1
 46.41015625 220.417445375 l 1
 103.897695336 253.590034195 l 1
 86.44921875 263.855992125 l 1
 73.7212265004 276.583984375 l 1
 86.44921875 289.311976625 l 1
 126.48828125 312.845179749 l 1
 166.1953125 289.561976625 l 1
 191.475483925 304.13012596 l 1
 191.670113705 456.086372713 l 1
 185.23828125 459.812046813 l 1
 85.1611328125 402.019078063 l 1
 5 448.336460875 l 1
 -7.72799224962 461.064453125 l 1
 5 473.792445375 l 1
 85.2451171875 519.984828187 l 1
 205.11328125 519.984828187 l 1
 285.19140625 473.792445375 l 1
 297.919398499 461.064453125 l 1
 297.011195375 300.609375 l 1
 298.168421937 299.452148438 l 1
 285.440429688 286.724156188 l 1
 227.763616431 253.401316635 l 1
 245.983398438 242.703578187 l 1
 258.711390687 229.975585938 l 1
 245.983398438 217.247593688 l 1
 205.403320312 193.839390563 l 1
 165.364257812 217.413609313 l 1
 138.87562978 202.115260707 l 1
 138.643823764 51.0702701795 l 1
 145.116210938 47.3295547496 l 1
 245.193359375 105.122523499 l 1
EndSplineSet
EndChar

StartChar: braceleft
Encoding: 123 123 92
Width: 493
GlyphClass: 1
Flags: W
HStem: -12.3949 21G<210.886 246.267 246.267 389.406>
VStem: 124.752 133.495<62.3672 379.183 513.384 830.181>
LayerCount: 2
Fore
SplineSet
244.95703125 495.060163877 m 1
 244.624023438 495.060163877 l 1
 160.176350559 446.295794384 l 1
 244.790039062 397.487687686 l 1
 245.124023438 397.487687686 l 1
 257.851945499 384.759765625 l 1
 258.246608441 19.7493504633 l 1
 354.762695312 75.4691329988 l 1
 462.864257812 75.4691329988 l 1
 475.592179873 62.7412109375 l 1
 462.864257812 50.0132888762 l 1
 354.762695312 -12.3949142489 l 1
 246.661132812 -12.3949142489 l 1
 246.266601562 -12.0003829989 l 1
 245.540039062 -12.7269454989 l 1
 137.479492188 49.6392654387 l 1
 124.751570127 62.3671875 l 1
 124.302445102 379.182666902 l 1
 30.16796875 433.525007627 l 1
 30.001953125 433.525007627 l 1
 17.2740310637 446.252929688 l 1
 30.001953125 458.980851749 l 1
 124.17747179 513.384010793 l 1
 124.626570127 830.180664062 l 1
 137.354492188 842.908586123 l 1
 245.373046875 905.274797061 l 1
 249.615687562 901.032156374 l 1
 246.100585938 904.547257999 l 1
 246.495117188 904.941789249 l 1
 354.596679688 904.941789249 l 1
 462.698242188 842.533586123 l 1
 475.426164249 829.805664062 l 1
 462.698242188 817.077742001 l 1
 354.596679688 817.077742001 l 1
 258.079615808 872.798088575 l 1
 257.684953311 507.788085938 l 1
 244.95703125 495.060163877 l 1
EndSplineSet
EndChar

StartChar: verticalbar
Encoding: 124 124 93
Width: 134
GlyphClass: 1
Flags: W
HStem: -12.7279 21G<17.2721 116.612>
VStem: 17.2721 99.3396<2.7452e-15 916.578>
LayerCount: 2
Fore
SplineSet
103.883789062 -12.7279220614 m 1
 30 -12.7279220614 l 1
 17.2720779387 2.74519990074e-15 l 1
 17.2720779387 916.578125 l 1
 30 929.306047061 l 1
 103.883789062 929.306047061 l 1
 116.611711123 916.578125 l 1
 116.611711123 8.06646416329e-17 l 1
 103.883789062 -12.7279220614 l 1
EndSplineSet
EndChar

StartChar: braceright
Encoding: 125 125 94
Width: 493
GlyphClass: 1
Flags: W
HStem: -12.3959 21G<103.624 246.765 246.765 282.133>
VStem: 235.014 133.55<62.3662 379.158 513.359 830.18>
LayerCount: 2
Fore
SplineSet
246.369140625 -12.3958908114 m 1
 138.267578125 -12.3958908114 l 1
 30.166015625 50.0123123137 l 1
 17.4380935637 62.740234375 l 1
 30.166015625 75.4681564363 l 1
 138.267578125 75.4681564363 l 1
 234.78443893 19.7479270997 l 1
 235.139265439 384.758789062 l 1
 247.8671875 397.486711123 l 1
 248.241210938 397.486711123 l 1
 332.688838254 446.217777046 l 1
 248.075195312 495.059187314 l 1
 247.7421875 495.059187314 l 1
 235.014265439 507.787109375 l 1
 234.619602333 872.797675441 l 1
 138.1015625 817.076765439 l 1
 30 817.076765439 l 1
 17.2720779387 829.8046875 l 1
 30 842.532609561 l 1
 138.1015625 904.940812686 l 1
 246.203125 904.940812686 l 1
 246.598144531 904.545793155 l 1
 247.326171875 905.273820499 l 1
 355.38671875 842.907609561 l 1
 368.114640811 830.1796875 l 1
 368.563772764 513.359320971 l 1
 462.698242188 458.979875186 l 1
 462.864257812 458.979875186 l 1
 475.592179873 446.251953125 l 1
 462.864257812 433.524031064 l 1
 368.688732242 379.157993277 l 1
 368.239640811 62.3662109375 l 1
 355.51171875 49.6382888762 l 1
 247.493164062 -12.7279220614 l 1
 246.765136719 -11.9998947181 l 1
 246.369140625 -12.3958908114 l 1
EndSplineSet
EndChar

StartChar: asciitilde
Encoding: 126 126 95
Width: 534
GlyphClass: 1
Flags: W
HStem: 276.272 166.363
LayerCount: 2
Fore
SplineSet
528.631835938 341.632429501 m 1
 416.74609375 299.264265439 l 1
 368.006254928 307.194348492 l 1
 367.892578125 307.080671689 l 1
 237.005859375 328.410749814 l 1
 99.6337890625 276.272077939 l 1
 6.9990234375 351.818952939 l 1
 -5.72889862386 364.546875 l 1
 6.9990234375 377.274797061 l 1
 118.884765625 419.600968936 l 1
 164.699342266 412.173028021 281.008101638 393.164058728 296.670898438 390.621476749 c 1
 297.418945312 389.997453311 l 1
 435.997070312 442.635148623 l 1
 528.631835938 367.088273623 l 1
 541.359757999 354.360351562 l 1
 528.631835938 341.632429501 l 1
EndSplineSet
EndChar

StartChar: cent
Encoding: 162 162 97
Width: 389
GlyphClass: 1
Flags: W
HStem: -12.7279 21G<17.2721 77.4814>
VStem: 95.6041 108.943<218.162 388.5 572.889 624.329>
LayerCount: 2
Fore
SplineSet
204.547257999 572.889346505 m 1
 226.338370579 639.546184183 l 1
 204.547257999 652.115225251 l 1
 204.547257999 572.889346505 l 1
95.6041091887 239.5703125 m 1
 95.6041091887 624.329101562 l 1
 108.33203125 637.057023623 l 1
 191.819335938 685.536515811 l 1
 192.443359376 684.912492373 l 1
 241.171281266 684.912492373 l 1
 293.471296689 844.856445312 l 1
 306.19921875 857.584367373 l 1
 353.639648438 874.839250186 l 1
 366.367570499 862.111328125 l 1
 303.193442299 668.852218413 l 1
 358.836914062 636.724992373 l 1
 371.564836123 623.997070312 l 1
 358.836914062 611.269148251 l 1
 284.373621962 611.269148251 l 1
 204.547257999 367.087890625 l 1
 204.547257999 185.715669517 l 1
 275.349609375 226.561906436 l 1
 358.836914062 226.561906436 l 1
 371.564836123 213.833984375 l 1
 358.836914062 201.106062314 l 1
 275.349609375 152.917585751 l 1
 191.819335938 152.917585751 l 1
 143.718656707 180.981922056 l 1
 90.2093673738 17.212890625 l 1
 77.4814453125 4.48496856364 l 1
 30 -12.7279220614 l 1
 17.2720779387 2.74519990074e-15 l 1
 95.6041091887 239.5703125 l 1
EndSplineSet
EndChar

StartChar: yen
Encoding: 165 165 98
Width: 461
GlyphClass: 1
Flags: W
HStem: -12.7289 21G<174.311 221.681> 88.5123 100.296<30 174.529 286.738 431.35> 214.243 100.296<30 174.82 287.113 431.349> 693.643 20G<326.51 373.852>
VStem: 87.8707 112.053<406.278 652.644> 174.529 111.803<49.9756 88.5123 188.809 214.243 314.539 337.272> 260.978 112.001<371.037 650.897>
LayerCount: 2
Fore
SplineSet
287.171468571 337.272077939 m 1xfa
 287.112500551 314.539445499 l 1
 431.348632812 314.539445499 l 1
 444.076554873 301.811523438 l 1
 444.076554873 226.971679688 l 1
 431.348632812 214.243757627 l 1
 286.800174752 214.243757627 l 1
 286.73770062 188.808976749 l 1
 431.349609375 188.808976749 l 1
 444.077531436 176.081054688 l 1
 444.077531436 101.241210938 l 1
 431.349609375 88.5132888767 l 1
 286.425403436 88.5132888767 l 1
 286.331437686 49.9755859375 l 1
 273.603515625 37.2476638762 l 1
 187.0390625 -12.7288986239 l 1
 174.311140439 -0.000976562499997 l 1
 174.528856953 88.5123123137 l 1xf4
 30 88.5123123137 l 1
 17.2720779387 101.240234375 l 1
 17.2720779387 176.080078125 l 1
 30 188.808000186 l 1
 174.757442435 188.808000186 l 1
 174.819916567 214.242781064 l 1
 30 214.242781064 l 1
 17.2720779387 226.970703125 l 1
 17.2720779387 301.810546875 l 1
 30 314.538468936 l 1
 175.091588054 314.538468936 l 1
 175.169466553 345.131333626 l 1
 100.598632812 388.162702939 l 1
 87.8707107507 400.890625 l 1
 87.4966873137 702.661132812 l 1
 100.224609375 715.389054873 l 1
 186.7890625 665.371476749 l 1
 199.516984561 652.643554688 l 1
 199.924099257 406.278001281 l 1
 260.977752132 371.037336764 l 1
 261.831648251 650.897460938 l 1
 274.559570312 663.625382999 l 1
 361.124023438 713.642961123 l 1
 373.851945499 700.915039062 l 1
 372.978898623 350 l 1
 360.250976562 337.272077939 l 1
 287.171468571 337.272077939 l 1xfa
EndSplineSet
EndChar

StartChar: copyright
Encoding: 169 169 99
Width: 651
GlyphClass: 1
Flags: W
HStem: -12.7269 28.615<193.401 457.128> 599.254 28.615<193.941 457.71>
VStem: 17.2731 109.9<54.1115 560.718> 237.551 77.4695<117.124 491.655> 523.938 109.858<54.4474 561.03>
LayerCount: 2
Fore
SplineSet
536.623046875 627.868547061 m 1
 621.068359375 579.140031436 l 1
 633.796281436 566.412109375 l 1
 633.796281436 48.7294921875 l 1
 621.068359375 36.0015701262 l 1
 620.528320312 36.0015701262 l 1
 536.083984375 -12.7269454989 l 1
 114.4453125 -12.7269454989 l 1
 30.0009765625 36.0015701262 l 1
 17.2730545012 48.7294921875 l 1
 17.2730545012 566.412109375 l 1
 30.0009765625 579.140031436 l 1
 30.541015625 579.140031436 l 1
 114.943359375 627.868547061 l 1
 536.623046875 627.868547061 l 1
127.173234561 560.718400674 m 1
 127.173234561 54.1115183769 l 1
 193.401367188 15.8880783113 l 1
 457.127929688 15.8880783113 l 1
 523.938093564 54.4474365995 l 1
 523.938093564 561.030083185 l 1
 457.709960938 599.253523251 l 1
 193.94140625 599.253523251 l 1
 127.173234561 560.718400674 l 1
315.094909717 107.381353026 m 1
 354.098632812 129.892961123 l 1
 405.821289062 129.892961123 l 1
 418.549211123 117.165039062 l 1
 405.821289062 104.437117001 l 1
 354.098632812 74.5845779387 l 1
 302.375976562 74.5845779387 l 1
 290.267573249 81.572236467 250.80007834 104.097662502 250.279296875 104.396101377 c 2
 237.551374814 117.124023438 l 1
 237.676374814 491.655273438 l 1
 250.404296875 504.383195499 l 1
 302.501953125 534.193742373 l 1
 354.223632812 534.193742373 l 1
 405.946289062 504.341203311 l 1
 418.674211123 491.61328125 l 1
 405.946289062 478.885359189 l 1
 354.223632812 478.885359189 l 1
 315.212148336 501.401446889 l 1
 315.020890811 272.291992188 l 1
 315.094909717 107.381353026 l 1
EndSplineSet
EndChar

StartChar: guillemotleft
Encoding: 171 171 100
Width: 418
GlyphClass: 1
Flags: W
HStem: -12.7279 21G<157.175 191.659 365.937 400.42>
LayerCount: 2
Fore
SplineSet
17.2720779387 136.915039062 m 1
 17.2720779387 273.830078125 l 1
 30 286.558000186 l 1
 178.930664062 423.473039249 l 1
 191.658586123 410.745117188 l 1
 191.658586123 273.830078125 l 1
 168.120163649 250.105447992 142.693063479 228.269495555 118.309855425 205.389651002 c 1
 139.87887519 185.34107747 161.897956316 165.7425653 183.173304749 145.400320436 c 2
 191.658586123 136.915039062 l 1
 191.658586123 8.06646416329e-17 l 1
 178.930664062 -12.7279220614 l 1
 30 124.187117001 l 1
 17.2720779387 136.915039062 l 1
400.420304873 410.745117188 m 1
 400.420304873 273.830078125 l 1
 376.881882399 250.105447992 351.454782229 228.269495555 327.071574175 205.389651002 c 1
 348.64059394 185.34107747 370.659675066 165.7425653 391.935023499 145.400320436 c 2
 400.420304873 136.915039062 l 1
 400.420304873 8.06646416329e-17 l 1
 387.692382812 -12.7279220614 l 1
 238.76171875 124.187117001 l 1
 226.033796689 136.915039062 l 1
 226.033796689 273.830078125 l 1
 238.76171875 286.558000186 l 1
 387.692382812 423.473039249 l 1
 400.420304873 410.745117188 l 1
EndSplineSet
EndChar

StartChar: registered
Encoding: 174 174 102
Width: 651
GlyphClass: 1
Flags: W
HStem: -12.7269 28.615<193.401 457.128> 599.254 28.615<193.941 457.71>
VStem: 17.2731 109.9<54.1115 560.718> 229.487 77.1785<131.304 131.345 131.47 290.344 323.147 499.346> 332.141 77.9685<131.719 275.201 340.146 484.29> 523.938 109.858<54.4474 561.03>
LayerCount: 2
Fore
SplineSet
536.623046875 627.868547061 m 1
 621.068359375 579.140031436 l 1
 633.796281436 566.412109375 l 1
 633.796281436 48.7294921875 l 1
 621.068359375 36.0015701262 l 1
 620.528320312 36.0015701262 l 1
 536.083984375 -12.7269454989 l 1
 114.4453125 -12.7269454989 l 1
 30.0009765625 36.0015701262 l 1
 17.2730545012 48.7294921875 l 1
 17.2730545012 566.412109375 l 1
 30.0009765625 579.140031436 l 1
 30.541015625 579.140031436 l 1
 114.943359375 627.868547061 l 1
 536.623046875 627.868547061 l 1
266.205078125 548.372453311 m 1
 293.939441294 532.156644829 l 1
 345.243164062 532.364640811 l 1
 396.965820312 502.512101749 l 1
 409.693742373 489.784179688 l 1
 409.693742373 340.146484375 l 1
 396.965820312 327.418562314 l 1
 367.692912511 310.443677345 l 1
 397.381835938 293.294328311 l 1
 410.109757999 280.56640625 l 1
 410.109757999 101.408203125 l 1
 397.381835938 88.6802810637 l 1
 344.869140625 118.990827939 l 1
 332.141218564 131.71875 l 1
 332.902779857 275.20103963 l 1
 306.665422061 290.34434056 l 1
 306.665422061 131.303710938 l 1
 293.9375 118.575788877 l 1
 293.8125 118.575788877 l 1
 242.08984375 88.6812576267 l 1
 229.361921689 101.409179688 l 1
 229.361921689 131.344726562 l 1
 229.486921689 131.469726562 l 1
 229.486921689 514.132652144 l 1
 214.44140625 522.916609189 l 1
 201.713484189 535.64453125 l 1
 214.44140625 548.372453311 l 1
 266.205078125 548.372453311 l 1
127.173234561 560.718400674 m 1
 127.173234561 54.1115183769 l 1
 193.401367188 15.8880783113 l 1
 457.127929688 15.8880783113 l 1
 523.938093564 54.4474365995 l 1
 523.938093564 561.030083185 l 1
 457.709960938 599.253523251 l 1
 193.94140625 599.253523251 l 1
 127.173234561 560.718400674 l 1
306.665422061 323.146867373 m 1
 332.723249814 323.146867373 l 1
 332.723249814 484.290155318 l 1
 306.665422061 499.346141829 l 1
 306.665422061 323.146867373 l 1
EndSplineSet
EndChar

StartChar: degree
Encoding: 176 176 103
Width: 223
GlyphClass: 1
Flags: W
HStem: 415.272 309.139<77.0664 89.5453 110.905 123.633>
VStem: 17.2731 72.2723<448.076 679.128> 110.905 72.2723<460.406 691.448>
LayerCount: 2
Fore
SplineSet
30.0009765625 415.355085751 m 1
 17.2730545012 428.083007812 l 1
 17.2730545012 684.658203125 l 1
 30.0009765625 697.386125186 l 1
 30.25 697.386125186 l 1
 77.06640625 724.411515811 l 1
 123.8828125 724.411515811 l 1
 128.125453187 720.168875124 l 1
 123.965451173 724.328877139 l 1
 170.44921875 724.411515811 l 1
 183.177140811 711.68359375 l 1
 183.177140811 455.025390625 l 1
 170.44921875 442.297468564 l 1
 123.6328125 415.272077939 l 1
 76.81640625 415.272077939 l 1
 30.0009765625 415.355085751 l 1
110.904890439 691.448225639 m 1
 89.5453048738 679.128075455 l 1
 89.5453048738 448.075847396 l 1
 110.904890439 460.405951086 l 1
 110.904890439 691.448225639 l 1
EndSplineSet
EndChar

StartChar: acute
Encoding: 180 180 104
Width: 264
GlyphClass: 1
Flags: W
HStem: 348.272 97.9676
VStem: -7.72792 276.667
LayerCount: 2
Fore
SplineSet
130.60546875 446.239640811 m 1
 256.2109375 446.239640811 l 1
 268.938859561 433.51171875 l 1
 256.2109375 420.783796689 l 1
 130.60546875 348.272077939 l 1
 5 348.272077939 l 1
 -7.72792206136 361 l 1
 5 373.727922061 l 1
 130.60546875 446.239640811 l 1
EndSplineSet
EndChar

StartChar: cedilla
Encoding: 184 184 105
Width: 129
GlyphClass: 1
Flags: W
HStem: -12.7269 122.123<51.2461 62.0146>
VStem: 38.5182 73.1033<49.0205 96.668>
LayerCount: 2
Fore
SplineSet
38.5181716887 49.0205078125 m 1
 38.5181716887 96.66796875 l 1
 51.24609375 109.395890811 l 1
 98.8935546875 109.395890811 l 1
 111.621476749 96.66796875 l 1
 111.621476749 49.0205078125 l 1
 74.7425704988 0.0009765625 l 1
 62.0146484375 -12.7269454989 l 1
 30 -12.7269454989 l 1
 17.2720779387 0.000976562500003 l 1
 38.5181716887 49.0205078125 l 1
EndSplineSet
EndChar

StartChar: guillemotright
Encoding: 187 187 106
Width: 418
GlyphClass: 1
Flags: W
HStem: -12.7279 21G<17.2711 51.7542 226.033 260.516>
LayerCount: 2
Fore
SplineSet
238.760742188 423.473039249 m 1
 387.69140625 286.558000186 l 1
 400.419328311 273.830078125 l 1
 400.419328311 136.915039062 l 1
 387.69140625 124.187117001 l 1
 238.760742188 -12.7279220614 l 1
 226.032820127 2.74519990074e-15 l 1
 226.032820127 136.915039062 l 1
 249.577763057 160.644543678 274.997924091 182.49883019 299.381550825 205.389651002 c 1
 277.812906259 225.427204794 255.790930312 245.011427205 234.518101501 265.344796751 c 2
 226.032820127 273.830078125 l 1
 226.032820127 410.745117188 l 1
 238.760742188 423.473039249 l 1
17.2711013762 273.830078125 m 1
 17.2711013762 410.745117188 l 1
 29.9990234375 423.473039249 l 1
 178.9296875 286.558000186 l 1
 191.657609561 273.830078125 l 1
 191.657609561 136.915039062 l 1
 178.9296875 124.187117001 l 1
 29.9990234375 -12.7279220614 l 1
 17.2711013762 2.74519990074e-15 l 1
 17.2711013762 136.915039062 l 1
 40.8160443065 160.644543678 66.2362053404 182.49883019 90.6198320748 205.389651002 c 1
 69.0511875083 225.427204794 47.0292115616 245.011427205 25.7563827504 265.344796751 c 2
 17.2711013762 273.830078125 l 1
EndSplineSet
EndChar

StartChar: Agrave
Encoding: 192 192 107
Width: 318
GlyphClass: 1
Flags: W
HStem: -12.7269 21G<17.0436 128.731 189.507 301.237>
VStem: 17.0436 111.687<0 285.965 353.844 676.844> 189.507 111.729<0.000976562 285.965 318.767 641.738>
LayerCount: 2
Fore
SplineSet
271.212890625 731.719343564 m 1
 145.607421875 731.719343564 l 1
 20.001953125 804.231062314 l 1
 7.27403106368 816.958984375 l 1
 20.001953125 829.686906436 l 1
 145.607421875 829.686906436 l 1
 271.212890625 757.175187686 l 1
 283.940812686 744.447265625 l 1
 271.212890625 731.719343564 l 1
189.507429501 318.766649252 m 1
 189.507429501 641.738321172 l 1
 128.730851749 676.84448473 l 1
 128.730851749 353.843904684 l 1
 189.507429501 318.766649252 l 1
128.730851749 285.965437314 m 1
 128.730851749 8.06646416329e-17 l 1
 116.002929688 -12.7279220614 l 1
 29.771484375 -12.7279220614 l 1
 17.0435623137 2.74519990074e-15 l 1
 17.0435623137 696.923828125 l 1
 29.771484375 709.651750186 l 1
 202.235351562 709.651750186 l 1
 288.383789062 659.925187686 l 1
 288.508789062 659.925187686 l 1
 301.236711123 647.197265625 l 1
 301.236711123 0.0009765625 l 1
 288.508789062 -12.7269454989 l 1
 202.235351562 -12.7269454989 l 1
 189.507429501 0.000976562500003 l 1
 189.507429501 285.965437314 l 1
 128.730851749 285.965437314 l 1
EndSplineSet
EndChar

StartChar: Aacute
Encoding: 193 193 108
Width: 318
GlyphClass: 1
Flags: W
HStem: -12.7269 21G<17.2721 128.959 189.735 301.464>
VStem: 17.2721 111.687<0 285.965 353.844 676.844> 189.735 111.729<0.000976562 285.965 318.767 641.738>
LayerCount: 2
Fore
SplineSet
315.470703125 804.231062314 m 1
 189.823242188 731.719343564 l 1
 64.2177734375 731.719343564 l 1
 51.4898513762 744.447265625 l 1
 64.2177734375 757.175187686 l 1
 189.823242188 829.686906436 l 1
 315.470703125 829.686906436 l 1
 328.198625186 816.958984375 l 1
 315.470703125 804.231062314 l 1
189.734968564 318.767212875 m 1
 189.734968564 641.738321172 l 1
 128.959367373 676.843920642 l 1
 128.959367373 353.843904684 l 1
 189.734968564 318.767212875 l 1
116.231445312 -12.7279220614 m 1
 30 -12.7279220614 l 1
 17.2720779387 2.74519990074e-15 l 1
 17.2720779387 696.923828125 l 1
 30 709.651750186 l 1
 202.462890625 709.651750186 l 1
 288.611328125 659.925187686 l 1
 288.736328125 659.925187686 l 1
 301.464250186 647.197265625 l 1
 301.464250186 0.0009765625 l 1
 288.736328125 -12.7269454989 l 1
 202.462890625 -12.7269454989 l 1
 189.734968564 0.000976562500003 l 1
 189.734968564 285.965437314 l 1
 128.959367373 285.965437314 l 1
 128.959367373 8.06646416329e-17 l 1
 116.231445312 -12.7279220614 l 1
EndSplineSet
EndChar

StartChar: Acircumflex
Encoding: 194 194 109
Width: 318
GlyphClass: 1
Flags: W
HStem: -12.6859 21G<16.9195 128.607 189.382 301.112>
VStem: 16.9195 111.687<0.0419922 286.007 353.886 676.85> 189.382 111.729<0.0419922 286.007 318.809 641.773>
LayerCount: 2
Fore
SplineSet
189.382429501 318.809205062 m 1
 189.382429501 641.773282816 l 1
 128.606828311 676.849974625 l 1
 128.606828311 353.885896872 l 1
 189.382429501 318.809205062 l 1
147.145268407 783.671499556 m 1
 142.805318392 778.981559238 138.502985718 774.25400158 134.200653044 769.526443921 c 0
 119.468887361 753.338650707 113.433115751 746.706328091 98.4150390625 731.719343564 c 1
 0.9990234375 731.719343564 l 1
 -11.7288986239 744.447265625 l 1
 85.6871170012 850.428710938 l 1
 98.4150390625 863.156632999 l 1
 195.873046875 863.156632999 l 1
 208.600968936 850.428710938 l 1
 306.016984561 744.447265625 l 1
 293.2890625 731.719343564 l 1
 195.873046875 731.719343564 l 1
 184.403226012 743.159891 179.863974828 747.793376942 160.184284013 769.422591922 c 0
 155.850933597 774.185215919 151.517583181 778.947839916 147.145268407 783.671499556 c 1
128.606828311 286.007429501 m 1
 128.606828311 0.0419921875 l 1
 115.87890625 -12.6859298739 l 1
 29.6474609375 -12.6859298739 l 1
 16.9195388762 0.0419921875 l 1
 16.9195388762 696.923828125 l 1
 29.6474609375 709.651750186 l 1
 202.110351562 709.651750186 l 1
 288.258789062 659.925187686 l 1
 288.383789062 659.925187686 l 1
 301.111711123 647.197265625 l 1
 301.111711123 0.0419921875 l 1
 288.383789062 -12.6859298739 l 1
 202.110351562 -12.6859298739 l 1
 189.382429501 0.0419921875 l 1
 189.382429501 286.007429501 l 1
 128.606828311 286.007429501 l 1
EndSplineSet
EndChar

StartChar: Atilde
Encoding: 195 195 110
Width: 318
GlyphClass: 1
Flags: W
HStem: -12.7269 21G<17.3639 129.051 189.827 301.556>
VStem: 17.3639 111.687<0 285.965 353.844 676.844> 189.827 111.729<0.000976562 285.965 318.767 641.738>
LayerCount: 2
Fore
SplineSet
146.96484375 774.045515439 m 1
 52.9990234375 745.941023251 l 2
 52.2922791999 746.616860873 2.63270327299 793.105194979 -17.7298751863 813.467773438 c 1
 -5.001953125 826.195695499 l 1
 71.5009765625 848.979875186 l 1
 110.52040925 839.713500582 149.476425999 830.383710039 188.458984375 821.080461123 c 1
 188.958007812 820.623429873 l 1
 283.754882812 848.937882999 l 2
 284.46162705 848.262045377 334.121202971 801.773711277 354.483781436 781.411132812 c 1
 341.755859375 768.683210751 l 1
 265.252929688 745.899031064 l 1
 233.149190815 753.542362504 l 1
 233.072265625 753.465437314 l 1
 146.96484375 774.045515439 l 1
189.826765439 318.767212875 m 1
 189.826765439 641.738321172 l 1
 129.051164249 676.843920642 l 1
 129.051164249 353.843904684 l 1
 189.826765439 318.767212875 l 1
129.051164249 285.965437314 m 1
 129.051164249 8.06646416329e-17 l 1
 116.323242188 -12.7279220614 l 1
 30.091796875 -12.7279220614 l 1
 17.3638748137 2.74519990074e-15 l 1
 17.3638748137 696.923828125 l 1
 30.091796875 709.651750186 l 1
 202.5546875 709.651750186 l 1
 288.703125 659.925187686 l 1
 288.828125 659.925187686 l 1
 301.556047061 647.197265625 l 1
 301.556047061 0.0009765625 l 1
 288.828125 -12.7269454989 l 1
 202.5546875 -12.7269454989 l 1
 189.826765439 0.000976562500003 l 1
 189.826765439 285.965437314 l 1
 129.051164249 285.965437314 l 1
EndSplineSet
EndChar

StartChar: Adieresis
Encoding: 196 196 111
Width: 340
GlyphClass: 1
Flags: W
HStem: -12.7279 21G<39.0172 150.704 211.48 323.167> 728.35 127.861<29.999 132.404 208.034 310.439>
VStem: 17.2711 127.861<741.078 843.483> 39.0172 111.687<0 285.965 353.879 676.843> 195.306 127.861<741.078 843.483> 211.48 111.687<0 285.965 318.773 641.737>
LayerCount: 2
Fore
SplineSet
132.404296875 728.350202939 m 1xe0
 29.9990234375 728.350202939 l 1
 17.2711013762 741.078125 l 1
 17.2711013762 843.483398438 l 1
 29.9990234375 856.211320499 l 1
 132.404296875 856.211320499 l 1
 145.132218936 843.483398438 l 1
 145.132218936 741.078125 l 1
 132.404296875 728.350202939 l 1xe0
310.439453125 728.350202939 m 1
 208.034179688 728.350202939 l 1
 195.306257627 741.078125 l 1
 195.306257627 843.483398438 l 1
 208.034179688 856.211320499 l 1
 310.439453125 856.211320499 l 1
 323.167375186 843.483398438 l 1
 323.167375186 741.078125 l 1xc8
 310.439453125 728.350202939 l 1
211.480085751 318.773266858 m 1xc4
 211.480085751 641.73734461 l 1
 150.704484561 676.842944079 l 1
 150.704484561 353.878866328 l 1
 211.480085751 318.773266858 l 1xc4
150.704484561 285.965437314 m 1
 150.704484561 8.06646416329e-17 l 1
 137.9765625 -12.7279220614 l 1
 51.7451171875 -12.7279220614 l 1
 39.0171951262 2.74519990074e-15 l 1
 39.0171951262 696.923828125 l 1xd4
 51.7451171875 709.651750186 l 1
 224.208007812 709.651750186 l 1
 310.439453125 659.924211123 l 1
 323.167375186 647.196289062 l 1
 323.167375186 8.06646416329e-17 l 1
 310.439453125 -12.7279220614 l 1
 224.208007812 -12.7279220614 l 1
 211.480085751 2.74519990074e-15 l 1
 211.480085751 285.965437314 l 1
 150.704484561 285.965437314 l 1
EndSplineSet
EndChar

StartChar: Aring
Encoding: 197 197 112
Width: 319
GlyphClass: 1
Flags: W
HStem: -12.7279 21G<17.2731 128.96 189.736 301.423>
VStem: 17.2731 111.687<0 288.876 356.754 679.754> 73.527 55.2674<719.901 805.99> 133.191 55.2664<722.436 808.527> 189.736 111.687<0.000976562 288.876 321.677 644.648>
LayerCount: 2
Fore
SplineSet
128.960343936 679.754076892 m 1x98
 128.960343936 356.754060934 l 1
 189.735945127 321.677369125 l 1
 189.735945127 644.648477422 l 1
 128.960343936 679.754076892 l 1x98
133.191023251 808.527350957 m 1
 128.794328311 805.990345597 l 1
 128.794328311 719.90079074 l 1xb8
 133.191023251 722.435912759 l 1
 133.191023251 808.527350957 l 1
189.735945127 288.875593564 m 1
 128.960343936 288.875593564 l 1
 128.960343936 8.06646416329e-17 l 1
 116.232421875 -12.7279220614 l 1
 30.0009765625 -12.7279220614 l 1
 17.2730545012 2.74519990074e-15 l 1
 17.2730545012 699.833984375 l 1xd8
 30.0009765625 712.561906436 l 1
 73.5269607512 712.561906436 l 1
 73.5269607512 811.469726562 l 1
 86.2548828125 824.197648623 l 1
 86.4208984375 824.197648623 l 1
 116.232421875 841.410539249 l 1
 146.084960938 841.410539249 l 1
 146.084960938 841.410539249 146.099441116 841.396059072 146.126717903 841.368782285 c 2
 175.729492188 841.410539249 l 1
 188.457414249 828.682617188 l 1
 188.457414249 717.046875 l 1
 184.138551489 712.72801224 l 1
 202.463867188 712.561906436 l 1
 288.6953125 662.794328311 l 1
 301.423234561 650.06640625 l 1
 301.423234561 0.0009765625 l 1
 288.6953125 -12.7269454989 l 1
 202.463867188 -12.7269454989 l 1
 189.735945127 0.000976562500003 l 1
 189.735945127 288.875593564 l 1
EndSplineSet
EndChar

StartChar: AE
Encoding: 198 198 113
Width: 448
GlyphClass: 1
Flags: W
HStem: -11.3978 50.4861<331.646 375.177> 692.563 20G<17.2731 204.751>
VStem: 17.2731 111.687<0.000976562 288.877 356.792 679.756> 189.529 111.895<56.6129 288.877 321.809 336.108 411.332 644.773>
LayerCount: 2
Fore
SplineSet
189.528913877 321.808743231 m 1
 189.528913877 644.772820982 l 1
 128.960343936 679.755709895 l 1
 128.960343936 356.791632142 l 1
 189.528913877 321.808743231 l 1
116.232421875 -12.7269454989 m 1
 30.0009765625 -12.7269454989 l 1
 17.2730545012 0.000976562500003 l 1
 17.2730545012 699.834960938 l 1
 30.0009765625 712.562882999 l 1
 202.463867188 712.562882999 l 1
 204.750976562 711.232804873 l 1
 331.604492188 711.232804873 l 1
 417.8359375 661.464250186 l 1
 430.563859561 648.736328125 l 1
 417.8359375 636.008406064 l 1
 331.604492188 636.008406064 l 1
 301.216203311 653.561633198 l 1
 301.216203311 650.315429687 l 1
 301.424211123 650.107421875 l 1
 301.424211123 411.332414249 l 1
 315.264648438 411.332414249 l 1
 401.49609375 361.563859561 l 1
 414.224015811 348.8359375 l 1
 401.49609375 336.108015439 l 1
 301.424211123 336.108015439 l 1
 301.424211123 56.6129150393 l 1
 331.645507812 39.0882736238 l 1
 375.176757812 39.0882736238 l 1
 418.293945312 14.0580001864 l 1
 431.021867373 1.330078125 l 1
 418.293945312 -11.3978439364 l 1
 290.026367187 -11.3978439364 l 1
 288.696289062 -12.7279220614 l 1
 202.46484375 -12.7279220614 l 1
 189.736921689 2.74519990074e-15 l 1
 189.736921689 51.182617188 l 1
 189.528913877 51.390625 l 1
 189.528913877 288.876570127 l 1
 128.960343936 288.876570127 l 1
 128.960343936 0.0009765625 l 1
 116.232421875 -12.7269454989 l 1
EndSplineSet
EndChar

StartChar: Ccedilla
Encoding: 199 199 114
Width: 262
GlyphClass: 1
Flags: W
VStem: 11.315 109.384<46.7324 650.355> 116.506 73.1033<-48.9375 -14.059>
LayerCount: 2
Fore
SplineSet
189.609757999 -14.0589767489 m 1x40
 189.609757999 -48.9375 l 1
 152.730851749 -97.9990234375 l 1
 140.002929688 -110.726945499 l 1
 107.98828125 -110.726945499 l 1
 95.2603591887 -97.9990234375 l 1
 116.506452939 -48.9375 l 1
 116.506452939 -14.0589767489 l 1x40
 107.98828125 -14.0589767489 l 1
 88.5019441453 -2.78563961764 24.8820539998 33.5232231048 24.04296875 34.0044998137 c 2
 11.3150466887 46.732421875 l 1x80
 11.2730545012 457.26953125 l 1
 11.5220779387 650.35546875 l 1
 24.25 663.083390811 l 1
 107.739257812 711.022843936 l 1
 191.060546875 711.022843936 l 1
 274.381835938 662.917375186 l 1
 287.109757999 650.189453125 l 1
 274.381835938 637.461531064 l 1
 191.060546875 637.461531064 l 1
 120.44448443 678.231649041 l 1
 120.216374777 457.600414471 l 1
 120.699159628 18.7417382243 l 1
 191.309570312 59.5433517488 l 1
 274.630859375 59.5433517488 l 1
 287.358781436 46.8154296875 l 1
 274.630859375 34.0875076262 l 1
 191.309570312 -14.0589767489 l 1
 189.609757999 -14.0589767489 l 1x40
EndSplineSet
EndChar

StartChar: Egrave
Encoding: 200 200 115
Width: 360
GlyphClass: 1
Flags: W
HStem: -12.7269 50.4431<243.128 286.659>
VStem: 101.052 111.687<55.3864 334.736 409.96 652.194>
LayerCount: 2
Fore
SplineSet
281.211914062 739.451765439 m 1
 155.606445312 739.451765439 l 1
 30.0009765625 811.963484189 l 1
 17.2730545012 824.69140625 l 1
 30.0009765625 837.419328311 l 1
 155.606445312 837.419328311 l 1
 281.211914062 764.907609561 l 1
 293.939836123 752.1796875 l 1
 281.211914062 739.451765439 l 1
212.739640811 409.960343936 m 1
 226.74609375 409.960343936 l 1
 312.977539062 360.191789249 l 1
 325.705461123 347.463867188 l 1
 312.977539062 334.735945127 l 1
 212.739640811 334.735945127 l 1
 212.739640811 55.3864381944 l 1
 243.127929688 37.7162033113 l 1
 286.659179688 37.7162033113 l 1
 329.775390625 12.7288986239 l 1
 342.503312686 0.0009765625 l 1
 329.775390625 -12.7269454989 l 1
 208.771719742 -12.7269454989 l 1
 205.533562073 -15.965427317 l 1
 205.533562073 -15.965427317 190.82629554 -7.46822965058 113.780273438 37.3326248137 c 1
 101.052351377 50.060546875 l 1
 101.052351377 666.59972639 l 1
 70.6220703125 684.445906064 l 1
 57.8941482512 697.173828125 l 1
 70.6220703125 709.901750186 l 1
 243.0859375 709.901750186 l 1
 329.317382812 660.133195499 l 1
 342.045304873 647.405273438 l 1
 329.317382812 634.677351377 l 1
 243.0859375 634.677351377 l 1
 212.739640811 652.193827156 l 1
 212.739640811 409.960343936 l 1
EndSplineSet
EndChar

StartChar: Eacute
Encoding: 201 201 116
Width: 335
GlyphClass: 1
Flags: W
HStem: -12.7269 50.4431<202.506 246.038>
VStem: 60.4313 111.645<55.3935 334.736 409.96 652.201>
LayerCount: 2
Fore
SplineSet
305.243164062 812.171492001 m 1
 179.637695312 739.659773251 l 1
 54.0322265625 739.659773251 l 1
 41.3043045012 752.387695312 l 1
 54.0322265625 765.115617373 l 1
 179.637695312 837.627336123 l 1
 305.243164062 837.627336123 l 1
 317.971086123 824.899414062 l 1
 305.243164062 812.171492001 l 1
172.076554873 409.960343936 m 1
 186.125 409.960343936 l 1
 272.356445312 360.191789249 l 1
 285.084367373 347.463867188 l 1
 272.356445312 334.735945127 l 1
 172.076554873 334.735945127 l 1
 172.076554873 55.3934719842 l 1
 202.505859375 37.7162033113 l 1
 246.038085938 37.7162033113 l 1
 289.154296875 12.7288986239 l 1
 301.882218936 0.0009765625 l 1
 289.154296875 -12.7269454989 l 1
 168.150626075 -12.7269454989 l 1
 164.912468375 -15.9654273474 l 1
 164.912468375 -15.9654273474 150.205201807 -7.4682296605 73.1591796875 37.3326248137 c 1
 60.4312576262 50.060546875 l 1
 60.4312576262 666.59972639 l 1
 30.0009765625 684.445906064 l 1
 17.2730545012 697.173828125 l 1
 30.0009765625 709.901750186 l 1
 202.46484375 709.901750186 l 1
 288.696289062 660.133195499 l 1
 301.424211123 647.405273438 l 1
 288.696289062 634.677351377 l 1
 202.46484375 634.677351377 l 1
 172.076554873 652.200982434 l 1
 172.076554873 409.960343936 l 1
EndSplineSet
EndChar

StartChar: Ecircumflex
Encoding: 202 202 117
Width: 352
GlyphClass: 1
Flags: W
HStem: -12.7269 50.4842<219.054 262.585>
VStem: 76.9781 111.687<55.3979 334.777 410.001 652.222>
LayerCount: 2
Fore
SplineSet
176.141285072 791.606279307 m 1
 171.802451589 786.917436363 167.501224499 782.190987026 163.199997409 777.464537688 c 0
 148.470383165 761.278743721 142.434062536 754.645668313 127.416992188 739.659773251 c 1
 30.0009765625 739.659773251 l 1
 17.2730545012 752.387695312 l 1
 114.689070127 858.369140625 l 1
 127.416992188 871.097062686 l 1
 224.833007812 871.097062686 l 1
 237.560929873 858.369140625 l 1
 334.976945499 752.387695312 l 1
 322.249023438 739.659773251 l 1
 224.833007812 739.659773251 l 1
 213.371856397 751.091093074 208.831560159 755.726225942 189.165822028 777.36053473 c 0
 184.837415199 782.122221745 180.50900837 786.88390876 176.141285072 791.606279307 c 1
188.665422061 410.001359561 m 1
 202.671875 410.001359561 l 1
 288.903320312 360.232804873 l 1
 301.631242373 347.504882812 l 1
 288.903320312 334.776960751 l 1
 188.665422061 334.776960751 l 1
 188.665422061 55.3978577418 l 1
 219.053710938 37.7572189363 l 1
 262.584960938 37.7572189363 l 1
 305.701171875 12.7288986239 l 1
 318.429093936 0.0009765625 l 1
 305.701171875 -12.7269454989 l 1
 175.9375 -12.7269454989 l 1
 89.7060546875 37.3316482512 l 1
 76.9781326262 50.0595703125 l 1
 76.9781326262 666.627753408 l 1
 46.5478515625 684.444929501 l 1
 33.8199295012 697.172851562 l 1
 46.5478515625 709.900773623 l 1
 219.01171875 709.900773623 l 1
 305.243164062 660.132218936 l 1
 317.971086123 647.404296875 l 1
 305.243164062 634.676374814 l 1
 219.01171875 634.676374814 l 1
 188.665422061 652.222434586 l 1
 188.665422061 410.001359561 l 1
EndSplineSet
EndChar

StartChar: Edieresis
Encoding: 203 203 118
Width: 340
GlyphClass: 1
Flags: W
HStem: -12.7289 50.5691<223.461 267.2> 692.312 20G<37.6451 258.115> 725.357 127.861<30 132.405 208.035 310.44>
VStem: 17.2721 127.861<738.085 840.49> 80.9693 111.937<55.5685 335.941 411.373 654.562> 195.307 127.861<738.085 840.49>
LayerCount: 2
Fore
SplineSet
132.405273438 725.357038877 m 1xf4
 30 725.357038877 l 1
 17.2720779387 738.084960938 l 1
 17.2720779387 840.490234375 l 1
 30 853.218156436 l 1
 132.405273438 853.218156436 l 1
 145.133195499 840.490234375 l 1
 145.133195499 738.084960938 l 1
 132.405273438 725.357038877 l 1xf4
310.440429688 725.357038877 m 1
 208.03515625 725.357038877 l 1
 195.307234189 738.084960938 l 1
 195.307234189 840.490234375 l 1
 208.03515625 853.218156436 l 1
 310.440429688 853.218156436 l 1
 323.168351749 840.490234375 l 1
 323.168351749 738.084960938 l 1
 310.440429688 725.357038877 l 1
192.906632999 411.373429873 m 1xec
 207.079101562 411.373429873 l 1
 293.560546875 361.396867373 l 1
 306.288468936 348.668945312 l 1
 293.560546875 335.941023251 l 1
 192.906632999 335.941023251 l 1
 192.906632999 55.5684931361 l 1
 223.4609375 37.8402267488 l 1
 267.200195312 37.8402267488 l 1
 310.440429688 12.7269454989 l 1
 323.168351749 -0.0009765625 l 1
 310.440429688 -12.7288986239 l 1
 180.219726562 -12.7288986239 l 1
 93.697265625 37.4976638762 l 1
 80.9693435637 50.2255859375 l 1
 80.9693435637 668.922687222 l 1
 50.373046875 686.856062314 l 1
 37.6451248137 699.583984375 l 1
 50.373046875 712.311906436 l 1
 223.4609375 712.311906436 l 1
 309.983398438 662.377336123 l 1
 322.711320499 649.649414062 l 1
 309.983398438 636.921492001 l 1
 223.4609375 636.921492001 l 1
 192.906632999 654.5615169 l 1
 192.906632999 411.373429873 l 1xec
EndSplineSet
EndChar

StartChar: Igrave
Encoding: 204 204 119
Width: 311
GlyphClass: 1
Flags: W
HStem: -12.7269 21G<142.877 255.895> 692.52 20G<208.196 255.646>
VStem: 143.21 112.685<0.000976562 649.691>
LayerCount: 2
Fore
SplineSet
155.60546875 825.195695499 m 1
 281.2109375 752.683976749 l 1
 293.938859561 739.956054688 l 1
 281.2109375 727.228132627 l 1
 155.60546875 727.228132627 l 1
 30 799.739851377 l 1
 17.2720779387 812.467773438 l 1
 30 825.195695499 l 1
 155.60546875 825.195695499 l 1
142.876570127 0.000976562500003 m 2
 142.881133487 0.503222730666 142.957491157 38.616568126 143.209577939 50.2265625 c 2
 143.209577939 649.69140625 l 1
 155.9375 662.419328311 l 1
 242.91796875 712.519914249 l 1
 255.645890811 699.791992188 l 1
 255.437882999 649.692382812 l 1
 255.894914249 0.0009765625 l 1
 243.166992188 -12.7269454989 l 1
 155.604492188 -12.7269454989 l 1
 142.876570127 0.000976562500003 l 2
EndSplineSet
EndChar

StartChar: Iacute
Encoding: 205 205 120
Width: 311
GlyphClass: 1
Flags: W
HStem: -12.7269 21G<36.6461 149.664> 692.52 20G<101.965 149.415>
VStem: 36.9791 112.685<0.000976562 649.691>
LayerCount: 2
Fore
SplineSet
155.60546875 833.012101749 m 1
 281.2109375 833.012101749 l 1
 293.938859561 820.284179688 l 1
 281.2109375 807.556257627 l 1
 155.60546875 735.044538877 l 1
 30 735.044538877 l 1
 17.2720779387 747.772460938 l 1
 30 760.500382999 l 1
 155.60546875 833.012101749 l 1
36.6461013762 0.000976562500003 m 2
 36.6506647367 0.503222730666 36.7270224071 38.6165681463 36.9791091887 50.2265625 c 2
 36.9791091887 649.69140625 l 1
 49.70703125 662.419328311 l 1
 136.6875 712.519914249 l 1
 149.415422061 699.791992188 l 1
 149.207414249 649.692382812 l 1
 149.664445499 0.0009765625 l 1
 136.936523438 -12.7269454989 l 1
 49.3740234375 -12.7269454989 l 1
 36.6461013762 0.000976562500003 l 2
EndSplineSet
EndChar

StartChar: Icircumflex
Encoding: 206 206 121
Width: 352
GlyphClass: 1
Flags: W
HStem: -12.7279 21G<119.469 232.488> 692.52 20G<184.76 232.239>
VStem: 119.802 112.685<0 649.732>
LayerCount: 2
Fore
SplineSet
237.560929873 853.75390625 m 1
 334.976945499 747.772460938 l 1
 322.249023438 735.044538877 l 1
 224.833007812 735.044538877 l 1
 213.371856397 746.4758587 208.831560159 751.110991568 189.165822028 772.745300356 c 0
 184.837415199 777.506987371 180.50900837 782.268674386 176.141285072 786.991044933 c 1
 171.802451589 782.302201989 167.501224499 777.575752652 163.199997409 772.849303314 c 0
 148.470383165 756.663509348 142.434062536 750.030433939 127.416992188 735.044538877 c 1
 30.0009765625 735.044538877 l 1
 17.2730545012 747.772460938 l 1
 114.689070127 853.75390625 l 1
 127.416992188 866.481828311 l 1
 224.833007812 866.481828311 l 1
 237.560929873 853.75390625 l 1
119.469343564 2.74519990074e-15 m 2
 119.473906924 0.502246168166 119.550264596 38.6155916023 119.802351377 50.2255859375 c 2
 119.802351377 649.732421875 l 1
 132.530273438 662.460343936 l 1
 219.510742188 712.519914249 l 1
 232.238664249 699.791992188 l 1
 232.030656436 649.732421875 l 1
 232.487687686 8.06646416329e-17 l 1
 219.759765625 -12.7279220614 l 1
 132.197265625 -12.7279220614 l 1
 119.469343564 2.74519990074e-15 l 2
EndSplineSet
EndChar

StartChar: Idieresis
Encoding: 207 207 122
Width: 340
GlyphClass: 1
Flags: W
HStem: -12.7279 21G<113.649 161.098> 692.561 20G<178.993 226.459> 729.14 127.861<30.001 132.406 208.036 310.441>
VStem: 17.2731 127.861<741.868 844.273> 113.981 112.229<49.9346 667.157> 195.308 127.861<741.868 844.273>
LayerCount: 2
Fore
SplineSet
113.649031064 2.74519990074e-15 m 2xe8
 113.65316258 0.502249842907 113.787808679 38.5446927979 113.981062449 50.2255860732 c 2
 113.981062449 649.732421875 l 1
 118.224572011 653.974519163 122.467115133 658.217582891 126.709960938 662.460343936 c 1
 213.731445312 712.560929873 l 1
 226.459367373 699.833007812 l 1
 226.210343936 649.732421875 l 1
 226.210343936 49.9345703125 l 1
 213.482421875 37.2066482512 l 1
 213.06640625 37.2066482512 l 1
 126.376953125 -12.7279220614 l 1
 113.649031064 2.74519990074e-15 l 2xe8
132.40625 729.140242001 m 1
 30.0009765625 729.140242001 l 1
 17.2730545012 741.868164062 l 1
 17.2730545012 844.2734375 l 1xf0
 30.0009765625 857.001359561 l 1
 132.40625 857.001359561 l 1
 145.134172061 844.2734375 l 1
 145.134172061 741.868164062 l 1
 132.40625 729.140242001 l 1
310.44140625 729.140242001 m 1
 208.036132812 729.140242001 l 1
 195.308210751 741.868164062 l 1
 195.308210751 844.2734375 l 1
 208.036132812 857.001359561 l 1
 310.44140625 857.001359561 l 1
 323.169328311 844.2734375 l 1
 323.169328311 741.868164062 l 1xe4
 310.44140625 729.140242001 l 1
EndSplineSet
EndChar

StartChar: Ntilde
Encoding: 209 209 123
Width: 407
GlyphClass: 1
Flags: W
HStem: -12.6869 20.958G<59.7223 159.639 234.556 334.431> 693.143 20G<59.6393 107.004 160.292 281.821>
VStem: 59.7223 112.644<0.207031 644.685> 234.556 112.602<0.207031 650.106>
LayerCount: 2
Fore
SplineSet
182.0078125 772.963484189 m 1
 88 744.898054501 l 2
 87.2932620839 745.573488928 37.6339374773 792.020952961 17.2711013762 812.383789062 c 1
 29.9990234375 825.111711123 l 1
 106.54296875 847.895890811 l 1
 223.501953125 819.996476749 l 1
 223.958984375 819.539445499 l 1
 318.797851562 847.853898623 l 2
 319.5045958 847.178061001 369.164171712 800.689726912 389.526750186 780.327148438 c 1
 376.798828125 767.599226377 l 1
 300.254882812 744.856062314 l 1
 300.254882812 744.856062314 268.339539781 752.423627836 268.115234375 752.423445127 c 2
 182.0078125 772.963484189 l 1
116.569328607 687.619516294 m 1
 126.606205096 693.668973496 160.073022717 712.886477636 160.51171875 713.142961123 c 2
 247.159179688 713.142961123 l 1
 334.34765625 662.834367373 l 1
 347.075578311 650.106445312 l 1
 347.158586123 0.20703125 l 1
 334.430664062 -12.5208908114 l 1
 247.284179688 -12.7288986239 l 1
 234.556257627 -0.000976562499997 l 1
 234.434832592 680.383331276 l 1
 172.242636691 644.68495955 l 1
 172.366593936 0.20703125 l 1
 159.638671875 -12.5208908114 l 1
 72.4501953125 -12.6869064364 l 1
 59.7222732512 0.041015625 l 1
 59.6392654387 700.415039062 l 1
 72.3671875 713.142961123 l 1
 116.569328607 687.619516294 l 1
EndSplineSet
EndChar

StartChar: Ograve
Encoding: 210 210 124
Width: 356
GlyphClass: 1
Flags: W
HStem: -12.7279 21G<66.5469 274.189> 691.897 20G<118.42 338.76>
VStem: 53.819 111.937<20.0736 643.816> 226.823 111.937<55.3168 679.089>
LayerCount: 2
Fore
SplineSet
239.758289956 711.689358668 m 1
 326.032226562 711.896867373 l 1
 338.760148623 699.168945312 l 1
 338.760148623 49.9345703125 l 1
 326.032226562 37.2066482512 l 1
 239.55078125 -12.7279220614 l 1
 153.028320312 -12.7279220614 l 1
 66.546875 -12.5199142489 l 1
 53.8189529387 0.2080078125 l 1
 53.8189529387 649.192382812 l 1
 66.546875 661.920304873 l 1
 153.028320312 711.896867373 l 1
 239.55078125 711.896867373 l 1
 243.793421937 707.654226686 l 1
 239.758289956 711.689358668 l 1
281.211914062 733.673445127 m 1
 155.606445312 733.673445127 l 1
 30.0009765625 806.185163877 l 1
 17.2730545012 818.913085938 l 1
 30.0009765625 831.641007999 l 1
 155.606445312 831.641007999 l 1
 281.211914062 759.129289249 l 1
 293.939836123 746.401367188 l 1
 281.211914062 733.673445127 l 1
165.756242373 20.0735674836 m 1
 226.822859189 55.3168469517 l 1
 226.822859189 679.08920055 l 1
 165.756242373 643.816283451 l 1
 165.756242373 20.0735674836 l 1
EndSplineSet
EndChar

StartChar: Oacute
Encoding: 211 211 125
Width: 358
GlyphClass: 1
Flags: W
HStem: -12.7279 21G<30 237.658> 691.897 19.958G<81.8681 203.21 203.21 302.254>
VStem: 17.2721 111.978<20.0771 643.814> 190.276 111.978<55.3134 679.05>
LayerCount: 2
Fore
SplineSet
327.819335938 815.082624814 m 1
 202.213867188 742.570906064 l 1
 76.6083984375 742.570906064 l 1
 63.8804763762 755.298828125 l 1
 76.6083984375 768.026750186 l 1
 202.213867188 840.538468936 l 1
 327.819335938 840.538468936 l 1
 340.547257999 827.810546875 l 1
 327.819335938 815.082624814 l 1
203.210343346 711.64843809 m 1
 289.526367188 711.896867373 l 1
 302.254289249 699.168945312 l 1
 302.254289249 49.9345703125 l 1
 289.526367188 37.2066482512 l 1
 203.00390625 -12.7279220614 l 1
 116.522460938 -12.7279220614 l 1
 30 -12.5199142489 l 1
 17.2720779387 0.2080078125 l 1
 17.2720779387 649.192382812 l 1
 30 661.920304873 l 1
 116.522460938 711.854875186 l 1
 203.00390625 711.854875186 l 1
 203.210343346 711.64843809 l 1
129.250382999 20.0770513088 m 1
 190.275984189 55.3133631264 l 1
 190.275984189 679.049901816 l 1
 129.250382999 643.813589998 l 1
 129.250382999 20.0770513088 l 1
EndSplineSet
EndChar

StartChar: Ocircumflex
Encoding: 212 212 126
Width: 352
GlyphClass: 1
Flags: W
HStem: -12.7269 21G<46.3818 254.011> 691.898 20G<98.2254 219.592 219.592 318.636>
VStem: 33.6539 111.937<20.0807 643.853> 206.658 111.978<55.3536 679.096>
LayerCount: 2
Fore
SplineSet
219.59227691 711.690332651 m 1
 305.908203125 711.897843936 l 1
 318.636125186 699.169921875 l 1
 318.636125186 49.9775390625 l 1
 305.908203125 37.2496170012 l 1
 219.385742188 -12.7269454989 l 1
 132.86328125 -12.7269454989 l 1
 46.3818359375 -12.4779220614 l 1
 33.6539138762 0.25 l 1
 33.6539138762 649.234375 l 1
 46.3818359375 661.962297061 l 1
 132.86328125 711.896867373 l 1
 219.385742188 711.896867373 l 1
 219.59227691 711.690332651 l 1
145.591203311 20.080721324 m 1
 206.657820127 55.3536384237 l 1
 206.657820127 679.095521486 l 1
 145.591203311 643.852931265 l 1
 145.591203311 20.080721324 l 1
176.141285072 790.31819337 m 1
 171.802451589 785.629350426 167.501224499 780.902901089 163.199997409 776.176451751 c 0
 148.470383165 759.990657784 142.434062536 753.357582376 127.416992188 738.371687314 c 1
 30.0009765625 738.371687314 l 1
 17.2730545012 751.099609375 l 1
 114.689070127 857.081054688 l 1
 127.416992188 869.808976749 l 1
 224.833007812 869.808976749 l 1
 237.560929873 857.081054688 l 1
 334.976945499 751.099609375 l 1
 322.249023438 738.371687314 l 1
 224.833007812 738.371687314 l 1
 213.371856397 749.803007137 208.831560159 754.438140005 189.165822028 776.072448793 c 0
 184.837415199 780.834135808 180.50900837 785.595822823 176.141285072 790.31819337 c 1
EndSplineSet
EndChar

StartChar: Otilde
Encoding: 213 213 127
Width: 407
GlyphClass: 1
Flags: W
HStem: -12.7279 21G<73.7402 281.398> 691.855 20G<125.608 246.952 246.952 345.995>
VStem: 61.0123 111.978<20.0771 643.814> 234.016 111.978<55.3134 679.05>
LayerCount: 2
Fore
SplineSet
182.0078125 768.140242001 m 1
 88 740.074812314 l 2
 87.2932620839 740.750246741 37.6339374773 787.197710774 17.2711013762 807.560546875 c 1
 29.9990234375 820.288468936 l 1
 106.54296875 843.072648623 l 1
 145.562629323 833.806176384 184.519059035 824.476473283 223.501953125 815.173234561 c 1
 223.958984375 814.716203311 l 1
 318.797851562 843.030656436 l 2
 319.5045958 842.354818814 369.164171708 795.866484728 389.526750186 775.50390625 c 1
 376.798828125 762.775984189 l 1
 300.254882812 740.032820127 l 1
 300.254882812 740.032820127 268.339539781 747.600385648 268.115234375 747.600202939 c 2
 182.0078125 768.140242001 l 1
246.951649568 711.647366243 m 1
 333.266601562 711.854875186 l 1
 345.994523623 699.126953125 l 1
 345.994523623 49.9345703125 l 1
 333.266601562 37.2066482512 l 1
 246.744140625 -12.7279220614 l 1
 160.262695312 -12.7279220614 l 1
 73.740234375 -12.5199142489 l 1
 61.0123123137 0.2080078125 l 1
 61.0123123137 649.192382812 l 1
 73.740234375 661.920304873 l 1
 160.262695312 711.854875186 l 1
 246.744140625 711.854875186 l 1
 246.951649568 711.647366243 l 1
172.990617373 20.0770513087 m 1
 234.016218564 55.3133631265 l 1
 234.016218564 679.049901816 l 1
 172.990617373 643.813589998 l 1
 172.990617373 20.0770513087 l 1
EndSplineSet
EndChar

StartChar: Odieresis
Encoding: 214 214 128
Width: 340
GlyphClass: 1
Flags: W
HStem: -12.7269 21G<40.5205 248.174> 691.897 20G<92.3886 213.772 213.772 312.775> 740.16 127.861<30.001 132.406 208.036 310.441>
VStem: 17.2731 127.861<752.888 855.293> 27.7926 111.978<20.0807 643.853> 195.308 127.861<752.888 855.293> 200.838 111.937<55.3536 679.096>
LayerCount: 2
Fore
SplineSet
127.04296875 -12.7269454989 m 1xea
 40.5205078125 -12.4779220614 l 1
 27.7925857512 0.25 l 1
 27.7925857512 649.234375 l 1
 40.5205078125 661.962297061 l 1
 127.04296875 711.896867373 l 1
 213.565429688 711.896867373 l 1
 213.771964175 711.690332886 l 1
 300.046875 711.897843936 l 1
 312.774797061 699.169921875 l 1
 312.774797061 49.9775390625 l 1
 300.046875 37.2496170012 l 1
 213.565429688 -12.7269454989 l 1
 127.04296875 -12.7269454989 l 1xea
132.40625 740.159773251 m 1
 30.0009765625 740.159773251 l 1
 17.2730545012 752.887695312 l 1
 17.2730545012 855.29296875 l 1xf0
 30.0009765625 868.020890811 l 1
 132.40625 868.020890811 l 1
 145.134172061 855.29296875 l 1
 145.134172061 752.887695312 l 1
 132.40625 740.159773251 l 1
310.44140625 740.159773251 m 1
 208.036132812 740.159773251 l 1
 195.308210751 752.887695312 l 1
 195.308210751 855.29296875 l 1
 208.036132812 868.020890811 l 1
 310.44140625 868.020890811 l 1
 323.169328311 855.29296875 l 1
 323.169328311 752.887695312 l 1xe4
 310.44140625 740.159773251 l 1
139.770890811 20.080721324 m 1
 200.837507627 55.3536384237 l 1
 200.837507627 679.095521486 l 1xe2
 139.770890811 643.852931265 l 1
 139.770890811 20.080721324 l 1
EndSplineSet
EndChar

StartChar: Oslash
Encoding: 216 216 129
Width: 659
GlyphClass: 1
Flags: W
HStem: -12.7269 21G<17.2731 93.2455 220.925 428.583> 691.856 20G<272.793 394.136 394.136 493.179 565.347 641.279>
VStem: 208.197 111.978<20.078 147.278 244.27 290.254 387.217 643.815> 381.201 111.978<55.3143 368.179 465.171 511.155 608.144 679.051>
LayerCount: 2
Fore
SplineSet
17.2730545012 0.5 m 1
 208.196882627 244.26953125 l 1
 208.196882627 649.193359375 l 1
 220.924804688 661.921281436 l 1
 307.447265625 711.855851749 l 1
 393.928710938 711.855851749 l 1
 394.136121794 711.648440893 l 1
 480.451171875 711.896867373 l 1
 493.179093936 699.168945312 l 1
 493.179093936 608.144421489 l 1
 565.347273251 700.291015625 l 1
 578.075195312 713.018937686 l 1
 628.55078125 713.018937686 l 1
 641.278703311 700.291015625 l 1
 493.179093936 511.155273438 l 1
 493.179093936 49.935546875 l 1
 480.451171875 37.2076248137 l 1
 393.928710938 -12.7269454989 l 1
 307.447265625 -12.7269454989 l 1
 220.924804688 -12.5189376864 l 1
 208.196882627 0.208984375 l 1
 208.196882627 147.278341078 l 1
 93.2455001863 0.5 l 1
 80.517578125 -12.2279220614 l 1
 30.0009765625 -12.2279220614 l 1
 17.2730545012 0.5 l 1
381.200788877 55.314339689 m 1
 381.200788877 368.17857604 l 1
 320.175187686 290.25390625 l 1
 320.175187686 20.0780278712 l 1
 381.200788877 55.314339689 l 1
320.175187686 643.814566561 m 1
 320.175187686 387.216596876 l 1
 381.200788877 465.170898438 l 1
 381.200788877 679.050878379 l 1
 320.175187686 643.814566561 l 1
EndSplineSet
EndChar

StartChar: Ugrave
Encoding: 217 217 130
Width: 343
GlyphClass: 1
Flags: W
HStem: -12.7279 21G<48.6217 180.013> 692.77 20G<216.678 326.162>
VStem: 48.6217 109.484<61.2494 651.646> 216.678 109.484<61.2494 700.042>
LayerCount: 2
Fore
SplineSet
48.7256912199 0.10400390625 m 1
 48.6216873137 0.2080078125 l 1
 48.6216873137 651.645507812 l 1
 61.349609375 664.373429873 l 1
 145.377929688 664.373429873 l 1
 158.105851749 651.645507812 l 1
 158.105851749 61.2494064363 l 1
 216.678327939 61.2494064363 l 1
 216.678327939 700.041992188 l 1
 229.40625 712.769914249 l 1
 313.434570312 712.769914249 l 1
 326.162492373 700.041992188 l 1
 326.162492373 48.521484375 l 1
 313.434570312 35.7935623137 l 1
 229.40625 35.7935623137 l 1
 145.377929688 -12.7279220614 l 1
 61.349609375 -12.7279220614 l 1
 48.6216873137 2.74519990074e-15 l 1
 52.8643280008 4.24264068712 l 1
 48.7256912199 0.10400390625 l 1
281.211914062 733.465437314 m 1
 155.606445312 733.465437314 l 1
 30.0009765625 805.977156064 l 1
 17.2730545012 818.705078125 l 1
 30.0009765625 831.433000186 l 1
 155.606445312 831.433000186 l 1
 281.211914062 758.921281436 l 1
 293.939836123 746.193359375 l 1
 281.211914062 733.465437314 l 1
EndSplineSet
EndChar

StartChar: Uacute
Encoding: 218 218 131
Width: 354
GlyphClass: 1
Flags: W
HStem: -12.7269 21G<17.2721 148.664> 692.813 20G<185.329 294.813>
VStem: 17.2721 109.484<61.2504 651.646> 185.329 109.484<61.2504 700.085>
LayerCount: 2
Fore
SplineSet
17.3965896574 0.12548828125 m 1
 17.2720779387 0.25 l 1
 17.2720779387 651.645507812 l 1
 30 664.373429873 l 1
 114.028320312 664.373429873 l 1
 126.756242373 651.645507812 l 1
 126.756242373 61.2503829988 l 1
 185.328718564 61.2503829988 l 1
 185.328718564 700.084960938 l 1
 198.056640625 712.812882999 l 1
 282.084960938 712.812882999 l 1
 294.812882999 700.084960938 l 1
 294.812882999 48.564453125 l 1
 282.084960938 35.8365310637 l 1
 198.056640625 35.7945388762 l 1
 114.028320312 -12.7269454989 l 1
 30 -12.7269454989 l 1
 17.2720779387 0.000976562500003 l 1
 21.5147186258 4.24361724962 l 1
 17.3965896574 0.12548828125 l 1
323.662109375 806.061140439 m 1
 198.056640625 733.549421689 l 1
 72.451171875 733.549421689 l 1
 59.7232498137 746.27734375 l 1
 72.451171875 759.005265811 l 1
 198.056640625 831.516984561 l 1
 323.662109375 831.516984561 l 1
 336.390031436 818.7890625 l 1
 323.662109375 806.061140439 l 1
EndSplineSet
EndChar

StartChar: Ucircumflex
Encoding: 219 219 132
Width: 352
GlyphClass: 1
Flags: W
HStem: -12.7279 21G<37.4371 168.829> 692.77 20G<205.494 314.978>
VStem: 37.4371 109.484<61.2494 651.604> 205.494 109.484<61.2494 700.042>
LayerCount: 2
Fore
SplineSet
37.5411209074 0.10400390625 m 1
 37.4371170012 0.2080078125 l 1
 37.4371170012 651.603515625 l 1
 50.1650390625 664.331437686 l 1
 134.193359375 664.331437686 l 1
 146.921281436 651.603515625 l 1
 146.921281436 61.2494064363 l 1
 205.493757627 61.2494064363 l 1
 205.493757627 700.041992188 l 1
 218.221679688 712.769914249 l 1
 302.25 712.769914249 l 1
 314.977922061 700.041992188 l 1
 314.977922061 48.521484375 l 1
 302.25 35.7935623137 l 1
 218.221679688 35.7935623137 l 1
 134.193359375 -12.7279220614 l 1
 50.1650390625 -12.7279220614 l 1
 37.4371170012 2.74519990074e-15 l 1
 41.6797576883 4.24264068712 l 1
 37.5411209074 0.10400390625 l 1
176.141285072 782.58381837 m 1
 171.802451589 777.894975426 167.501224499 773.168526089 163.199997409 768.442076751 c 0
 148.470383165 752.256282784 142.434062536 745.623207376 127.416992188 730.637312314 c 1
 30.0009765625 730.637312314 l 1
 17.2730545012 743.365234375 l 1
 114.689070127 849.346679688 l 1
 127.416992188 862.074601749 l 1
 224.833007812 862.074601749 l 1
 237.560929873 849.346679688 l 1
 335.018937686 743.365234375 l 1
 322.291015625 730.637312314 l 1
 224.833007812 730.637312314 l 1
 213.371856396 742.068632137 208.831560159 746.703765005 189.165822028 768.338073793 c 0
 184.837415199 773.099760808 180.50900837 777.861447823 176.141285072 782.58381837 c 1
EndSplineSet
EndChar

StartChar: Udieresis
Encoding: 220 220 133
Width: 340
GlyphClass: 1
Flags: W
HStem: -12.7279 21G<31.4498 162.872> 692.77 20G<199.506 308.991> 732.426 127.861<30 132.405 208.035 310.44>
VStem: 17.2721 127.861<745.154 847.56> 31.4498 109.484<61.2074 651.604> 195.307 127.861<745.154 847.56> 199.506 109.484<61.2074 700.042>
LayerCount: 2
Fore
SplineSet
31.5538162199 0.10400390625 m 1xea
 31.4498123137 0.2080078125 l 1
 31.4498123137 651.603515625 l 1
 44.177734375 664.331437686 l 1
 128.206054688 664.331437686 l 1
 140.933976749 651.603515625 l 1
 140.933976749 61.2074142488 l 1
 199.506452939 61.2074142488 l 1
 199.506452939 700.041992188 l 1
 212.234375 712.769914249 l 1
 296.262695312 712.769914249 l 1
 308.990617373 700.041992188 l 1
 308.990617373 48.521484375 l 1
 296.262695312 35.7935623137 l 1
 212.234375 35.7515701262 l 1
 128.206054688 -12.7279220614 l 1
 44.177734375 -12.7279220614 l 1
 31.4498123137 2.74519990074e-15 l 1
 35.6924530008 4.24264068712 l 1
 31.5538162199 0.10400390625 l 1xea
132.405273438 732.426374814 m 1
 30 732.426374814 l 1
 17.2720779387 745.154296875 l 1
 17.2720779387 847.559570312 l 1xf0
 30 860.287492373 l 1
 132.405273438 860.287492373 l 1
 145.133195499 847.559570312 l 1
 145.133195499 745.154296875 l 1
 132.405273438 732.426374814 l 1
310.440429688 732.426374814 m 1
 208.03515625 732.426374814 l 1
 195.307234189 745.154296875 l 1
 195.307234189 847.559570312 l 1
 208.03515625 860.287492373 l 1
 310.440429688 860.287492373 l 1
 323.168351749 847.559570312 l 1
 323.168351749 745.154296875 l 1xe4
 310.440429688 732.426374814 l 1
EndSplineSet
EndChar

StartChar: Yacute
Encoding: 221 221 134
Width: 376
GlyphClass: 1
Flags: W
HStem: -12.7279 21G<104.087 151.411> 693.642 20G<256.216 303.586>
VStem: 17.6461 112.053<406.319 652.685> 104.087 111.978<50.0176 337.313> 190.75 111.963<371.08 650.938>
LayerCount: 2
Fore
SplineSet
346.032226562 809.301374814 m 1xc0
 220.426757812 736.789656064 l 1
 94.8212890625 736.789656064 l 1
 82.0933670012 749.517578125 l 1
 94.8212890625 762.245500186 l 1
 220.426757812 834.757218936 l 1
 346.032226562 834.757218936 l 1
 358.760148623 822.029296875 l 1
 346.032226562 809.301374814 l 1xc0
104.903960235 345.161629186 m 1
 30.3740234375 388.204695127 l 1
 17.6461013762 400.932617188 l 1
 17.2720779387 702.661132812 l 1
 30 715.389054873 l 1
 116.564453125 665.412492373 l 1
 129.292375186 652.684570312 l 1
 129.699489882 406.319016907 l 1
 190.750406884 371.079931557 l 1
 191.566023251 650.9375 l 1
 204.293945312 663.665422061 l 1
 290.858398438 713.641984561 l 1
 303.586320499 700.9140625 l 1
 302.713273623 350.041015625 l 1xe8
 289.985351562 337.313093564 l 1
 216.941056399 337.313093564 l 1
 216.064836123 50.017578125 l 1
 203.336914062 37.2896560637 l 1
 116.814453125 -12.7279220614 l 1
 104.086531064 2.74519990074e-15 l 1xd0
 104.903960235 345.161629186 l 1
EndSplineSet
EndChar

StartChar: agrave
Encoding: 224 224 135
Width: 427
GlyphClass: 1
Flags: W
HStem: -12.6449 21G<49.7447 146.875 217.468 323.528> 499.807 20G<111.899 265.067>
VStem: 49.7447 109.11<61.7475 221.898 222.314 236.701 362.223 453.424> 217.468 109.11<61.7475 270.457 303.022 459.1>
LayerCount: 2
Fore
SplineSet
281.211914062 555.636335751 m 1
 155.606445312 555.636335751 l 1
 30.0009765625 628.148054501 l 1
 17.2730545012 640.875976562 l 1
 30.0009765625 653.603898623 l 1
 155.606445312 653.603898623 l 1
 281.211914062 581.092179873 l 1
 293.939836123 568.364257812 l 1
 281.211914062 555.636335751 l 1
158.854875186 61.7474533113 m 1
 217.468367001 61.7474533113 l 1
 217.468367001 270.457486517 l 1
 158.997859499 236.700993381 l 1
 159.270890811 222.314453125 l 1
 158.854875186 221.8984375 l 1
 158.854875186 61.7474533113 l 1
326.578507999 61.3322655912 m 1
 350.206635541 61.3322655912 373.834763083 61.3314376863 397.462890625 61.3314376863 c 1
 410.190812686 48.603515625 l 1
 397.462890625 35.8755935637 l 2
 396.627852967 35.3885229038 333.205490428 -1.06275566341 313.850585938 -12.6449142489 c 1
 230.196289062 -12.6449142489 l 1
 217.468367001 0.0830078125 l 1
 217.468367001 28.7305308176 l 1
 147 -11.9798751864 l 1
 146.875 -11.9798751864 l 1
 146.126953125 -12.7279220614 l 1
 62.47265625 -12.7279220614 l 1
 49.7447341887 2.74519990074e-15 l 1
 49.7867479059 242.022460934 l 1
 54.0293694316 246.265113607 58.2720122732 250.507744965 62.5146484375 254.750382999 c 1
 146.168945312 303.021867373 l 1
 217.468367001 303.021867373 l 1
 217.468367001 487.006718859 l 1
 159.269914249 453.424155768 l 1
 159.269914249 362.22265625 l 1
 146.541992188 349.494734189 l 1
 62.9296875 349.494734189 l 1
 50.2017654387 362.22265625 l 1
 50.2017654387 458.807617188 l 1
 62.9296875 471.535539249 l 1
 146.541992188 519.807023623 l 1
 230.196289062 519.807023623 l 1
 313.850585938 471.827531436 l 1
 326.578507999 459.099609375 l 1
 326.578507999 61.3322655912 l 1
EndSplineSet
EndChar

StartChar: aacute
Encoding: 225 225 136
Width: 395
GlyphClass: 1
Flags: W
HStem: -12.6459 21G<17.2701 114.358 184.994 291.053> 499.806 20G<79.4249 232.595>
VStem: 17.2701 109.07<61.7475 224.436 224.893 236.701 362.222 453.423> 184.996 109.11<61.7475 270.461 303.022 459.1>
LayerCount: 2
Fore
SplineSet
314.512695312 628.105085751 m 1
 188.907226562 555.593367001 l 1
 63.3017578125 555.593367001 l 1
 50.5738357512 568.321289062 l 1
 63.3017578125 581.049211123 l 1
 188.907226562 653.560929873 l 1
 314.512695312 653.560929873 l 1
 327.240617373 640.833007812 l 1
 314.512695312 628.105085751 l 1
126.340226749 61.7474533113 m 1
 184.995710751 61.7474533113 l 1
 184.995710751 270.460646059 l 1
 126.509770766 236.701149958 l 1
 126.797257999 224.892578125 l 1
 126.340226749 224.435546875 l 1
 126.340226749 61.7474533113 l 1
294.105851749 61.3321169266 m 1
 317.733328249 61.3321169266 341.36080475 61.3304611238 364.98828125 61.3304611238 c 1
 377.716203311 48.6025390625 l 1
 364.98828125 35.8746170012 l 2
 364.153243592 35.3875463413 300.730881045 -1.06373223021 281.375976562 -12.6458908114 c 1
 197.721679688 -12.6458908114 l 1
 184.993757627 0.08203125 l 1
 184.993757627 28.6948134734 l 1
 114.525390625 -11.9808517489 l 1
 114.358398437 -11.9808517489 l 1
 113.610351562 -12.7288986239 l 1
 29.998046875 -12.7288986239 l 1
 17.2701248137 -0.000976562499997 l 1
 17.3121170012 241.98046875 l 1
 30.0400390625 254.708390811 l 1
 113.653320312 303.021867373 l 1
 184.995710751 303.021867373 l 1
 184.995710751 487.006869319 l 1
 126.795304873 453.423179205 l 1
 126.795304873 362.221679688 l 1
 114.067382812 349.493757627 l 1
 30.455078125 349.493757627 l 1
 17.7271560637 362.221679688 l 1
 17.7271560637 458.806640625 l 1
 30.455078125 471.534562686 l 1
 114.067382812 519.806047061 l 1
 197.723632812 519.806047061 l 1
 281.377929688 471.827531436 l 1
 294.105851749 459.099609375 l 1
 294.105851749 61.3321169266 l 1
EndSplineSet
EndChar

StartChar: acircumflex
Encoding: 226 226 137
Width: 399
GlyphClass: 1
Flags: W
HStem: -12.6449 21G<21.3873 118.476 189.111 295.171> 499.807 20G<83.542 236.711>
VStem: 21.3873 109.069<61.7475 222.439 222.896 236.706 362.223 453.424> 189.112 109.11<61.7475 270.462 303.022 459.1>
LayerCount: 2
Fore
SplineSet
130.456437686 61.7474533113 m 1
 189.111921689 61.7474533113 l 1
 189.111921689 270.461618321 l 1
 130.613099306 236.705731342 l 1
 130.913468936 222.896484375 l 1
 130.456437686 222.439453125 l 1
 130.456437686 61.7474533113 l 1
176.139331948 607.499833995 m 1
 171.800498486 602.810991075 167.499271417 598.084541761 163.198044348 593.358092447 c 0
 148.468430013 577.172298381 142.432109409 570.539223 127.415039062 555.553327939 c 1
 29.9990234375 555.553327939 l 1
 17.2711013762 568.28125 l 1
 114.687117001 674.262695312 l 1
 127.415039062 686.990617373 l 1
 224.831054688 686.990617373 l 1
 237.558976749 674.262695312 l 1
 334.974992373 568.28125 l 1
 322.247070312 555.553327939 l 1
 224.831054688 555.553327939 l 1
 213.369903272 566.984647762 208.829607035 571.61978063 189.163868904 593.254089418 c 0
 184.835462075 598.015776433 180.507055245 602.777463448 176.139331948 607.499833995 c 1
118.184570312 349.494734189 m 1
 34.572265625 349.494734189 l 1
 21.8443435637 362.22265625 l 1
 21.8443435637 458.807617188 l 1
 34.572265625 471.535539249 l 1
 118.184570312 519.807023623 l 1
 201.83984375 519.807023623 l 1
 285.494140625 471.827531436 l 1
 298.222062686 459.099609375 l 1
 298.222062686 61.3322655895 l 1
 321.849864707 61.3322655895 345.477666729 61.3314376863 369.10546875 61.3314376863 c 1
 381.833390811 48.603515625 l 1
 369.10546875 35.8755935637 l 2
 368.270431092 35.3885229038 304.848068545 -1.06275566771 285.493164062 -12.6449142489 c 1
 201.838867188 -12.6449142489 l 1
 189.110945127 0.0830078125 l 1
 189.110945127 28.6957900359 l 1
 118.642578125 -11.9798751864 l 1
 118.475585937 -11.9798751864 l 1
 117.727539062 -12.7279220614 l 1
 34.115234375 -12.7279220614 l 1
 21.3873123137 2.74519990074e-15 l 1
 21.4293260309 242.022460934 l 1
 25.6719475566 246.265113607 29.9145903982 250.507744965 34.1572265625 254.750382999 c 1
 117.76953125 303.021867373 l 1
 189.111921689 303.021867373 l 1
 189.111921689 487.00728237 l 1
 130.912492373 453.424155768 l 1
 130.912492373 362.22265625 l 1
 118.184570312 349.494734189 l 1
EndSplineSet
EndChar

StartChar: atilde
Encoding: 227 227 138
Width: 431
GlyphClass: 1
Flags: W
HStem: -12.6459 21G<53.0289 150.117 220.753 326.812> 499.806 20G<115.184 268.352>
VStem: 53.0289 109.068<61.7475 236.63 362.222 453.423> 220.753 109.11<61.7475 270.461 303.022 459.1>
LayerCount: 2
Fore
SplineSet
182.006835938 597.919538877 m 1
 87.9990234375 569.853132627 l 2
 87.2922791999 570.528970249 37.6327032872 617.017304339 17.2701248137 637.379882812 c 1
 29.998046875 650.107804873 l 1
 106.541992188 672.850968936 l 1
 145.575951438 663.599120895 184.519584652 654.256946817 223.500976562 644.952531436 c 1
 223.958007812 644.495500186 l 1
 318.796875 672.809953311 l 2
 319.503619238 672.134115689 369.163195141 625.645781607 389.525773623 605.283203125 c 1
 376.797851562 592.555281064 l 1
 300.25390625 569.812117001 l 1
 300.25390625 569.812117001 268.338563222 577.379682523 268.114257812 577.379499814 c 2
 182.006835938 597.919538877 l 1
162.097062686 61.7474533113 m 1
 220.752546689 61.7474533113 l 1
 220.752546689 270.461054809 l 1
 162.122698922 236.629561557 l 1
 162.097062686 228.176757812 l 1
 162.097062686 61.7474533113 l 1
329.862687686 61.3321169335 m 1
 353.490815228 61.3321169335 377.11894277 61.3304611238 400.747070312 61.3304611238 c 1
 413.474992373 48.6025390625 l 1
 400.747070312 35.8746170012 l 2
 399.912032654 35.3875463413 336.489670115 -1.06373222591 317.134765625 -12.6458908114 c 1
 233.48046875 -12.6458908114 l 1
 220.752546689 0.08203125 l 1
 220.752546689 28.7295542551 l 1
 150.284179688 -11.9808517489 l 1
 150.1171875 -11.9808517489 l 1
 149.369140625 -12.7288986239 l 1
 65.7568359375 -12.7288986239 l 1
 53.0289138762 -0.000976562499997 l 1
 53.0709060637 242.022460938 l 1
 65.798828125 254.750382999 l 1
 149.411132812 303.021867373 l 1
 220.752546689 303.021867373 l 1
 220.752546689 487.005742297 l 1
 162.554093936 453.423179205 l 1
 162.554093936 362.221679688 l 1
 149.826171875 349.493757627 l 1
 66.2138671875 349.493757627 l 1
 53.4859451262 362.221679688 l 1
 53.4859451262 458.806640625 l 1
 66.2138671875 471.534562686 l 1
 149.826171875 519.806047061 l 1
 233.48046875 519.806047061 l 1
 317.134765625 471.827531436 l 1
 329.862687686 459.099609375 l 1
 329.862687686 61.3321169335 l 1
EndSplineSet
EndChar

StartChar: adieresis
Encoding: 228 228 139
Width: 397
GlyphClass: 1
Flags: W
HStem: -12.7279 21.083G<19.6832 116.813 187.407 293.467> 499.807 20G<81.8379 235.006> 552.269 127.861<29.999 132.404 208.034 310.439>
VStem: 17.2711 127.861<564.997 667.402> 19.6832 109.11<61.7475 236.618 362.223 453.424> 187.407 109.11<61.7475 270.457 303.022 459.1> 195.306 127.861<564.997 667.402>
LayerCount: 2
Fore
SplineSet
132.404296875 552.269148251 m 1xf0
 29.9990234375 552.269148251 l 1
 17.2711013762 564.997070312 l 1
 17.2711013762 667.40234375 l 1
 29.9990234375 680.130265811 l 1
 132.404296875 680.130265811 l 1
 145.132218936 667.40234375 l 1
 145.132218936 564.997070312 l 1
 132.404296875 552.269148251 l 1xf0
310.439453125 552.269148251 m 1
 208.034179688 552.269148251 l 1
 195.306257627 564.997070312 l 1
 195.306257627 667.40234375 l 1
 208.034179688 680.130265811 l 1
 310.439453125 680.130265811 l 1
 323.167375186 667.40234375 l 1
 323.167375186 564.997070312 l 1xe2
 310.439453125 552.269148251 l 1
128.793351749 61.7474533113 m 1
 187.406843564 61.7474533113 l 1
 187.406843564 270.457466109 l 1xe4
 128.793351749 236.61832739 l 1
 128.793351749 61.7474533113 l 1
116.48046875 349.494734189 m 1
 32.8681640625 349.494734189 l 1
 20.1402420012 362.22265625 l 1
 20.1402420012 458.807617188 l 1
 32.8681640625 471.535539249 l 1
 116.48046875 519.807023623 l 1
 200.134765625 519.807023623 l 1
 283.7890625 471.827531436 l 1
 296.516984561 459.099609375 l 1
 296.516984561 61.3322655912 l 1
 320.145112103 61.3322655912 343.773239646 61.3314376863 367.401367188 61.3314376863 c 1
 380.129289249 48.603515625 l 1
 367.401367188 35.8755935637 l 2
 366.56632953 35.3885229038 303.143966983 -1.06275566771 283.7890625 -12.6449142489 c 1
 200.134765625 -12.6449142489 l 1
 187.406843564 0.0830078125 l 1
 187.406843564 28.6957900359 l 1
 116.938476562 -11.9798751864 l 1
 116.813476563 -11.9798751864 l 1
 116.065429688 -12.7279220614 l 1
 32.4111328125 -12.7279220614 l 1
 19.6832107512 2.74519990074e-15 l 1xec
 19.7252244684 242.022460934 l 1
 23.9678459941 246.265113607 28.2104888357 250.507744965 32.453125 254.750382999 c 1
 116.065429688 303.021867373 l 1
 187.406843564 303.021867373 l 1
 187.406843564 487.006718859 l 1
 129.208390811 453.424155768 l 1
 129.208390811 362.22265625 l 1
 116.48046875 349.494734189 l 1
EndSplineSet
EndChar

StartChar: aring
Encoding: 229 229 140
Width: 395
GlyphClass: 1
Flags: W
HStem: -12.6859 21G<17.2721 114.402 184.996 281.722> 499.809 20G<79.4569 114.989>
VStem: 17.2721 109.11<61.7475 236.619 362.225 453.391> 112.235 55.2672<547.188 633.277> 171.898 55.2674<549.723 635.814> 184.996 109.11<61.7475 270.458 303.023 459.1>
LayerCount: 2
Fore
SplineSet
126.382218936 61.7474533113 m 1xc4
 184.995710751 61.7474533113 l 1
 184.995710751 270.458442672 l 1
 126.382218936 236.619303951 l 1
 126.382218936 61.7474533113 l 1xc4
281.377929688 -12.6859298739 m 2
 197.723632812 -12.6859298739 l 1
 184.995710751 0.0419921875 l 1
 184.995710751 28.6957900359 l 1
 114.52734375 -11.9798751864 l 1
 114.40234375 -11.9798751864 l 1
 113.654296875 -12.7279220614 l 1
 30 -12.7279220614 l 1
 17.2720779387 2.74519990074e-15 l 1
 17.3140701262 241.981445312 l 1
 30.0419921875 254.709367373 l 1
 113.654296875 303.022843936 l 1
 184.995710751 303.022843936 l 1
 184.995710751 487.002282913 l 1xe4
 126.797257999 453.390505777 l 1
 126.797257999 362.224609375 l 1
 114.069335938 349.496687314 l 1
 30.45703125 349.496687314 l 1
 17.7291091887 362.224609375 l 1
 17.7291091887 458.767578125 l 1
 30.45703125 471.495500186 l 1
 114.069335938 519.808976749 l 2
 115.909300243 519.808976749 117.749264549 519.808825647 119.589228854 519.808825647 c 1
 112.234968564 527.163085938 l 1
 112.234968564 638.756835938 l 1
 124.962890625 651.484757999 l 1
 125.12890625 651.484757999 l 1
 154.940429688 668.697648623 l 1
 184.79296875 668.697648623 l 1
 184.79296875 668.697648623 184.807448927 668.683168447 184.834725714 668.65589166 c 2
 214.4375 668.697648623 l 1
 227.165422061 655.969726562 l 1
 227.165422061 544.333984375 l 1xd8
 214.4375 531.606062314 l 1
 194.001982782 519.806788671 l 1
 195.243296131 519.806788671 196.484609481 519.806686732 197.72592283 519.806686732 c 2
 281.377929688 471.827531436 l 1
 294.105851749 459.099609375 l 1
 294.105851749 61.3324142488 l 1
 364.990234375 61.3324142488 l 1
 377.718156436 48.6044921875 l 1
 364.990234375 35.8765701262 l 1
 282.066439091 -11.9974204705 282.066439091 -11.9974204705 281.377929688 -12.6859298739 c 2
171.898054501 549.723022133 m 1xd8
 171.898054501 635.814460333 l 1
 167.501407493 633.277482632 l 1
 167.501407493 604.581109081 167.50216058 575.88473553 167.50216058 547.188361979 c 1
 171.898054501 549.723022133 l 1xd8
EndSplineSet
EndChar

StartChar: ae
Encoding: 230 230 141
Width: 480
GlyphClass: 1
Flags: W
HStem: -12.5619 20.834G<17.2721 114.402 184.996 281.457 281.457 399.679> 499.891 20G<79.4278 232.578 246.774 282.335 282.335 401.219>
VStem: 17.2721 109.11<61.8305 236.701 362.307 453.508> 184.996 109.584<20.1082 28.7788 61.8305 245.838 303.105 487.09> 353.885 109.151<278.367 453.337>
LayerCount: 2
Fore
SplineSet
353.885359189 278.366593936 m 1
 353.885359189 446.084960938 l 1
 353.86126537 453.337200051 l 1
 294.335789836 487.715382339 l 1
 294.119829266 278.366593936 l 1
 353.885359189 278.366593936 l 1
126.382218936 61.8304611238 m 1
 184.995710751 61.8304611238 l 1
 184.995710751 270.540473922 l 1
 126.382218936 236.701335201 l 1
 126.382218936 61.8304611238 l 1
184.995710751 303.104875186 m 1
 184.995710751 487.090139724 l 1
 126.798234561 453.508140142 l 1
 126.798234561 362.306640625 l 1
 114.0703125 349.578718564 l 1
 30.4580078125 349.578718564 l 1
 17.7300857512 362.306640625 l 1
 17.7300857512 458.891601562 l 1
 30.4580078125 471.619523623 l 1
 114.0703125 519.891007999 l 1
 197.725924279 519.891007999 l 1
 239.67578125 495.817765811 l 1
 281.627929688 519.891007999 l 1
 282.334960938 519.183976749 l 1
 282.916992188 519.766007999 l 1
 366.571289062 519.766007999 l 1
 450.266601562 471.453507999 l 1
 454.509241056 467.210873347 458.751869814 462.968227959 462.994501935 458.725585934 c 1
 463.036515811 216.577148438 l 1
 450.30859375 203.849226377 l 1
 366.61328125 203.849226377 l 1
 365.865234376 204.597273251 l 1
 365.740234375 204.597273251 l 1
 294.296834333 245.838281026 l 1
 294.579679105 20.1082459851 l 1
 365.032226562 61.0413986238 l 1
 448.727539062 61.0413986238 l 1
 461.455461123 48.3134765625 l 1
 448.727539062 35.5855545012 l 1
 365.032226562 -12.7279220614 l 1
 281.876953125 -12.7279220614 l 1
 281.456885189 -12.4829509358 l 1
 281.377929688 -12.5619064364 l 1
 197.723632812 -12.5619064364 l 1
 184.995710751 0.166015625 l 1
 184.995710751 28.7787978484 l 1
 114.52734375 -11.8968673739 l 1
 114.40234375 -11.8968673739 l 1
 113.654296875 -12.6449142489 l 1
 30 -12.6449142489 l 1
 17.2720779387 0.0830078125 l 1
 17.3140916559 242.105468746 l 1
 21.5567131816 246.348121419 25.7993560232 250.590752777 30.0419921875 254.833390811 c 1
 113.654296875 303.104875186 l 1
 184.995710751 303.104875186 l 1
EndSplineSet
EndChar

StartChar: ccedilla
Encoding: 231 231 142
Width: 311
GlyphClass: 1
Flags: W
HStem: 498.559 20G<79.0748 114.11>
VStem: 17.2721 108.943<47.3965 457.31> 110.697 73.1043<-48.9795 -14.06>
LayerCount: 2
Fore
SplineSet
183.801164249 -14.0599533114 m 1xa0
 183.801164249 -48.9794921875 l 1
 146.880265811 -97.9990234375 l 1
 134.15234375 -110.726945499 l 1
 102.178710938 -110.726945499 l 1
 89.4507888767 -97.9990234375 l 1
 110.696882627 -48.9794921875 l 1
 110.696882627 -12.4312850304 l 1xa0
 30 34.6685623137 l 1
 17.2720779387 47.396484375 l 1
 17.2720779387 457.309570312 l 1xc0
 30 470.037492373 l 1
 113.487304688 518.558976749 l 1
 114.110351564 517.935929873 l 1
 197.017578125 517.935929873 l 1
 280.504882812 469.747453311 l 1
 293.232804873 457.01953125 l 1
 280.504882812 444.291609189 l 1
 197.017578125 444.291609189 l 1
 126.215226749 485.137846107 l 1
 126.215226749 18.7386079929 l 1
 197.017578125 59.5843673738 l 1
 280.504882812 59.5843673738 l 1
 293.232804873 46.8564453125 l 1
 280.504882812 34.1285232512 l 1
 197.017578125 -14.0599533114 l 1
 183.801164249 -14.0599533114 l 1xa0
EndSplineSet
EndChar

StartChar: egrave
Encoding: 232 232 143
Width: 342
GlyphClass: 1
Flags: W
HStem: -12.7279 21G<108.911 261.683> 499.892 19.875G<108.774 144.338 144.338 263.246>
VStem: 47.0416 109.542<48.1055 245.839 278.368 459.142> 215.888 109.151<278.368 453.345>
LayerCount: 2
Fore
SplineSet
324.998408689 458.725585934 m 1
 325.039445499 216.578125 l 1
 312.311523438 203.850202939 l 1
 228.616210938 203.850202939 l 1
 227.868164063 204.598249814 l 1
 227.743164062 204.598249814 l 1
 156.300740065 245.838694162 l 1
 156.583585355 20.1082459851 l 1
 227.036132812 61.0413986238 l 1
 310.731445312 61.0413986238 l 1
 323.459367373 48.3134765625 l 1
 310.731445312 35.5855545012 l 1
 227.036132812 -12.7279220614 l 1
 143.880859375 -12.7279220614 l 1
 59.76953125 35.3775466887 l 1
 47.0416091887 48.10546875 l 1
 46.9996170012 265.639648438 l 1
 47.2076248137 459.141601562 l 1
 59.935546875 471.869523623 l 1
 143.630859375 519.891984561 l 1
 144.338378906 519.18446503 l 1
 144.920898438 519.766984561 l 1
 228.616210938 519.766984561 l 1
 312.270507812 471.453507999 l 1
 316.513147334 467.210873207 320.755776369 462.968227928 324.998408689 458.725585934 c 1
281.211914062 566.364851377 m 1
 155.606445312 566.364851377 l 1
 30.0009765625 638.876570127 l 1
 17.2730545012 651.604492188 l 1
 30.0009765625 664.332414249 l 1
 155.606445312 664.332414249 l 1
 281.211914062 591.820695499 l 1
 293.939836123 579.092773438 l 1
 281.211914062 566.364851377 l 1
215.888288877 278.367570499 m 1
 215.888288877 453.344911241 l 1
 156.338723437 487.720152198 l 1
 156.122758954 278.367570499 l 1
 215.888288877 278.367570499 l 1
EndSplineSet
EndChar

StartChar: eacute
Encoding: 233 233 144
Width: 326
GlyphClass: 1
Flags: W
HStem: -12.7289 21G<79.1838 231.955> 499.765 20G<79.0637 114.611 114.611 233.521>
VStem: 17.3141 109.545<48.1045 245.835 278.366 459.141> 186.203 109.11<278.366 453.329>
LayerCount: 2
Fore
SplineSet
295.514648438 638.875593564 m 1
 169.909179688 566.363874814 l 1
 44.3037109375 566.363874814 l 1
 31.5757888762 579.091796875 l 1
 44.3037109375 591.819718936 l 1
 169.909179688 664.331437686 l 1
 295.514648438 664.331437686 l 1
 308.242570499 651.603515625 l 1
 295.514648438 638.875593564 l 1
114.611328125 519.183000186 m 1
 115.193359375 519.765031436 l 1
 198.888671875 519.765031436 l 1
 282.544200947 471.454665142 l 1
 286.786841634 467.212024455 l 1
 286.786841634 467.212024455 295.270890811 458.724609375 295.312882999 458.599609375 c 2
 295.312882999 216.576171875 l 1
 282.584960938 203.848249814 l 1
 198.930664062 203.848249814 l 1
 198.182617187 204.596296689 l 1
 198.015625 204.596296689 l 1
 126.612048426 245.834525353 l 1
 126.859221491 20.1091142228 l 1
 197.30859375 61.0404220613 l 1
 281.00390625 61.0404220613 l 1
 293.731828311 48.3125 l 1
 281.00390625 35.5845779387 l 1
 197.30859375 -12.7288986239 l 1
 114.153320312 -12.7288986239 l 1
 30.0419921875 35.3765701262 l 1
 17.3140701262 48.1044921875 l 1
 17.2720779387 265.638671875 l 1
 17.5211013762 459.140625 l 1
 30.2490234375 471.868547061 l 1
 113.903320312 519.891007999 l 1
 114.611328125 519.183000186 l 1
186.202742001 278.365617373 m 1
 186.202742001 449.369140625 l 1
 186.184966341 453.328979022 l 1
 126.614485561 487.716293449 l 1
 126.434093341 278.365617373 l 1
 186.202742001 278.365617373 l 1
EndSplineSet
EndChar

StartChar: ecircumflex
Encoding: 234 234 145
Width: 352
GlyphClass: 1
Flags: W
HStem: -12.7279 21G<97.1397 249.942> 499.725 20G<97.0495 132.614 132.614 251.498>
VStem: 35.276 109.584<48.0635 245.834 278.367 459.141> 204.165 109.151<278.367 453.279>
LayerCount: 2
Fore
SplineSet
176.142261635 618.269365245 m 1
 171.803428172 613.580522323 167.502201102 608.854073008 163.200974032 604.127623693 c 0
 148.471359699 587.941829628 142.435039095 581.308754248 127.41796875 566.322859189 c 1
 30.001953125 566.322859189 l 1
 17.2740310637 579.05078125 l 1
 114.690046689 685.032226562 l 1
 127.41796875 697.760148623 l 1
 224.833984375 697.760148623 l 1
 237.561906436 685.032226562 l 1
 334.977922061 579.05078125 l 1
 322.25 566.322859189 l 1
 224.833984375 566.322859189 l 1
 213.372832959 577.754179012 208.832536721 582.389311881 189.166798591 604.023620668 c 0
 184.838391762 608.785307683 180.509984933 613.546994698 176.142261635 618.269365245 c 1
132.613769532 519.183488467 m 1
 133.155273438 519.724992373 l 1
 216.850585938 519.724992373 l 1
 300.546875 471.411515811 l 1
 304.789515687 467.168875124 l 1
 304.789515687 467.168875124 313.274797061 458.68359375 313.315812686 458.55859375 c 2
 313.315812686 216.577148438 l 1
 300.587890625 203.849226377 l 1
 216.892578125 203.849226377 l 1
 216.144531251 204.597273251 l 1
 215.977539062 204.597273251 l 1
 144.577113534 245.833682069 l 1
 144.859952542 20.108245985 l 1
 215.3125 61.0413986238 l 1
 298.966796875 61.0413986238 l 1
 311.694718936 48.3134765625 l 1
 298.966796875 35.5855545012 l 1
 215.3125 -12.7279220614 l 1
 132.157226562 -12.7279220614 l 1
 48.00390625 35.3355545012 l 1
 35.2759841887 48.0634765625 l 1
 35.2339920012 265.638671875 l 1
 35.4830154387 459.140625 l 1
 48.2109375 471.868547061 l 1
 131.90625 519.891007999 l 1
 132.613769532 519.183488467 l 1
204.164656064 278.366593936 m 1
 204.164656064 453.278678884 l 1
 144.614047366 487.654522065 l 1
 144.398149578 278.366593936 l 1
 204.164656064 278.366593936 l 1
EndSplineSet
EndChar

StartChar: igrave
Encoding: 236 236 146
Width: 311
GlyphClass: 1
Flags: W
HStem: -12.7269 21G<133.319 243.588> 500.889 20G<196.385 243.755>
VStem: 120.591 122.997<0.166992 323.969 324.056 412.242 412.449 451.823>
LayerCount: 2
Fore
SplineSet
243.755265811 508.161132812 m 1
 243.547521519 412.448955231 l 1
 243.754289249 412.2421875 l 1
 243.588273623 372.619140625 l 1
 243.588273623 0.0009765625 l 1
 230.860351562 -12.7269454989 l 1
 133.319335938 -12.5609298739 l 1
 120.591413877 0.1669921875 l 1
 120.591413877 323.969158863 l 1
 120.504902879 324.055669861 l 1
 120.716413877 451.823242188 l 1
 133.444335938 464.551164249 l 1
 231.02734375 520.889054873 l 1
 243.755265811 508.161132812 l 1
281.2109375 556.137312314 m 1
 155.60546875 556.137312314 l 1
 30 628.649031064 l 1
 17.2720779387 641.376953125 l 1
 30 654.104875186 l 1
 155.60546875 654.104875186 l 1
 281.2109375 581.593156436 l 1
 293.938859561 568.865234375 l 1
 281.2109375 556.137312314 l 1
EndSplineSet
EndChar

StartChar: iacute
Encoding: 237 237 147
Width: 311
GlyphClass: 1
Flags: W
HStem: -12.7279 21G<89.207 199.518> 500.889 20G<152.288 199.643>
VStem: 76.4791 123.039<0.166016 383.054 383.179 405.007 405.172 451.823>
LayerCount: 2
Fore
SplineSet
89.373046875 464.551164249 m 1
 186.915039062 520.889054873 l 1
 199.642961123 508.161132812 l 1
 199.47734531 405.172451751 l 1
 199.642961123 405.006835938 l 1
 199.642961123 383.178710938 l 1
 199.517961123 383.053710938 l 1
 199.517961123 8.06646416329e-17 l 1
 186.790039062 -12.7279220614 l 1
 89.20703125 -12.5619064364 l 1
 76.4791091887 0.166015625 l 1
 76.4340042725 347.795898034 l 1
 76.6451248137 451.823242188 l 1
 89.373046875 464.551164249 l 1
281.212890625 628.648054501 m 1
 155.607421875 556.136335751 l 1
 30.001953125 556.136335751 l 1
 17.2740310637 568.864257812 l 1
 30.001953125 581.592179873 l 1
 155.607421875 654.103898623 l 1
 281.212890625 654.103898623 l 1
 293.940812686 641.375976562 l 1
 281.212890625 628.648054501 l 1
EndSplineSet
EndChar

StartChar: icircumflex
Encoding: 238 238 148
Width: 352
GlyphClass: 1
Flags: W
HStem: -12.7279 21G<121.471 231.782> 500.847 20G<184.55 231.906>
VStem: 108.743 123.039<0.125 451.782>
LayerCount: 2
Fore
SplineSet
121.63671875 464.510148623 m 1
 219.177734375 520.847062686 l 1
 231.905656436 508.119140625 l 1
 231.781632999 412.44921875 l 1
 231.781632999 8.06646416329e-17 l 1
 219.053710938 -12.7279220614 l 1
 121.470703125 -12.6029220614 l 1
 108.742781064 0.125 l 1
 108.700788877 317.77734375 l 1
 108.908796689 451.782226562 l 1
 121.63671875 464.510148623 l 1
237.559953311 674.803710938 m 1
 334.975968936 568.822265625 l 1
 322.248046875 556.094343564 l 1
 224.83203125 556.094343564 l 1
 213.370879834 567.525663387 208.830583597 572.160796255 189.164845466 593.795105043 c 0
 184.836438637 598.556792058 180.508031808 603.318479073 176.14030851 608.04084962 c 1
 171.801475047 603.352006698 167.500247977 598.625557383 163.199020907 593.899108068 c 0
 148.469406574 577.713314004 142.43308597 571.080238623 127.416015625 556.094343564 c 1
 30 556.094343564 l 1
 17.2720779387 568.822265625 l 1
 114.688093564 674.803710938 l 1
 127.416015625 687.531632999 l 1
 224.83203125 687.531632999 l 1
 237.559953311 674.803710938 l 1
EndSplineSet
EndChar

StartChar: ntilde
Encoding: 241 241 149
Width: 407
GlyphClass: 1
Flags: W
HStem: -12.7279 21G<64.8795 161.594 233.393 330.107> 501.803 20G<64.8795 98.9138 127.901 280.769>
VStem: 64.8795 109.442<0.166016 455.148> 233.393 109.442<0.165039 460.595>
LayerCount: 2
Fore
SplineSet
162.549804688 521.803117373 m 1
 246.12109375 521.803117373 l 1
 330.107421875 473.322648623 l 1
 342.835343936 460.594726562 l 1
 342.835343936 0.1650390625 l 1
 330.107421875 -12.5628829989 l 1
 246.12109375 -12.7288986239 l 1
 233.393171689 -0.000976562499997 l 1
 233.393171689 489.043938361 l 1
 174.321672061 455.148464919 l 1
 174.321672061 0.166015625 l 1
 161.59375 -12.5619064364 l 1
 77.607421875 -12.7279220614 l 1
 64.8794998137 2.74519990074e-15 l 1
 64.8794998137 509.1171875 l 1
 77.607421875 521.845109561 l 1
 120.220212668 497.227431604 120.220212668 497.227431604 120.556640625 497.563859561 c 2
 162.549804688 521.803117373 l 1
268.116210938 589.978132627 m 2
 182.008789062 610.518171689 l 1
 88.0009765625 582.452742001 l 2
 87.2942386464 583.128176428 37.6349140398 629.575640461 17.2720779387 649.938476562 c 1
 30 662.666398623 l 1
 106.543945312 685.450578311 l 1
 223.502929688 657.551164249 l 1
 223.959960938 657.094132999 l 1
 318.798828125 685.408586123 l 2
 319.505572363 684.732748501 369.165148275 638.244414412 389.527726749 617.881835938 c 1
 376.799804688 605.153913877 l 1
 300.255859375 582.410749814 l 1
 300.255859375 582.410749814 268.340516344 589.978315336 268.116210938 589.978132627 c 2
EndSplineSet
EndChar

StartChar: ograve
Encoding: 242 242 150
Width: 348
GlyphClass: 1
Flags: W
HStem: -12.7289 21G<67.2119 269.279> 499.974 20G<116.789 235.267 235.267 331.11>
VStem: 54.484 109.193<20.0756 453.249> 221.917 109.193<53.7154 486.878>
LayerCount: 2
Fore
SplineSet
67.2119140625 -12.5619064364 m 1
 54.4839920012 0.166015625 l 1
 54.4839920012 458.891601562 l 1
 67.2119140625 471.619523623 l 1
 67.7109375 471.619523623 l 1
 151.40625 519.974015811 l 1
 235.1015625 519.974015811 l 1
 235.266962793 519.808615518 l 1
 318.381835938 519.932023623 l 1
 331.109757999 507.204101562 l 1
 331.109757999 48.353515625 l 1
 318.381835938 35.6255935637 l 1
 234.64453125 -12.7288986239 l 1
 150.94921875 -12.7288986239 l 1
 67.2119140625 -12.5619064364 l 1
281.211914062 563.910749814 m 1
 155.606445312 563.910749814 l 1
 30.0009765625 636.422468564 l 1
 17.2730545012 649.150390625 l 1
 30.0009765625 661.878312686 l 1
 155.606445312 661.878312686 l 1
 281.211914062 589.366593936 l 1
 293.939836123 576.638671875 l 1
 281.211914062 563.910749814 l 1
221.916609189 486.877794995 m 1
 163.677140811 453.249141431 l 1
 163.677140811 20.0755500992 l 1
 221.916609189 53.7154485985 l 1
 221.916609189 486.877794995 l 1
EndSplineSet
EndChar

StartChar: oacute
Encoding: 243 243 151
Width: 318
GlyphClass: 1
Flags: W
HStem: -12.7279 21G<30.001 232.051> 499.974 20G<79.5359 198.056 198.056 293.857>
VStem: 17.2731 109.151<20.0777 453.246> 184.706 109.151<53.7326 486.882>
LayerCount: 2
Fore
SplineSet
113.696289062 -12.7279220614 m 1
 30.0009765625 -12.5619064364 l 1
 17.2730545012 0.166015625 l 1
 17.2730545012 458.891601562 l 1
 30.0009765625 471.619523623 l 1
 30.4580078125 471.619523623 l 1
 114.153320312 519.974015811 l 1
 197.890625 519.974015811 l 1
 198.055957708 519.808683103 l 1
 281.12890625 519.933000186 l 1
 293.856828311 507.205078125 l 1
 293.856828311 48.3544921875 l 1
 281.12890625 35.6265701262 l 1
 197.43359375 -12.7279220614 l 1
 113.696289062 -12.7279220614 l 1
288.072265625 636.422468564 m 1
 162.466796875 563.910749814 l 1
 36.861328125 563.910749814 l 1
 24.1334060637 576.638671875 l 1
 36.861328125 589.366593936 l 1
 162.466796875 661.878312686 l 1
 288.072265625 661.878312686 l 1
 300.800187686 649.150390625 l 1
 288.072265625 636.422468564 l 1
184.705671689 486.881500743 m 1
 126.424211123 453.245568747 l 1
 126.424211123 20.0777192655 l 1
 184.705671689 53.7326170448 l 1
 184.705671689 486.881500743 l 1
EndSplineSet
EndChar

StartChar: ocircumflex
Encoding: 244 244 152
Width: 352
GlyphClass: 1
Flags: W
HStem: -12.7289 21G<55.5293 257.609> 499.933 20G<105.035 223.585 223.585 319.385>
VStem: 42.8014 109.151<20.0705 453.246> 210.234 109.151<53.6969 486.882>
LayerCount: 2
Fore
SplineSet
55.529296875 -12.6029220614 m 1
 42.8013748137 0.125 l 1
 42.8013748137 458.891601562 l 1
 55.529296875 471.619523623 l 1
 55.986328125 471.619523623 l 1
 139.681640625 519.933000186 l 1
 223.418945312 519.933000186 l 1
 223.585029008 519.76691649 l 1
 306.657226562 519.932023623 l 1
 319.385148623 507.204101562 l 1
 319.385148623 48.3125 l 1
 306.657226562 35.5845779387 l 1
 222.961914062 -12.7288986239 l 1
 139.224609375 -12.7288986239 l 1
 55.529296875 -12.6029220614 l 1
210.233992001 486.881500743 m 1
 151.952531436 453.245568747 l 1
 151.952531436 20.0705084007 l 1
 210.233992001 53.6968591595 l 1
 210.233992001 486.881500743 l 1
176.141285072 615.815263683 m 1
 171.802451589 611.126420739 167.501224499 606.399971402 163.199997409 601.673522064 c 0
 148.470383165 585.487728098 142.434062536 578.854652689 127.416992188 563.868757627 c 1
 30.0009765625 563.868757627 l 1
 17.2730545012 576.596679688 l 1
 114.689070127 682.578125 l 1
 127.416992188 695.306047061 l 1
 224.833007812 695.306047061 l 1
 237.560929873 682.578125 l 1
 334.976945499 576.596679688 l 1
 322.249023438 563.868757627 l 1
 224.833007812 563.868757627 l 1
 213.371856396 575.30007745 208.831560158 579.935210319 189.165822028 601.569519106 c 0
 184.837415199 606.331206121 180.50900837 611.092893136 176.141285072 615.815263683 c 1
EndSplineSet
EndChar

StartChar: otilde
Encoding: 245 245 153
Width: 407
GlyphClass: 1
Flags: W
HStem: -12.7279 21G<77.7314 279.781> 499.933 20G<127.237 245.745 245.745 341.587>
VStem: 65.0035 109.151<20.0777 453.246> 232.436 109.151<53.7326 486.882>
LayerCount: 2
Fore
SplineSet
161.426757812 -12.7279220614 m 1
 77.7314453125 -12.5619064364 l 1
 65.0035232512 0.166015625 l 1
 65.0035232512 458.891601562 l 1
 77.7314453125 471.619523623 l 1
 78.1884765625 471.619523623 l 1
 161.883789062 519.933000186 l 1
 245.62109375 519.933000186 l 1
 245.745472121 519.808621815 l 1
 328.859375 519.933000186 l 1
 341.587297061 507.205078125 l 1
 341.587297061 48.3544921875 l 1
 328.859375 35.6265701262 l 1
 245.1640625 -12.7279220614 l 1
 161.426757812 -12.7279220614 l 1
268.115234375 585.655867001 m 2
 182.0078125 606.195906064 l 1
 88 578.130476377 l 2
 87.2932557624 578.806313999 37.6336798497 625.294648089 17.2711013762 645.657226562 c 1
 29.9990234375 658.385148623 l 1
 106.54296875 681.128312686 l 1
 145.562629323 671.861840447 184.519059035 662.532137345 223.501953125 653.228898623 c 1
 224.000976562 652.771867373 l 1
 318.797851562 681.086320499 l 2
 319.5045958 680.410482877 369.164171721 633.922148777 389.526750186 613.559570312 c 1
 376.798828125 600.831648251 l 1
 300.254882812 578.088484189 l 1
 300.254882812 578.088484189 268.339539785 585.65604971 268.115234375 585.655867001 c 2
232.436140439 486.881500743 m 1
 174.154679873 453.245568747 l 1
 174.154679873 20.0777192655 l 1
 232.436140439 53.7326170448 l 1
 232.436140439 486.881500743 l 1
EndSplineSet
EndChar

StartChar: oslash
Encoding: 248 248 154
Width: 593
GlyphClass: 1
Flags: W
HStem: -12.7289 21G<180.637 382.674> 499.933 20G<230.125 348.609 348.609 444.451 507.368 575.503>
VStem: 167.867 109.192<20.0742 80.5914 160.406 195.331 275.238 453.248> 335.299 109.151<53.6932 256.58 336.486 371.37 451.217 486.877>
LayerCount: 2
Fore
SplineSet
17.2730545012 2.037109375 m 1
 167.866804501 160.40625 l 1
 167.866804501 458.891601562 l 1
 180.594726562 471.619523623 l 1
 181.051757812 471.619523623 l 1
 264.7890625 519.933000186 l 1
 348.484375 519.933000186 l 1
 348.608549803 519.808825383 l 1
 431.72265625 519.974015811 l 1
 444.450578311 507.24609375 l 1
 444.450578311 451.217004154 l 1
 502.436038846 512.064351531 502.436038846 512.064351531 512.299804688 521.928117373 c 1
 562.775390625 521.928117373 l 1
 575.503312686 509.200195312 l 1
 444.450578311 371.370117188 l 1
 444.450578311 48.3125 l 1
 431.72265625 35.5845779387 l 1
 348.02734375 -12.7288986239 l 1
 180.63671875 -12.5619064364 l 1
 167.908796689 0.166015625 l 1
 167.908796689 80.591356301 l 1
 87.9485038436 -3.25988696774 87.9485038436 -3.25988696774 80.517578125 -10.6908126864 c 1
 30.0009765625 -10.6908126864 l 1
 17.2730545012 2.037109375 l 1
335.299421689 53.6931746967 m 1
 335.299421689 256.579535083 l 1
 277.059953311 195.331054688 l 1
 277.059953311 20.0741928635 l 1
 335.299421689 53.6931746967 l 1
335.298445127 486.876818432 m 1
 277.058976749 453.248164869 l 1
 277.058976749 275.23784773 l 1
 335.298445127 336.486328125 l 1
 335.298445127 486.876818432 l 1
EndSplineSet
EndChar

StartChar: ugrave
Encoding: 249 249 155
Width: 353
GlyphClass: 1
Flags: W
HStem: -12.7279 21G<322.456 335.6> 499.933 20G<59.3072 106.631>
VStem: 59.2652 109.069<101.942 458.892> 226.495 109.105<68.453 362.349>
LayerCount: 2
Fore
SplineSet
239.301757812 423.390031436 m 1
 322.872070312 375.076554873 l 1
 335.599992373 362.348632812 l 1
 335.599992373 8.06646416329e-17 l 1
 322.872070312 -12.7279220614 l 1
 322.456054688 -12.4788986239 l 1
 239.217773438 -12.4788986239 l 1
 71.9931640625 83.8150466887 l 1
 59.2652420012 96.54296875 l 1
 59.3072341887 507.205078125 l 1
 72.03515625 519.933000186 l 1
 155.606445312 471.619523623 l 1
 168.334367373 458.891601562 l 1
 168.334367373 101.942151738 l 1
 226.495396532 68.4530240646 l 1
 226.573835751 410.662109375 l 1
 239.301757812 423.390031436 l 1
281.2109375 556.510359189 m 1
 155.60546875 556.510359189 l 1
 30 629.022077939 l 1
 17.2720779387 641.75 l 1
 30 654.477922061 l 1
 155.60546875 654.477922061 l 1
 281.2109375 581.966203311 l 1
 293.938859561 569.23828125 l 1
 281.2109375 556.510359189 l 1
EndSplineSet
EndChar

StartChar: uacute
Encoding: 250 250 156
Width: 353
GlyphClass: 1
Flags: W
HStem: -12.7279 21G<280.504 293.606> 499.891 20G<17.3131 64.6665>
VStem: 17.2711 109.069<101.941 458.892> 184.541 109.065<68.4237 362.349>
LayerCount: 2
Fore
SplineSet
197.30859375 423.348039249 m 1
 280.877929688 375.076554873 l 1
 293.605851749 362.348632812 l 1
 293.605851749 8.06646416329e-17 l 1
 280.877929688 -12.7279220614 l 1
 280.50390625 -12.5199142489 l 1
 197.265625 -12.5199142489 l 1
 29.9990234375 83.8150466887 l 1
 17.2711013762 96.54296875 l 1
 17.3130935637 507.163085938 l 1
 30.041015625 519.891007999 l 1
 113.612304688 471.619523623 l 1
 126.340226749 458.891601562 l 1
 126.340226749 101.941003015 l 1
 184.540987652 68.4237450507 l 1
 184.580671689 410.620117188 l 1
 197.30859375 423.348039249 l 1
322.87109375 627.025984189 m 1
 197.265625 554.514265439 l 1
 71.66015625 554.514265439 l 1
 58.9322341887 567.2421875 l 1
 71.66015625 579.970109561 l 1
 197.265625 652.481828311 l 1
 322.87109375 652.481828311 l 1
 335.599015811 639.75390625 l 1
 322.87109375 627.025984189 l 1
EndSplineSet
EndChar

StartChar: ucircumflex
Encoding: 251 251 157
Width: 364
GlyphClass: 1
Flags: W
HStem: -12.7279 21G<280.503 282.999> 499.891 20G<17.3121 64.6656>
VStem: 17.2701 109.069<101.94 458.892> 184.54 109.067<68.4192 362.349>
LayerCount: 2
Fore
SplineSet
293.606828311 362.348632812 m 1
 293.606828311 8.06646416329e-17 l 1
 289.364080086 -4.24318419073 285.120365163 -8.48540168358 280.876953125 -12.7279220614 c 1
 280.502929688 -12.5199142489 l 1
 197.264648438 -12.5199142489 l 1
 29.998046875 83.8150466887 l 1
 17.2701248137 96.54296875 l 1
 17.3121170012 507.163085938 l 1
 30.0400390625 519.891007999 l 1
 113.611328125 471.619523623 l 1
 126.339250186 458.891601562 l 1
 126.339250186 101.940188814 l 1
 184.540010563 68.4192080686 l 1
 184.579695127 410.620117188 l 1
 197.307617188 423.348039249 l 1
 280.87890625 375.076554873 l 1
 293.606828311 362.348632812 l 1
187.740894448 609.246904307 m 1
 183.402060986 604.558061387 179.100833917 599.831612073 174.799606848 595.105162759 c 0
 160.069992514 578.919368694 154.033671909 572.286293312 139.016601562 557.300398251 c 1
 41.6005859375 557.300398251 l 1
 28.8726638762 570.028320312 l 1
 126.288679501 676.009765625 l 1
 139.016601562 688.737687686 l 1
 236.432617188 688.737687686 l 1
 249.160539249 676.009765625 l 1
 346.576554873 570.028320312 l 1
 333.848632812 557.300398251 l 1
 236.432617188 557.300398251 l 1
 224.971465772 568.731718074 220.431169535 573.366850942 200.765431404 595.00115973 c 0
 196.437024575 599.762846745 192.108617745 604.52453376 187.740894448 609.246904307 c 1
EndSplineSet
EndChar

StartChar: yacute
Encoding: 253 253 158
Width: 337
GlyphClass: 1
Flags: W
HStem: -12.7269 21G<101.925 149.255>
VStem: 17.6471 109.478<287.362 694.97> 101.925 109.401<48.5225 219.9> 185.534 109.446<253.638 693.266>
LayerCount: 2
Fore
SplineSet
307.447265625 900.524031064 m 1x80
 181.841796875 828.012312314 l 1
 56.1943359375 828.012312314 l 1
 43.4664138762 840.740234375 l 1
 56.1943359375 853.468156436 l 1
 181.841796875 925.979875186 l 1
 307.447265625 925.979875186 l 1
 320.175187686 913.251953125 l 1
 307.447265625 900.524031064 l 1x80
102.290228294 227.761609642 m 1
 30.375 269.252546689 l 1
 17.6470779387 281.98046875 l 1
 17.2730545012 743.491210938 l 1
 30.0009765625 756.219132999 l 1
 113.946289062 707.697648623 l 1
 126.674211123 694.969726562 l 1
 127.125285924 287.361958337 l 1
 185.533842203 253.637808462 l 1
 186.369734189 693.265625 l 1
 199.09765625 705.993547061 l 1
 283.083984375 754.515031436 l 1
 295.811906436 741.787109375 l 1
 294.979875186 232.627929688 l 1xd0
 282.251953125 219.900007627 l 1
 211.751989788 219.900007627 l 1
 211.326554873 48.5224609375 l 1
 198.598632812 35.7945388762 l 1
 114.653320312 -12.7269454989 l 1
 101.925398251 0.000976562500003 l 1xa0
 102.290228294 227.761609642 l 1
EndSplineSet
EndChar

StartChar: ydieresis
Encoding: 255 255 159
Width: 340
GlyphClass: 1
Flags: W
HStem: -12.7279 21G<121.838 169.215> 813.045 127.861<30 132.405 208.035 310.44>
VStem: 17.2721 127.861<825.772 928.178> 37.5611 109.479<287.365 694.97> 121.838 109.442<48.4795 219.857> 195.307 127.861<825.772 928.178> 205.49 109.403<253.634 693.264>
LayerCount: 2
Fore
SplineSet
132.405273438 813.044538877 m 1xe0
 30 813.044538877 l 1
 17.2720779387 825.772460938 l 1
 17.2720779387 928.177734375 l 1
 30 940.905656436 l 1
 132.405273438 940.905656436 l 1
 145.133195499 928.177734375 l 1
 145.133195499 825.772460938 l 1
 132.405273438 813.044538877 l 1xe0
310.440429688 813.044538877 m 1
 208.03515625 813.044538877 l 1
 195.307234189 825.772460938 l 1
 195.307234189 928.177734375 l 1
 208.03515625 940.905656436 l 1
 310.440429688 940.905656436 l 1
 323.168351749 928.177734375 l 1
 323.168351749 825.772460938 l 1xc4
 310.440429688 813.044538877 l 1
122.244242101 227.701624706 m 1
 50.2890625 269.251570127 l 1
 37.5611404387 281.979492188 l 1
 37.1871170012 743.44921875 l 1
 49.9150390625 756.177140811 l 1
 133.901367188 707.697648623 l 1
 146.629289249 694.969726562 l 1
 147.039879581 287.365329884 l 1
 205.489762432 253.634217285 l 1
 206.322859189 693.263671875 l 1
 219.05078125 705.991593936 l 1
 302.99609375 754.513078311 l 1
 315.724015811 741.78515625 l 1
 314.892961123 232.584960938 l 1xd2
 302.165039062 219.857038877 l 1
 231.667911295 219.857038877 l 1
 231.280656436 48.4794921875 l 1
 218.552734375 35.7515701262 l 1
 134.56640625 -12.7279220614 l 1
 121.838484189 2.74519990074e-15 l 1xc8
 122.244242101 227.701624706 l 1
EndSplineSet
EndChar

StartChar: Lslash
Encoding: 321 321 160
Width: 399
GlyphClass: 1
Flags: W
HStem: -12.7279 21G<229.946 308.012> 692.645 20G<89.3678 222.96>
VStem: 132.649 112.021<96.1685 279.376 478.954 669.373>
LayerCount: 2
Fore
SplineSet
132.649031064 62.8705001863 m 1
 132.649031064 279.376062706 l 1
 56.6923828125 214.992781064 l 1
 43.9644607512 227.720703125 l 1
 17.2720779387 284.266601562 l 1
 30 296.994523623 l 1
 132.650007627 383.996849655 l 1
 132.650007627 669.373251638 l 1
 102.095703125 687.189070127 l 1
 89.3677810637 699.916992188 l 1
 102.095703125 712.644914249 l 1
 188.66015625 712.644914249 l 1
 231.942382812 687.407609561 l 1
 244.670304873 674.6796875 l 1
 244.670304873 478.953793543 l 1
 342.497070312 561.843156436 l 1
 355.224992373 549.115234375 l 1
 381.959367373 492.569335938 l 1
 369.231445312 479.841413877 l 1
 244.670304873 374.292628695 l 1
 244.670304873 96.1684667838 l 1
 273.39453125 112.764054873 l 1
 360.083984375 62.7044845613 l 1
 372.811906436 49.9765625 l 1
 360.083984375 37.2486404387 l 1
 273.26953125 -12.7279220614 l 1
 230.1953125 -12.7279220614 l 1
 229.946289062 -12.5619064364 l 1
 145.501953125 -12.5619064364 l 1
 75.9423828125 37.4146560637 l 1
 63.2144607512 50.142578125 l 1
 75.9423828125 62.8705001863 l 1
 132.649031064 62.8705001863 l 1
EndSplineSet
EndChar

StartChar: lslash
Encoding: 322 322 161
Width: 356
GlyphClass: 1
Flags: W
HStem: -12.7269 21G<121.638 319.143> 692.562 20G<108.91 217.77>
VStem: 108.91 108.86<22.032 254.406 451.669 699.834>
LayerCount: 2
Fore
SplineSet
285.411132812 60.8744064363 m 1
 326.19921875 36.8021408113 l 1
 338.927140811 24.07421875 l 1
 326.19921875 11.3462966887 l 1
 284.497070312 -12.7269454989 l 1
 201.591796875 -12.7269454989 l 1
 121.637695312 -12.5189376864 l 1
 108.909773251 0.208984375 l 1
 108.909773251 254.406265347 l 1
 56.693359375 210.045515439 l 1
 43.9654373137 222.7734375 l 1
 17.2730545012 279.27734375 l 1
 30.0009765625 292.005265811 l 1
 108.909773251 359.099102426 l 1
 108.909773251 699.833984375 l 1
 121.637695312 712.561906436 l 1
 205.041992188 712.561906436 l 1
 217.769914249 699.833984375 l 1
 217.769914249 451.668620078 l 1
 269.529296875 495.651750186 l 1
 282.257218936 482.923828125 l 1
 308.949601749 426.377929688 l 1
 296.221679688 413.650007627 l 1
 217.769914249 346.96751944 l 1
 217.769914249 22.0319516004 l 1
 285.411132812 60.8744064363 l 1
EndSplineSet
EndChar

StartChar: OE
Encoding: 338 338 162
Width: 449
GlyphClass: 1
Flags: W
HStem: -10.7309 50.4431<332.435 376.008> 691.898 20G<81.8688 367.071>
VStem: 17.2721 111.978<20.078 643.856> 190.276 111.978<57.2587 336.732 411.956 654.074>
LayerCount: 2
Fore
SplineSet
129.250382999 20.0780278713 m 1
 190.275984189 55.3143396889 l 1
 190.275984189 679.091894004 l 1
 129.250382999 643.855582186 l 1
 129.250382999 20.0780278713 l 1
302.254289249 336.732038877 m 1
 302.254289249 57.2587324877 l 1
 332.434570312 39.7122970613 l 1
 376.0078125 39.7122970613 l 1
 419.083007812 14.7249923738 l 1
 431.810929873 1.9970703125 l 1
 419.083007812 -10.7308517489 l 1
 289.319335938 -10.7308517489 l 1
 247.94921875 13.2173904387 l 1
 203.00390625 -12.7269454989 l 1
 116.522460938 -12.7269454989 l 1
 30 -12.5199142489 l 1
 17.2720779387 0.2080078125 l 1
 17.2720779387 649.234375 l 1
 30 661.962297061 l 1
 116.522460938 711.897843936 l 1
 332.434570312 711.897843936 l 1
 418.625 662.129289249 l 1
 431.352922061 649.401367188 l 1
 418.625 636.673445127 l 1
 332.434570312 636.673445127 l 1
 302.254289249 654.073574397 l 1
 302.254289249 411.956437686 l 1
 316.094726562 411.956437686 l 1
 402.28515625 362.187882999 l 1
 415.013078311 349.459960938 l 1
 402.28515625 336.732038877 l 1
 302.254289249 336.732038877 l 1
EndSplineSet
EndChar

StartChar: oe
Encoding: 339 339 163
Width: 480
GlyphClass: 1
Flags: W
HStem: -12.7289 21G<30.001 232.088 246.413 399.181> 499.933 20G<79.5065 198.056 198.056 281.858 281.858 400.747>
VStem: 17.2731 109.151<20.0725 453.246> 184.498 109.36<53.6113 245.823 278.366 486.882> 353.428 109.11<278.366 453.329>
LayerCount: 2
Fore
SplineSet
462.496455057 458.724609371 m 1
 462.538468936 216.6171875 l 1
 449.810546875 203.889265439 l 1
 366.15625 203.889265439 l 1
 365.44921875 204.596296689 l 1
 365.241210938 204.596296689 l 1
 293.85770235 245.822935342 l 1
 293.85770235 235.60298554 293.857804873 225.383035739 293.857804873 215.163085938 c 2
 294.083554431 20.1083862271 l 1
 364.534179688 61.0404220613 l 1
 448.229492188 61.0404220613 l 1
 460.957414249 48.3125 l 1
 448.229492188 35.5845779387 l 1
 364.534179688 -12.7288986239 l 1
 281.37890625 -12.7288986239 l 1
 239.21875 11.3863357512 l 1
 197.43359375 -12.7288986239 l 1
 30.0009765625 -12.6029220614 l 1
 17.2730545012 0.125 l 1
 17.2730545012 458.891601562 l 1
 30.0009765625 471.619523623 l 1
 30.4580078125 471.619523623 l 1
 114.153320312 519.933000186 l 1
 197.890625 519.933000186 l 1
 198.055734071 519.767891115 l 1
 281.12890625 519.933000186 l 1
 281.857910156 519.20399628 l 1
 282.418945312 519.765031436 l 1
 366.114257812 519.765031436 l 1
 449.769786885 471.454665141 l 1
 454.012952305 467.212255914 458.254441041 462.968170003 462.496455057 458.724609371 c 1
184.705671689 486.881500743 m 1
 126.424211123 453.245568747 l 1
 126.424211123 20.0724543945 l 1
 184.538616576 53.6113054467 l 1
 184.497663877 265.638671875 l 1
 184.705671689 427.250976562 l 1
 184.705671689 486.881500743 l 1
293.85759353 278.365617373 m 1
 353.428327939 278.365617373 l 1
 353.428327939 449.369140625 l 1
 353.410552278 453.328979022 l 1
 293.856893513 487.706582869 l 1
 293.856893513 417.926261037 293.85759353 348.145939205 293.85759353 278.365617373 c 1
EndSplineSet
EndChar

StartChar: Scaron
Encoding: 352 352 164
Width: 362
GlyphClass: 1
Flags: W
HStem: -12.7289 21G<123.986 279.649> 692.52 20G<123.908 279.544>
VStem: 59.1822 112.436<416.66 650.064> 231.937 112.436<49.7256 256.233>
LayerCount: 2
Fore
SplineSet
244.665039062 -12.7288986239 m 1
 158.640625 -12.7288986239 l 1
 72.1181640625 37.2056716887 l 1
 59.3902420012 49.93359375 l 1
 72.1181640625 62.6615158113 l 1
 158.640625 62.6615158113 l 1
 231.937117001 20.1151192637 l 1
 231.937117001 256.233392537 l 1
 71.91015625 349.245710751 l 1
 59.1822341887 361.973632812 l 1
 59.1822341887 650.064453125 l 1
 71.91015625 662.792375186 l 1
 158.890625 712.519914249 l 1
 244.873046875 712.519914249 l 1
 331.4375 662.585343936 l 1
 344.165422061 649.857421875 l 1
 331.4375 637.129499814 l 1
 244.873046875 637.129499814 l 1
 171.618547061 679.672288118 l 1
 171.618547061 416.659655878 l 1
 331.4375 323.810929873 l 1
 344.165422061 311.083007812 l 1
 344.165422061 249.672851562 l 1
 344.373429873 49.7255859375 l 1
 331.645507812 36.9976638762 l 1
 244.665039062 -12.7288986239 l 1
224.83203125 733.962507627 m 1
 127.416015625 733.962507627 l 1
 114.688093564 746.690429688 l 1
 17.2720779387 852.671875 l 1
 30 865.399797061 l 1
 127.416015625 865.399797061 l 1
 138.876980993 853.968096676 143.4182649 849.333770115 163.102486079 827.718787778 c 0
 167.435001199 822.961310357 171.76751632 818.203832936 176.13859302 813.484917096 c 1
 180.473743912 818.169996173 184.771296183 822.892673871 189.068848454 827.615351568 c 0
 203.781977175 843.783942547 209.823151442 850.422726017 224.83203125 865.399797061 c 1
 322.248046875 865.399797061 l 1
 334.975968936 852.671875 l 1
 237.559953311 746.690429688 l 1
 224.83203125 733.962507627 l 1
EndSplineSet
EndChar

StartChar: scaron
Encoding: 353 353 165
Width: 352
GlyphClass: 1
Flags: W
HStem: -12.7279 21G<79.1495 231.565> 499.933 20G<120.728 273.101> 692.687 20G<17.2731 133.147 217.329 334.977>
VStem: 58.9752 108.828<319.556 458.892> 184.236 109.082<48.3135 187.81>
LayerCount: 2
Fore
SplineSet
224.833007812 581.249617001 m 1
 127.416992188 581.249617001 l 1
 114.689070127 593.977539062 l 1
 17.2730545012 699.958984375 l 1
 30.0009765625 712.686906436 l 1
 127.416992188 712.686906436 l 1
 138.877957559 701.255206048 143.419241468 696.620879485 163.103462657 675.005897135 c 0
 167.435977772 670.24841972 171.768492887 665.490942305 176.139569583 660.772026471 c 1
 180.474720467 665.457105539 184.77227273 670.179783229 189.069824993 674.902460918 c 0
 203.782953738 691.071051923 209.824128001 697.709835389 224.833007812 712.686906436 c 1
 322.249023438 712.686906436 l 1
 334.976945499 699.958984375 l 1
 237.560929873 593.977539062 l 1
 224.833007812 581.249617001 l 1
196.934570312 -12.7279220614 m 1
 113.779296875 -12.7279220614 l 1
 30.125 35.5855545012 l 1
 17.3970779387 48.3134765625 l 1
 30.125 61.0413986238 l 1
 113.779296875 61.0413986238 l 1
 184.23601265 20.105824179 l 1
 184.456648251 176.372070312 l 1
 184.259930303 187.809639705 l 1
 71.703125 252.952742001 l 1
 58.9752029387 265.680664062 l 1
 58.9752029387 458.891601562 l 1
 71.703125 471.619523623 l 1
 155.358398438 519.933000186 l 1
 238.470703125 519.933000186 l 1
 322.125 471.619523623 l 1
 334.852922061 458.891601562 l 1
 322.125 446.163679501 l 1
 238.470703125 446.163679501 l 1
 168.055998695 487.095515195 l 1
 167.803377303 319.555821882 l 1
 280.589482524 254.251712253 l 1
 284.832303194 250.009339097 289.075280643 245.76712272 293.317765811 241.524414062 c 1
 293.317765811 48.3134765625 l 1
 280.58984375 35.5855545012 l 1
 196.934570312 -12.7279220614 l 1
EndSplineSet
EndChar

